NotoSansMyanmar-CondensedBold.ufo
<glyph name="question" format="2">
  <advance width="402"/>
  <unicode hex="003F"/>
  <outline>
    <contour>
      <point x="107" y="282" type="line"/>
      <point x="243" y="282" type="line"/>
      <point x="243" y="289" type="line" smooth="yes"/>
      <point x="243" y="299"/>
      <point x="245" y="318"/>
      <point x="295" y="362" type="curve" smooth="yes"/>
      <point x="354" y="414"/>
      <point x="388" y="460"/>
      <point x="388" y="546" type="curve" smooth="yes"/>
      <point x="388" y="655"/>
      <point x="319" y="724"/>
      <point x="189" y="724" type="curve" smooth="yes"/>
      <point x="126" y="724"/>
      <point x="63" y="701"/>
      <point x="0" y="655" type="curve"/>
      <point x="52" y="528" type="line"/>
      <point x="98" y="562"/>
      <point x="138" y="580"/>
      <point x="173" y="580" type="curve" smooth="yes"/>
      <point x="212" y="580"/>
      <point x="230" y="563"/>
      <point x="230" y="532" type="curve" smooth="yes"/>
      <point x="230" y="494"/>
      <point x="215" y="476"/>
      <point x="175" y="440" type="curve" smooth="yes"/>
      <point x="126" y="396"/>
      <point x="107" y="360"/>
      <point x="107" y="295" type="curve" smooth="yes"/>
    </contour>
    <contour>
      <point x="177" y="-9" type="curve" smooth="yes"/>
      <point x="245" y="-9"/>
      <point x="292" y="34"/>
      <point x="292" y="113" type="curve" smooth="yes"/>
      <point x="292" y="182"/>
      <point x="246" y="232"/>
      <point x="177" y="232" type="curve" smooth="yes"/>
      <point x="109" y="232"/>
      <point x="65" y="186"/>
      <point x="65" y="112" type="curve" smooth="yes"/>
      <point x="65" y="35"/>
      <point x="110" y="-9"/>
    </contour>
    <contour>
      <point x="179" y="71" type="curve" smooth="yes"/>
      <point x="162" y="71"/>
      <point x="154" y="87"/>
      <point x="154" y="112" type="curve" smooth="yes"/>
      <point x="154" y="139"/>
      <point x="165" y="153"/>
      <point x="179" y="153" type="curve" smooth="yes"/>
      <point x="193" y="153"/>
      <point x="204" y="139"/>
      <point x="204" y="112" type="curve" smooth="yes"/>
      <point x="204" y="87"/>
      <point x="193" y="71"/>
    </contour>
  </outline>
</glyph>
<glyph name="ka" format="2">
  <advance width="870"/>
  <unicode hex="1000"/>
  <note>
ka
</note>
  <outline>
    <contour>
      <point x="159" y="-10" type="curve"/>
      <point x="235" y="126" type="line"/>
      <point x="201" y="175"/>
      <point x="199" y="220"/>
      <point x="199" y="276" type="curve" smooth="yes"/>
      <point x="199" y="363"/>
      <point x="230" y="423"/>
      <point x="282" y="423" type="curve" smooth="yes"/>
      <point x="338" y="423"/>
      <point x="362" y="355"/>
      <point x="362" y="276" type="curve" smooth="yes"/>
      <point x="362" y="222"/>
      <point x="355" y="169"/>
      <point x="306" y="126" type="curve"/>
      <point x="381" y="-10" type="line"/>
      <point x="467" y="44"/>
      <point x="503" y="144"/>
      <point x="503" y="276" type="curve" smooth="yes"/>
      <point x="503" y="450"/>
      <point x="425" y="558"/>
      <point x="272" y="558" type="curve" smooth="yes"/>
      <point x="124" y="558"/>
      <point x="35" y="443"/>
      <point x="35" y="276" type="curve" smooth="yes"/>
      <point x="35" y="135"/>
      <point x="86" y="39"/>
    </contour>
    <contour>
      <point x="625" y="-10" type="curve" smooth="yes"/>
      <point x="739" y="-10"/>
      <point x="835" y="110"/>
      <point x="835" y="274" type="curve" smooth="yes"/>
      <point x="835" y="441"/>
      <point x="730" y="558"/>
      <point x="590" y="558" type="curve" smooth="yes"/>
      <point x="527" y="558"/>
      <point x="463" y="529"/>
      <point x="422" y="465" type="curve"/>
      <point x="487" y="346" type="line"/>
      <point x="499" y="376"/>
      <point x="525" y="423"/>
      <point x="578" y="423" type="curve" smooth="yes"/>
      <point x="628" y="423"/>
      <point x="671" y="367"/>
      <point x="671" y="274" type="curve" smooth="yes"/>
      <point x="671" y="189"/>
      <point x="650" y="133"/>
      <point x="613" y="133" type="curve" smooth="yes"/>
      <point x="594" y="133"/>
      <point x="585" y="138"/>
      <point x="565" y="148" type="curve"/>
      <point x="513" y="23" type="line"/>
      <point x="538" y="-1"/>
      <point x="597" y="-10"/>
    </contour>
  </outline>
</glyph>
<glyph name="kha" format="2">
  <advance width="573"/>
  <unicode hex="1001"/>
  <note>
kha
</note>
  <outline>
    <contour>
      <point x="279" y="-10" type="curve" smooth="yes"/>
      <point x="406" y="-10"/>
      <point x="538" y="75"/>
      <point x="538" y="272" type="curve" smooth="yes"/>
      <point x="538" y="451"/>
      <point x="422" y="558"/>
      <point x="267" y="558" type="curve" smooth="yes"/>
      <point x="179" y="558"/>
      <point x="127" y="542"/>
      <point x="53" y="500" type="curve"/>
      <point x="100" y="373" type="line"/>
      <point x="167" y="412"/>
      <point x="199" y="423"/>
      <point x="250" y="423" type="curve" smooth="yes"/>
      <point x="324" y="423"/>
      <point x="376" y="373"/>
      <point x="376" y="272" type="curve" smooth="yes"/>
      <point x="376" y="176"/>
      <point x="323" y="125"/>
      <point x="267" y="125" type="curve" smooth="yes"/>
      <point x="233" y="125"/>
      <point x="211" y="143"/>
      <point x="199" y="165" type="curve"/>
      <point x="220" y="186"/>
      <point x="243" y="196"/>
      <point x="278" y="196" type="curve" smooth="yes"/>
      <point x="315" y="196"/>
      <point x="347" y="181"/>
      <point x="382" y="158" type="curve"/>
      <point x="397" y="262" type="line"/>
      <point x="346" y="287"/>
      <point x="314" y="299"/>
      <point x="258" y="299" type="curve" smooth="yes"/>
      <point x="175" y="299"/>
      <point x="112" y="273"/>
      <point x="35" y="223" type="curve"/>
      <point x="42" y="79"/>
      <point x="114" y="-10"/>
    </contour>
  </outline>
</glyph>
<glyph name="ga" format="2">
  <advance width="566"/>
  <unicode hex="1002"/>
  <note>
ga
</note>
  <outline>
    <contour>
      <point x="161" y="-10" type="curve"/>
      <point x="236" y="119" type="line"/>
      <point x="199" y="170"/>
      <point x="197" y="217"/>
      <point x="197" y="276" type="curve" smooth="yes"/>
      <point x="197" y="362"/>
      <point x="221" y="423"/>
      <point x="285" y="423" type="curve" smooth="yes"/>
      <point x="341" y="423"/>
      <point x="370" y="365"/>
      <point x="370" y="276" type="curve" smooth="yes"/>
      <point x="370" y="220"/>
      <point x="367" y="170"/>
      <point x="330" y="119" type="curve"/>
      <point x="405" y="-10" type="line"/>
      <point x="479" y="39"/>
      <point x="531" y="134"/>
      <point x="531" y="276" type="curve" smooth="yes"/>
      <point x="531" y="446"/>
      <point x="438" y="558"/>
      <point x="283" y="558" type="curve" smooth="yes"/>
      <point x="127" y="558"/>
      <point x="35" y="446"/>
      <point x="35" y="276" type="curve" smooth="yes"/>
      <point x="35" y="135"/>
      <point x="86" y="39"/>
    </contour>
  </outline>
</glyph>
<glyph name="nga" format="2">
  <advance width="550"/>
  <unicode hex="1004"/>
  <note>
nga
</note>
  <outline>
    <contour>
      <point x="291" y="-9" type="curve" smooth="yes"/>
      <point x="387" y="-9"/>
      <point x="466" y="49"/>
      <point x="505" y="128" type="curve"/>
      <point x="385" y="193" type="line"/>
      <point x="363" y="151"/>
      <point x="340" y="126"/>
      <point x="300" y="126" type="curve" smooth="yes"/>
      <point x="236" y="126"/>
      <point x="197" y="182"/>
      <point x="197" y="274" type="curve" smooth="yes"/>
      <point x="197" y="362"/>
      <point x="235" y="423"/>
      <point x="291" y="423" type="curve" smooth="yes"/>
      <point x="328" y="423"/>
      <point x="358" y="405"/>
      <point x="381" y="362" type="curve"/>
      <point x="486" y="431" type="line"/>
      <point x="453" y="501"/>
      <point x="386" y="558"/>
      <point x="285" y="558" type="curve" smooth="yes"/>
      <point x="126" y="558"/>
      <point x="35" y="437"/>
      <point x="35" y="274" type="curve" smooth="yes"/>
      <point x="35" y="116"/>
      <point x="131" y="-9"/>
    </contour>
  </outline>
</glyph>
<glyph name="ca" format="2">
  <advance width="575"/>
  <unicode hex="1005"/>
  <note>
ca
</note>
  <outline>
    <contour>
      <point x="291" y="-10" type="curve" smooth="yes"/>
      <point x="437" y="-10"/>
      <point x="540" y="105"/>
      <point x="540" y="274" type="curve" smooth="yes"/>
      <point x="540" y="436"/>
      <point x="441" y="558"/>
      <point x="289" y="558" type="curve" smooth="yes"/>
      <point x="143" y="558"/>
      <point x="35" y="444"/>
      <point x="35" y="274" type="curve" smooth="yes"/>
      <point x="35" y="104"/>
      <point x="144" y="-10"/>
    </contour>
    <contour>
      <point x="280" y="101" type="line"/>
      <point x="303" y="160"/>
      <point x="307" y="212"/>
      <point x="307" y="273" type="curve" smooth="yes"/>
      <point x="307" y="342"/>
      <point x="296" y="395"/>
      <point x="286" y="443" type="curve"/>
      <point x="202" y="407" type="line"/>
      <point x="207" y="372"/>
      <point x="219" y="334"/>
      <point x="219" y="278" type="curve" smooth="yes"/>
      <point x="219" y="217"/>
      <point x="210" y="182"/>
      <point x="196" y="139" type="curve"/>
    </contour>
    <contour>
      <point x="266" y="125" type="curve" smooth="yes"/>
      <point x="204" y="125"/>
      <point x="152" y="187"/>
      <point x="152" y="274" type="curve" smooth="yes"/>
      <point x="152" y="353"/>
      <point x="196" y="423"/>
      <point x="270" y="423" type="curve" smooth="yes"/>
      <point x="334" y="423"/>
      <point x="376" y="365"/>
      <point x="376" y="274" type="curve" smooth="yes"/>
      <point x="376" y="178"/>
      <point x="335" y="125"/>
    </contour>
  </outline>
</glyph>
<glyph name="ja" format="2">
  <advance width="560"/>
  <unicode hex="1007"/>
  <note>
ja
</note>
  <outline>
    <contour>
      <point x="295" y="-10" type="curve" smooth="yes"/>
      <point x="345" y="-10"/>
      <point x="392" y="0"/>
      <point x="441" y="34" type="curve"/>
      <point x="365" y="142" type="line"/>
      <point x="344" y="130"/>
      <point x="323" y="125"/>
      <point x="299" y="125" type="curve" smooth="yes"/>
      <point x="239" y="125"/>
      <point x="197" y="183"/>
      <point x="197" y="272" type="curve" smooth="yes"/>
      <point x="197" y="360"/>
      <point x="240" y="422"/>
      <point x="304" y="422" type="curve" smooth="yes"/>
      <point x="317" y="422"/>
      <point x="328" y="422"/>
      <point x="340" y="421" type="curve"/>
      <point x="334" y="445" type="line"/>
      <point x="303" y="423"/>
      <point x="286" y="392"/>
      <point x="286" y="352" type="curve" smooth="yes"/>
      <point x="286" y="286"/>
      <point x="332" y="245"/>
      <point x="392" y="245" type="curve" smooth="yes"/>
      <point x="403" y="245"/>
      <point x="416" y="247"/>
      <point x="423" y="258" type="curve"/>
      <point x="408" y="261" type="line"/>
      <point x="416" y="197"/>
      <point x="448" y="166"/>
      <point x="517" y="166" type="curve" smooth="yes"/>
      <point x="543" y="166" type="line"/>
      <point x="543" y="301" type="line"/>
      <point x="518" y="301"/>
      <point x="500" y="312"/>
      <point x="500" y="340" type="curve" smooth="yes"/>
      <point x="500" y="356"/>
      <point x="502" y="363"/>
      <point x="502" y="386" type="curve" smooth="yes"/>
      <point x="502" y="470"/>
      <point x="452" y="558"/>
      <point x="308" y="558" type="curve" smooth="yes"/>
      <point x="133" y="558"/>
      <point x="35" y="440"/>
      <point x="35" y="274" type="curve" smooth="yes"/>
      <point x="35" y="96"/>
      <point x="129" y="-10"/>
    </contour>
    <contour>
      <point x="394" y="326" type="curve" smooth="yes"/>
      <point x="372" y="326"/>
      <point x="363" y="341"/>
      <point x="363" y="366" type="curve" smooth="yes"/>
      <point x="363" y="392"/>
      <point x="375" y="406"/>
      <point x="394" y="406" type="curve" smooth="yes"/>
      <point x="412" y="406"/>
      <point x="424" y="392"/>
      <point x="424" y="366" type="curve" smooth="yes"/>
      <point x="424" y="341"/>
      <point x="412" y="326"/>
    </contour>
  </outline>
</glyph>
<glyph name="jha" format="2">
  <advance width="787"/>
  <unicode hex="1008"/>
  <note>
jha
</note>
  <outline>
    <contour>
      <point x="526" y="-478" type="curve" smooth="yes"/>
      <point x="655" y="-478"/>
      <point x="742" y="-374"/>
      <point x="742" y="-215" type="curve" smooth="yes"/>
      <point x="742" y="549" type="line"/>
      <point x="581" y="549" type="line"/>
      <point x="581" y="-183" type="line" smooth="yes"/>
      <point x="581" y="-297"/>
      <point x="566" y="-343"/>
      <point x="529" y="-343" type="curve" smooth="yes"/>
      <point x="493" y="-343"/>
      <point x="478" y="-298"/>
      <point x="478" y="-185" type="curve" smooth="yes"/>
      <point x="478" y="127" type="line"/>
      <point x="316" y="7" type="line"/>
      <point x="316" y="-213" type="line" smooth="yes"/>
      <point x="316" y="-378"/>
      <point x="401" y="-478"/>
    </contour>
    <contour>
      <point x="291" y="-10" type="curve" smooth="yes"/>
      <point x="437" y="-10"/>
      <point x="540" y="105"/>
      <point x="540" y="274" type="curve" smooth="yes"/>
      <point x="540" y="436"/>
      <point x="441" y="558"/>
      <point x="289" y="558" type="curve" smooth="yes"/>
      <point x="143" y="558"/>
      <point x="35" y="444"/>
      <point x="35" y="274" type="curve" smooth="yes"/>
      <point x="35" y="104"/>
      <point x="144" y="-10"/>
    </contour>
    <contour>
      <point x="266" y="125" type="curve" smooth="yes"/>
      <point x="204" y="125"/>
      <point x="152" y="187"/>
      <point x="152" y="274" type="curve" smooth="yes"/>
      <point x="152" y="353"/>
      <point x="196" y="423"/>
      <point x="270" y="423" type="curve" smooth="yes"/>
      <point x="334" y="423"/>
      <point x="376" y="365"/>
      <point x="376" y="274" type="curve" smooth="yes"/>
      <point x="376" y="178"/>
      <point x="335" y="125"/>
    </contour>
    <contour>
      <point x="280" y="101" type="line"/>
      <point x="303" y="160"/>
      <point x="307" y="212"/>
      <point x="307" y="273" type="curve" smooth="yes"/>
      <point x="307" y="342"/>
      <point x="296" y="395"/>
      <point x="286" y="443" type="curve"/>
      <point x="202" y="407" type="line"/>
      <point x="207" y="372"/>
      <point x="219" y="334"/>
      <point x="219" y="278" type="curve" smooth="yes"/>
      <point x="219" y="217"/>
      <point x="210" y="182"/>
      <point x="196" y="139" type="curve"/>
    </contour>
  </outline>
</glyph>
<glyph name="tta" format="2">
  <advance width="550"/>
  <unicode hex="100B"/>
  <note>
tta
</note>
  <outline>
    <contour>
      <point x="344" y="-464" type="line"/>
      <point x="559" y="-464" type="line"/>
      <point x="559" y="-330" type="line"/>
      <point x="505" y="-330" type="line"/>
      <point x="505" y="-178" type="line"/>
      <point x="442" y="-208"/>
      <point x="373" y="-230"/>
      <point x="297" y="-230" type="curve" smooth="yes"/>
      <point x="254" y="-230"/>
      <point x="231" y="-228"/>
      <point x="213" y="-223" type="curve"/>
      <point x="213" y="-163" type="line"/>
      <point x="240" y="-168"/>
      <point x="262" y="-170"/>
      <point x="297" y="-170" type="curve" smooth="yes"/>
      <point x="377" y="-170"/>
      <point x="445" y="-148"/>
      <point x="505" y="-115" type="curve"/>
      <point x="505" y="128" type="line"/>
      <point x="344" y="45" type="line"/>
      <point x="344" y="-49" type="line"/>
      <point x="333" y="-53"/>
      <point x="310" y="-58"/>
      <point x="271" y="-58" type="curve" smooth="yes"/>
      <point x="193" y="-58"/>
      <point x="108" y="-32"/>
      <point x="45" y="12" type="curve"/>
      <point x="45" y="-296" type="line"/>
      <point x="121" y="-328"/>
      <point x="185" y="-342"/>
      <point x="266" y="-342" type="curve" smooth="yes"/>
      <point x="286" y="-342"/>
      <point x="321" y="-340"/>
      <point x="344" y="-336" type="curve"/>
    </contour>
    <contour>
      <point x="271" y="-9" type="curve" smooth="yes"/>
      <point x="355" y="-9"/>
      <point x="466" y="49"/>
      <point x="505" y="128" type="curve"/>
      <point x="385" y="193" type="line"/>
      <point x="363" y="151"/>
      <point x="340" y="126"/>
      <point x="300" y="126" type="curve" smooth="yes"/>
      <point x="236" y="126"/>
      <point x="197" y="182"/>
      <point x="197" y="274" type="curve" smooth="yes"/>
      <point x="197" y="362"/>
      <point x="235" y="423"/>
      <point x="291" y="423" type="curve" smooth="yes"/>
      <point x="328" y="423"/>
      <point x="358" y="405"/>
      <point x="381" y="362" type="curve"/>
      <point x="486" y="431" type="line"/>
      <point x="453" y="501"/>
      <point x="386" y="558"/>
      <point x="285" y="558" type="curve" smooth="yes"/>
      <point x="126" y="558"/>
      <point x="35" y="437"/>
      <point x="35" y="274" type="curve" smooth="yes"/>
      <point x="35" y="116"/>
      <point x="131" y="-9"/>
    </contour>
  </outline>
</glyph>
<glyph name="ttha" format="2">
  <advance width="550"/>
  <unicode hex="100C"/>
  <note>
ttha
</note>
  <outline>
    <contour>
      <point x="225" y="-466" type="curve" smooth="yes"/>
      <point x="327" y="-466" type="line" smooth="yes"/>
      <point x="448" y="-466"/>
      <point x="505" y="-394"/>
      <point x="505" y="-250" type="curve" smooth="yes"/>
      <point x="505" y="128" type="line"/>
      <point x="341" y="9" type="line"/>
      <point x="341" y="-260" type="line" smooth="yes"/>
      <point x="341" y="-306"/>
      <point x="331" y="-332"/>
      <point x="297" y="-332" type="curve" smooth="yes"/>
      <point x="249" y="-332" type="line" smooth="yes"/>
      <point x="217" y="-332"/>
      <point x="202" y="-318"/>
      <point x="202" y="-296" type="curve" smooth="yes"/>
      <point x="202" y="-281"/>
      <point x="214" y="-266"/>
      <point x="233" y="-266" type="curve" smooth="yes"/>
      <point x="246" y="-266"/>
      <point x="255" y="-270"/>
      <point x="270" y="-282" type="curve"/>
      <point x="323" y="-180" type="line"/>
      <point x="293" y="-156"/>
      <point x="256" y="-139"/>
      <point x="194" y="-139" type="curve" smooth="yes"/>
      <point x="118" y="-139"/>
      <point x="38" y="-189"/>
      <point x="38" y="-299" type="curve" smooth="yes"/>
      <point x="38" y="-408"/>
      <point x="116" y="-466"/>
    </contour>
    <contour>
      <point x="271" y="-9" type="curve" smooth="yes"/>
      <point x="355" y="-9"/>
      <point x="466" y="49"/>
      <point x="505" y="128" type="curve"/>
      <point x="385" y="193" type="line"/>
      <point x="363" y="151"/>
      <point x="340" y="126"/>
      <point x="300" y="126" type="curve" smooth="yes"/>
      <point x="236" y="126"/>
      <point x="197" y="182"/>
      <point x="197" y="274" type="curve" smooth="yes"/>
      <point x="197" y="362"/>
      <point x="235" y="423"/>
      <point x="291" y="423" type="curve" smooth="yes"/>
      <point x="328" y="423"/>
      <point x="358" y="405"/>
      <point x="381" y="362" type="curve"/>
      <point x="486" y="431" type="line"/>
      <point x="453" y="501"/>
      <point x="386" y="558"/>
      <point x="285" y="558" type="curve" smooth="yes"/>
      <point x="126" y="558"/>
      <point x="35" y="437"/>
      <point x="35" y="274" type="curve" smooth="yes"/>
      <point x="35" y="116"/>
      <point x="131" y="-9"/>
    </contour>
  </outline>
</glyph>
<glyph name="dda" format="2">
  <advance width="550"/>
  <unicode hex="100D"/>
  <note>
dda
</note>
  <outline>
    <contour>
      <point x="337" y="-464" type="line"/>
      <point x="559" y="-464" type="line"/>
      <point x="559" y="-329" type="line"/>
      <point x="505" y="-329" type="line"/>
      <point x="505" y="2" type="line"/>
      <point x="442" y="-42"/>
      <point x="357" y="-68"/>
      <point x="279" y="-68" type="curve" smooth="yes"/>
      <point x="240" y="-68"/>
      <point x="217" y="-63"/>
      <point x="206" y="-59" type="curve"/>
      <point x="206" y="45" type="line"/>
      <point x="45" y="128" type="line"/>
      <point x="45" y="-148" type="line"/>
      <point x="105" y="-181"/>
      <point x="173" y="-203"/>
      <point x="253" y="-203" type="curve" smooth="yes"/>
      <point x="288" y="-203"/>
      <point x="310" y="-201"/>
      <point x="337" y="-196" type="curve"/>
    </contour>
    <contour>
      <point x="279" y="-9" type="curve" smooth="yes"/>
      <point x="419" y="-9"/>
      <point x="515" y="116"/>
      <point x="515" y="274" type="curve" smooth="yes"/>
      <point x="515" y="437"/>
      <point x="424" y="558"/>
      <point x="265" y="558" type="curve" smooth="yes"/>
      <point x="164" y="558"/>
      <point x="97" y="501"/>
      <point x="64" y="431" type="curve"/>
      <point x="169" y="362" type="line"/>
      <point x="192" y="405"/>
      <point x="222" y="423"/>
      <point x="259" y="423" type="curve" smooth="yes"/>
      <point x="315" y="423"/>
      <point x="353" y="362"/>
      <point x="353" y="274" type="curve" smooth="yes"/>
      <point x="353" y="182"/>
      <point x="314" y="126"/>
      <point x="250" y="126" type="curve" smooth="yes"/>
      <point x="210" y="126"/>
      <point x="187" y="151"/>
      <point x="165" y="193" type="curve"/>
      <point x="45" y="128" type="line"/>
      <point x="84" y="49"/>
      <point x="195" y="-9"/>
    </contour>
  </outline>
</glyph>
<glyph name="ddha" format="2">
  <advance width="570"/>
  <unicode hex="100E"/>
  <note>
ddha
</note>
  <outline>
    <contour>
      <point x="275" y="-10" type="curve" smooth="yes"/>
      <point x="447" y="-10"/>
      <point x="535" y="104"/>
      <point x="535" y="272" type="curve" smooth="yes"/>
      <point x="535" y="414"/>
      <point x="482" y="509"/>
      <point x="411" y="558" type="curve"/>
      <point x="335" y="429" type="line"/>
      <point x="372" y="378"/>
      <point x="373" y="328"/>
      <point x="373" y="272" type="curve" smooth="yes"/>
      <point x="373" y="183"/>
      <point x="338" y="125"/>
      <point x="278" y="125" type="curve" smooth="yes"/>
      <point x="226" y="125"/>
      <point x="200" y="159"/>
      <point x="200" y="206" type="curve" smooth="yes"/>
      <point x="200" y="239"/>
      <point x="211" y="264"/>
      <point x="231" y="290" type="curve" smooth="yes"/>
      <point x="262" y="331"/>
      <point x="296" y="370"/>
      <point x="296" y="428" type="curve" smooth="yes"/>
      <point x="296" y="505"/>
      <point x="249" y="559"/>
      <point x="163" y="559" type="curve" smooth="yes"/>
      <point x="93" y="559"/>
      <point x="41" y="523"/>
      <point x="17" y="471" type="curve"/>
      <point x="88" y="393" type="line"/>
      <point x="98" y="409"/>
      <point x="115" y="424"/>
      <point x="132" y="424" type="curve" smooth="yes"/>
      <point x="144" y="424"/>
      <point x="153" y="418"/>
      <point x="153" y="405" type="curve" smooth="yes"/>
      <point x="153" y="386"/>
      <point x="129" y="374"/>
      <point x="95" y="339" type="curve" smooth="yes"/>
      <point x="58" y="301"/>
      <point x="38" y="256"/>
      <point x="38" y="195" type="curve" smooth="yes"/>
      <point x="38" y="77"/>
      <point x="114" y="-10"/>
    </contour>
  </outline>
</glyph>
<glyph name="nna" format="2">
  <advance width="1140"/>
  <unicode hex="100F"/>
  <note>
nna
</note>
  <outline>
    <contour>
      <point x="570" y="-8" type="curve" smooth="yes"/>
      <point x="670" y="-8"/>
      <point x="733" y="52"/>
      <point x="733" y="157" type="curve" smooth="yes"/>
      <point x="733" y="192"/>
      <point x="729" y="225"/>
      <point x="729" y="264" type="curve" smooth="yes"/>
      <point x="729" y="361"/>
      <point x="769" y="423"/>
      <point x="835" y="423" type="curve" smooth="yes"/>
      <point x="898" y="423"/>
      <point x="943" y="368"/>
      <point x="943" y="274" type="curve" smooth="yes"/>
      <point x="943" y="177"/>
      <point x="912" y="127"/>
      <point x="865" y="127" type="curve" smooth="yes"/>
      <point x="851" y="127"/>
      <point x="834" y="128"/>
      <point x="816" y="138" type="curve"/>
      <point x="778" y="10" type="line"/>
      <point x="812" y="-5"/>
      <point x="841" y="-9"/>
      <point x="887" y="-9" type="curve" smooth="yes"/>
      <point x="1015" y="-9"/>
      <point x="1105" y="114"/>
      <point x="1105" y="274" type="curve" smooth="yes"/>
      <point x="1105" y="442"/>
      <point x="993" y="558"/>
      <point x="843" y="558" type="curve" smooth="yes"/>
      <point x="700" y="558"/>
      <point x="603" y="463"/>
      <point x="603" y="290" type="curve" smooth="yes"/>
      <point x="603" y="242"/>
      <point x="606" y="222"/>
      <point x="606" y="177" type="curve" smooth="yes"/>
      <point x="606" y="143"/>
      <point x="592" y="124"/>
      <point x="571" y="124" type="curve" smooth="yes"/>
      <point x="548" y="124"/>
      <point x="535" y="144"/>
      <point x="535" y="177" type="curve" smooth="yes"/>
      <point x="535" y="224"/>
      <point x="536" y="236"/>
      <point x="536" y="290" type="curve" smooth="yes"/>
      <point x="536" y="467"/>
      <point x="438" y="558"/>
      <point x="296" y="558" type="curve" smooth="yes"/>
      <point x="148" y="558"/>
      <point x="35" y="442"/>
      <point x="35" y="274" type="curve" smooth="yes"/>
      <point x="35" y="114"/>
      <point x="125" y="-9"/>
      <point x="253" y="-9" type="curve" smooth="yes"/>
      <point x="300" y="-9"/>
      <point x="330" y="-6"/>
      <point x="362" y="9" type="curve"/>
      <point x="324" y="138" type="line"/>
      <point x="305" y="128"/>
      <point x="289" y="127"/>
      <point x="275" y="127" type="curve" smooth="yes"/>
      <point x="226" y="127"/>
      <point x="197" y="180"/>
      <point x="197" y="274" type="curve" smooth="yes"/>
      <point x="197" y="366"/>
      <point x="240" y="423"/>
      <point x="304" y="423" type="curve" smooth="yes"/>
      <point x="369" y="423"/>
      <point x="411" y="363"/>
      <point x="411" y="269" type="curve" smooth="yes"/>
      <point x="411" y="230"/>
      <point x="408" y="197"/>
      <point x="408" y="155" type="curve" smooth="yes"/>
      <point x="408" y="47"/>
      <point x="472" y="-8"/>
    </contour>
    <contour>
      <point x="517" y="389" type="line"/>
      <point x="528" y="412"/>
      <point x="547" y="424"/>
      <point x="570" y="424" type="curve" smooth="yes"/>
      <point x="590" y="424"/>
      <point x="613" y="413"/>
      <point x="623" y="389" type="curve"/>
      <point x="706" y="494" type="line"/>
      <point x="676" y="528"/>
      <point x="643" y="558"/>
      <point x="571" y="558" type="curve" smooth="yes"/>
      <point x="505" y="558"/>
      <point x="464" y="532"/>
      <point x="434" y="494" type="curve"/>
    </contour>
  </outline>
</glyph>
<glyph name="da" format="2">
  <advance width="546"/>
  <unicode hex="1012"/>
  <note>
da
</note>
  <outline>
    <contour>
      <point x="283" y="-10" type="curve" smooth="yes"/>
      <point x="455" y="-10"/>
      <point x="511" y="79"/>
      <point x="511" y="158" type="curve" smooth="yes"/>
      <point x="511" y="240"/>
      <point x="453" y="277"/>
      <point x="377" y="290" type="curve"/>
      <point x="377" y="295" type="line"/>
      <point x="441" y="314"/>
      <point x="476" y="349"/>
      <point x="476" y="415" type="curve" smooth="yes"/>
      <point x="476" y="504"/>
      <point x="403" y="558"/>
      <point x="264" y="558" type="curve" smooth="yes"/>
      <point x="124" y="558"/>
      <point x="46" y="495"/>
      <point x="46" y="399" type="curve" smooth="yes"/>
      <point x="46" y="363"/>
      <point x="58" y="326"/>
      <point x="90" y="302" type="curve"/>
      <point x="193" y="363" type="line"/>
      <point x="181" y="377"/>
      <point x="178" y="382"/>
      <point x="178" y="392" type="curve" smooth="yes"/>
      <point x="178" y="421"/>
      <point x="220" y="432"/>
      <point x="261" y="432" type="curve" smooth="yes"/>
      <point x="295" y="432"/>
      <point x="335" y="426"/>
      <point x="335" y="390" type="curve" smooth="yes"/>
      <point x="335" y="357"/>
      <point x="295" y="343"/>
      <point x="252" y="343" type="curve" smooth="yes"/>
      <point x="230" y="343" type="line"/>
      <point x="230" y="231" type="line"/>
      <point x="259" y="231" type="line" smooth="yes"/>
      <point x="320" y="231"/>
      <point x="351" y="217"/>
      <point x="351" y="181" type="curve" smooth="yes"/>
      <point x="351" y="145"/>
      <point x="329" y="125"/>
      <point x="271" y="125" type="curve" smooth="yes"/>
      <point x="207" y="125"/>
      <point x="163" y="158"/>
      <point x="130" y="218" type="curve"/>
      <point x="14" y="153" type="line"/>
      <point x="58" y="48"/>
      <point x="154" y="-10"/>
    </contour>
  </outline>
</glyph>
<glyph name="dha" format="2">
  <advance width="575"/>
  <unicode hex="1013"/>
  <note>
dha
</note>
  <outline>
    <contour>
      <point x="192" y="164" type="line"/>
      <point x="216" y="182"/>
      <point x="240" y="196"/>
      <point x="288" y="196" type="curve" smooth="yes"/>
      <point x="334" y="196"/>
      <point x="359" y="187"/>
      <point x="390" y="164" type="curve"/>
      <point x="413" y="264" type="line"/>
      <point x="377" y="283"/>
      <point x="342" y="298"/>
      <point x="291" y="298" type="curve" smooth="yes"/>
      <point x="245" y="298"/>
      <point x="207" y="285"/>
      <point x="169" y="264" type="curve"/>
    </contour>
    <contour>
      <point x="291" y="-10" type="curve" smooth="yes"/>
      <point x="447" y="-10"/>
      <point x="540" y="105"/>
      <point x="540" y="274" type="curve" smooth="yes"/>
      <point x="540" y="437"/>
      <point x="450" y="558"/>
      <point x="289" y="558" type="curve" smooth="yes"/>
      <point x="128" y="558"/>
      <point x="35" y="444"/>
      <point x="35" y="274" type="curve" smooth="yes"/>
      <point x="35" y="104"/>
      <point x="135" y="-10"/>
    </contour>
    <contour>
      <point x="287" y="111" type="curve" smooth="yes"/>
      <point x="213" y="111"/>
      <point x="185" y="179"/>
      <point x="185" y="274" type="curve" smooth="yes"/>
      <point x="185" y="367"/>
      <point x="219" y="430"/>
      <point x="287" y="430" type="curve" smooth="yes"/>
      <point x="356" y="430"/>
      <point x="391" y="371"/>
      <point x="391" y="274" type="curve" smooth="yes"/>
      <point x="391" y="177"/>
      <point x="364" y="111"/>
    </contour>
  </outline>
</glyph>
<glyph name="na" format="2">
  <advance width="493"/>
  <unicode hex="1014"/>
  <note>
na
</note>
  <outline>
    <contour>
      <point x="158" y="-466" type="line"/>
      <point x="282" y="-466" type="line"/>
      <point x="282" y="-37" type="line" smooth="yes"/>
      <point x="282" y="104"/>
      <point x="238" y="242"/>
      <point x="120" y="242" type="curve" smooth="yes"/>
      <point x="64" y="242"/>
      <point x="15" y="197"/>
      <point x="15" y="133" type="curve" smooth="yes"/>
      <point x="15" y="54"/>
      <point x="88" y="-8"/>
      <point x="226" y="-8" type="curve" smooth="yes"/>
      <point x="242" y="-8" type="line" smooth="yes"/>
      <point x="386" y="-8"/>
      <point x="458" y="66"/>
      <point x="458" y="166" type="curve" smooth="yes"/>
      <point x="458" y="258"/>
      <point x="409" y="301"/>
      <point x="328" y="349" type="curve" smooth="yes"/>
      <point x="292" y="370"/>
      <point x="267" y="382"/>
      <point x="267" y="405" type="curve" smooth="yes"/>
      <point x="267" y="419"/>
      <point x="277" y="431"/>
      <point x="294" y="431" type="curve" smooth="yes"/>
      <point x="314" y="431"/>
      <point x="337" y="417"/>
      <point x="355" y="396" type="curve"/>
      <point x="430" y="483" type="line"/>
      <point x="400" y="522"/>
      <point x="347" y="559"/>
      <point x="272" y="559" type="curve" smooth="yes"/>
      <point x="172" y="559"/>
      <point x="122" y="491"/>
      <point x="122" y="414" type="curve" smooth="yes"/>
      <point x="122" y="343"/>
      <point x="149" y="303"/>
      <point x="224" y="260" type="curve" smooth="yes"/>
      <point x="271" y="233"/>
      <point x="312" y="207"/>
      <point x="312" y="162" type="curve" smooth="yes"/>
      <point x="312" y="101"/>
      <point x="237" y="92"/>
      <point x="190" y="92" type="curve" smooth="yes"/>
      <point x="183" y="92" type="line" smooth="yes"/>
      <point x="121" y="92"/>
      <point x="95" y="115"/>
      <point x="95" y="141" type="curve" smooth="yes"/>
      <point x="95" y="157"/>
      <point x="111" y="169"/>
      <point x="125" y="169" type="curve" smooth="yes"/>
      <point x="155" y="169"/>
      <point x="158" y="147"/>
      <point x="158" y="91" type="curve" smooth="yes"/>
    </contour>
  </outline>
</glyph>
<glyph name="pa" format="2">
  <advance width="566"/>
  <unicode hex="1015"/>
  <note>
pa
</note>
  <outline>
    <contour>
      <point x="283" y="-10" type="curve" smooth="yes"/>
      <point x="442" y="-10"/>
      <point x="531" y="93"/>
      <point x="531" y="269" type="curve" smooth="yes"/>
      <point x="531" y="414"/>
      <point x="479" y="509"/>
      <point x="405" y="558" type="curve"/>
      <point x="330" y="429" type="line"/>
      <point x="367" y="378"/>
      <point x="370" y="328"/>
      <point x="370" y="272" type="curve" smooth="yes"/>
      <point x="370" y="183"/>
      <point x="341" y="125"/>
      <point x="285" y="125" type="curve" smooth="yes"/>
      <point x="221" y="125"/>
      <point x="197" y="186"/>
      <point x="197" y="272" type="curve" smooth="yes"/>
      <point x="197" y="331"/>
      <point x="199" y="378"/>
      <point x="236" y="429" type="curve"/>
      <point x="161" y="558" type="line"/>
      <point x="86" y="509"/>
      <point x="35" y="413"/>
      <point x="35" y="272" type="curve" smooth="yes"/>
      <point x="35" y="102"/>
      <point x="127" y="-10"/>
    </contour>
  </outline>
</glyph>
<glyph name="pha" format="2">
  <advance width="573"/>
  <unicode hex="1016"/>
  <note>
pha
</note>
  <outline>
    <contour>
      <point x="295" y="-10" type="curve" smooth="yes"/>
      <point x="463" y="-10"/>
      <point x="538" y="114"/>
      <point x="538" y="272" type="curve" smooth="yes"/>
      <point x="538" y="403"/>
      <point x="468" y="511"/>
      <point x="359" y="558" type="curve"/>
      <point x="317" y="479"/>
      <point x="279" y="399"/>
      <point x="279" y="277" type="curve" smooth="yes"/>
      <point x="279" y="214"/>
      <point x="287" y="151"/>
      <point x="301" y="104" type="curve"/>
      <point x="379" y="148" type="line"/>
      <point x="361" y="194"/>
      <point x="357" y="240"/>
      <point x="357" y="284" type="curve" smooth="yes"/>
      <point x="357" y="340"/>
      <point x="366" y="373"/>
      <point x="380" y="405" type="curve"/>
      <point x="407" y="372"/>
      <point x="414" y="329"/>
      <point x="414" y="277" type="curve" smooth="yes"/>
      <point x="414" y="189"/>
      <point x="384" y="125"/>
      <point x="304" y="125" type="curve" smooth="yes"/>
      <point x="241" y="125"/>
      <point x="197" y="178"/>
      <point x="197" y="272" type="curve" smooth="yes"/>
      <point x="197" y="327"/>
      <point x="204" y="374"/>
      <point x="239" y="429" type="curve"/>
      <point x="164" y="558" type="line"/>
      <point x="92" y="510"/>
      <point x="35" y="414"/>
      <point x="35" y="272" type="curve" smooth="yes"/>
      <point x="35" y="104"/>
      <point x="125" y="-10"/>
    </contour>
  </outline>
</glyph>
<glyph name="ba" format="2">
  <advance width="570"/>
  <unicode hex="1017"/>
  <note>
ba
</note>
  <outline>
    <contour>
      <point x="286" y="-10" type="curve" smooth="yes"/>
      <point x="454" y="-10"/>
      <point x="535" y="104"/>
      <point x="535" y="272" type="curve" smooth="yes"/>
      <point x="535" y="414"/>
      <point x="501" y="494"/>
      <point x="464" y="558" type="curve"/>
      <point x="335" y="429" type="line"/>
      <point x="372" y="378"/>
      <point x="373" y="328"/>
      <point x="373" y="272" type="curve" smooth="yes"/>
      <point x="373" y="183"/>
      <point x="346" y="125"/>
      <point x="286" y="125" type="curve" smooth="yes"/>
      <point x="222" y="125"/>
      <point x="197" y="186"/>
      <point x="197" y="272" type="curve" smooth="yes"/>
      <point x="197" y="331"/>
      <point x="200" y="378"/>
      <point x="238" y="429" type="curve"/>
      <point x="106" y="558" type="line"/>
      <point x="71" y="498"/>
      <point x="35" y="413"/>
      <point x="35" y="272" type="curve" smooth="yes"/>
      <point x="35" y="103"/>
      <point x="118" y="-10"/>
    </contour>
    <contour>
      <point x="290" y="278" type="curve" smooth="yes"/>
      <point x="385" y="278"/>
      <point x="468" y="375"/>
      <point x="468" y="486" type="curve" smooth="yes"/>
      <point x="468" y="511"/>
      <point x="468" y="536"/>
      <point x="464" y="558" type="curve"/>
      <point x="340" y="495" type="line"/>
      <point x="342" y="488"/>
      <point x="342" y="483"/>
      <point x="342" y="475" type="curve" smooth="yes"/>
      <point x="342" y="436"/>
      <point x="320" y="407"/>
      <point x="285" y="407" type="curve" smooth="yes"/>
      <point x="250" y="407"/>
      <point x="228" y="436"/>
      <point x="228" y="475" type="curve" smooth="yes"/>
      <point x="228" y="482"/>
      <point x="228" y="488"/>
      <point x="230" y="495" type="curve"/>
      <point x="106" y="558" type="line"/>
      <point x="103" y="537"/>
      <point x="102" y="514"/>
      <point x="102" y="491" type="curve" smooth="yes"/>
      <point x="102" y="373"/>
      <point x="185" y="278"/>
    </contour>
  </outline>
</glyph>
<glyph name="bha" format="2">
  <advance width="869"/>
  <unicode hex="1018"/>
  <note>
bha
</note>
  <outline>
    <contour>
      <point x="250" y="-9" type="curve" smooth="yes"/>
      <point x="400" y="-9"/>
      <point x="492" y="105"/>
      <point x="492" y="274" type="curve" smooth="yes"/>
      <point x="492" y="442"/>
      <point x="389" y="558"/>
      <point x="250" y="558" type="curve" smooth="yes"/>
      <point x="148" y="558"/>
      <point x="85" y="497"/>
      <point x="55" y="431" type="curve"/>
      <point x="160" y="362" type="line"/>
      <point x="182" y="400"/>
      <point x="210" y="423"/>
      <point x="249" y="423" type="curve" smooth="yes"/>
      <point x="306" y="423"/>
      <point x="345" y="362"/>
      <point x="345" y="274" type="curve" smooth="yes"/>
      <point x="345" y="191"/>
      <point x="310" y="126"/>
      <point x="247" y="126" type="curve" smooth="yes"/>
      <point x="202" y="126"/>
      <point x="174" y="158"/>
      <point x="155" y="193" type="curve"/>
      <point x="35" y="128" type="line"/>
      <point x="75" y="49"/>
      <point x="154" y="-9"/>
    </contour>
    <contour>
      <point x="624" y="-10" type="curve" smooth="yes"/>
      <point x="772" y="-10"/>
      <point x="834" y="124"/>
      <point x="834" y="274" type="curve" smooth="yes"/>
      <point x="834" y="439"/>
      <point x="754" y="558"/>
      <point x="598" y="558" type="curve" smooth="yes"/>
      <point x="523" y="558"/>
      <point x="453" y="518"/>
      <point x="416" y="466" type="curve"/>
      <point x="478" y="323" type="line"/>
      <point x="502" y="382"/>
      <point x="542" y="423"/>
      <point x="583" y="423" type="curve" smooth="yes"/>
      <point x="641" y="423"/>
      <point x="672" y="367"/>
      <point x="672" y="274" type="curve" smooth="yes"/>
      <point x="672" y="194"/>
      <point x="658" y="133"/>
      <point x="608" y="133" type="curve" smooth="yes"/>
      <point x="593" y="133"/>
      <point x="583" y="138"/>
      <point x="570" y="146" type="curve"/>
      <point x="516" y="23" type="line"/>
      <point x="542" y="0"/>
      <point x="597" y="-10"/>
    </contour>
  </outline>
</glyph>
<glyph name="ma" format="2">
  <advance width="573"/>
  <unicode hex="1019"/>
  <note>
ma
</note>
  <outline>
    <contour>
      <point x="286" y="-10" type="curve" smooth="yes"/>
      <point x="446" y="-10"/>
      <point x="538" y="104"/>
      <point x="538" y="272" type="curve" smooth="yes"/>
      <point x="538" y="414"/>
      <point x="485" y="509"/>
      <point x="415" y="558" type="curve"/>
      <point x="339" y="429" type="line"/>
      <point x="384" y="377"/>
      <point x="388" y="326"/>
      <point x="388" y="270" type="curve" smooth="yes"/>
      <point x="388" y="159"/>
      <point x="352" y="110"/>
      <point x="288" y="110" type="curve" smooth="yes"/>
      <point x="215" y="110"/>
      <point x="186" y="167"/>
      <point x="186" y="271" type="curve" smooth="yes"/>
      <point x="186" y="330"/>
      <point x="191" y="378"/>
      <point x="238" y="429" type="curve"/>
      <point x="162" y="558" type="line"/>
      <point x="89" y="509"/>
      <point x="35" y="413"/>
      <point x="35" y="272" type="curve" smooth="yes"/>
      <point x="35" y="103"/>
      <point x="127" y="-10"/>
    </contour>
    <contour>
      <point x="192" y="164" type="line"/>
      <point x="216" y="182"/>
      <point x="240" y="196"/>
      <point x="288" y="196" type="curve" smooth="yes"/>
      <point x="334" y="196"/>
      <point x="359" y="187"/>
      <point x="390" y="164" type="curve"/>
      <point x="413" y="264" type="line"/>
      <point x="377" y="283"/>
      <point x="342" y="298"/>
      <point x="291" y="298" type="curve" smooth="yes"/>
      <point x="245" y="298"/>
      <point x="207" y="285"/>
      <point x="169" y="264" type="curve"/>
    </contour>
  </outline>
</glyph>
<glyph name="ya" format="2">
  <advance width="868"/>
  <unicode hex="101A"/>
  <note>
ya
</note>
  <outline>
    <contour>
      <point x="282" y="-10" type="curve" smooth="yes"/>
      <point x="432" y="-10"/>
      <point x="502" y="106"/>
      <point x="502" y="272" type="curve" smooth="yes"/>
      <point x="502" y="414"/>
      <point x="464" y="509"/>
      <point x="378" y="558" type="curve"/>
      <point x="308" y="429" type="line"/>
      <point x="352" y="378"/>
      <point x="361" y="328"/>
      <point x="361" y="272" type="curve" smooth="yes"/>
      <point x="361" y="183"/>
      <point x="338" y="125"/>
      <point x="282" y="125" type="curve" smooth="yes"/>
      <point x="222" y="125"/>
      <point x="197" y="186"/>
      <point x="197" y="272" type="curve" smooth="yes"/>
      <point x="197" y="331"/>
      <point x="200" y="378"/>
      <point x="238" y="429" type="curve"/>
      <point x="162" y="558" type="line"/>
      <point x="89" y="509"/>
      <point x="35" y="413"/>
      <point x="35" y="272" type="curve" smooth="yes"/>
      <point x="35" y="103"/>
      <point x="118" y="-10"/>
    </contour>
    <contour>
      <point x="597" y="-10" type="curve" smooth="yes"/>
      <point x="753" y="-10"/>
      <point x="833" y="109"/>
      <point x="833" y="274" type="curve" smooth="yes"/>
      <point x="833" y="424"/>
      <point x="771" y="558"/>
      <point x="623" y="558" type="curve" smooth="yes"/>
      <point x="596" y="558"/>
      <point x="541" y="548"/>
      <point x="515" y="525" type="curve"/>
      <point x="569" y="402" type="line"/>
      <point x="582" y="410"/>
      <point x="592" y="415"/>
      <point x="607" y="415" type="curve" smooth="yes"/>
      <point x="657" y="415"/>
      <point x="671" y="354"/>
      <point x="671" y="274" type="curve" smooth="yes"/>
      <point x="671" y="181"/>
      <point x="640" y="125"/>
      <point x="582" y="125" type="curve" smooth="yes"/>
      <point x="541" y="125"/>
      <point x="501" y="166"/>
      <point x="477" y="225" type="curve"/>
      <point x="415" y="82" type="line"/>
      <point x="452" y="30"/>
      <point x="522" y="-10"/>
    </contour>
  </outline>
</glyph>
<glyph name="ra" format="2">
  <advance width="592"/>
  <unicode hex="101B"/>
  <note>
ra
</note>
  <outline>
    <contour>
      <point x="383" y="-466" type="line"/>
      <point x="619" y="-466" type="line"/>
      <point x="619" y="-331" type="line"/>
      <point x="547" y="-331" type="line"/>
      <point x="547" y="268" type="line" smooth="yes"/>
      <point x="547" y="423"/>
      <point x="470" y="558"/>
      <point x="297" y="558" type="curve" smooth="yes"/>
      <point x="130" y="558"/>
      <point x="35" y="432"/>
      <point x="35" y="274" type="curve" smooth="yes"/>
      <point x="35" y="111"/>
      <point x="111" y="-10"/>
      <point x="281" y="-10" type="curve" smooth="yes"/>
      <point x="317" y="-10"/>
      <point x="338" y="-2"/>
      <point x="360" y="6" type="curve"/>
      <point x="356" y="197"/>
      <point x="317" y="307"/>
      <point x="153" y="349" type="curve"/>
      <point x="144" y="256" type="line"/>
      <point x="210" y="246"/>
      <point x="253" y="179"/>
      <point x="257" y="74" type="curve"/>
      <point x="292" y="108" type="line"/>
      <point x="283" y="108"/>
      <point x="272" y="108"/>
      <point x="264" y="108" type="curve" smooth="yes"/>
      <point x="201" y="108"/>
      <point x="157" y="174"/>
      <point x="157" y="266" type="curve" smooth="yes"/>
      <point x="157" y="347"/>
      <point x="192" y="423"/>
      <point x="271" y="423" type="curve" smooth="yes"/>
      <point x="353" y="423"/>
      <point x="383" y="347"/>
      <point x="383" y="265" type="curve" smooth="yes"/>
    </contour>
  </outline>
</glyph>
<glyph name="la" format="2">
  <advance width="869"/>
  <unicode hex="101C"/>
  <note>
la
</note>
  <outline>
    <contour>
      <point x="257" y="-10" type="curve" smooth="yes"/>
      <point x="289" y="-10"/>
      <point x="349" y="-1"/>
      <point x="378" y="23" type="curve"/>
      <point x="325" y="141" type="line"/>
      <point x="305" y="130"/>
      <point x="295" y="126"/>
      <point x="271" y="126" type="curve" smooth="yes"/>
      <point x="226" y="126"/>
      <point x="197" y="183"/>
      <point x="197" y="274" type="curve" smooth="yes"/>
      <point x="197" y="359"/>
      <point x="212" y="421"/>
      <point x="261" y="421" type="curve" smooth="yes"/>
      <point x="304" y="421"/>
      <point x="326" y="379"/>
      <point x="371" y="224" type="curve" smooth="yes"/>
      <point x="415" y="71"/>
      <point x="492" y="-9"/>
      <point x="613" y="-9" type="curve" smooth="yes"/>
      <point x="754" y="-9"/>
      <point x="834" y="116"/>
      <point x="834" y="274" type="curve" smooth="yes"/>
      <point x="834" y="456"/>
      <point x="760" y="558"/>
      <point x="611" y="558" type="curve" smooth="yes"/>
      <point x="581" y="558"/>
      <point x="521" y="548"/>
      <point x="490" y="525" type="curve"/>
      <point x="545" y="406" type="line"/>
      <point x="565" y="417"/>
      <point x="578" y="422"/>
      <point x="598" y="422" type="curve" smooth="yes"/>
      <point x="651" y="422"/>
      <point x="673" y="356"/>
      <point x="673" y="274" type="curve" smooth="yes"/>
      <point x="673" y="184"/>
      <point x="663" y="127"/>
      <point x="617" y="127" type="curve" smooth="yes"/>
      <point x="573" y="127"/>
      <point x="545" y="167"/>
      <point x="497" y="326" type="curve" smooth="yes"/>
      <point x="445" y="499"/>
      <point x="374" y="558"/>
      <point x="261" y="558" type="curve" smooth="yes"/>
      <point x="99" y="558"/>
      <point x="35" y="431"/>
      <point x="35" y="274" type="curve" smooth="yes"/>
      <point x="35" y="93"/>
      <point x="110" y="-10"/>
    </contour>
  </outline>
</glyph>
<glyph name="wa" format="2">
  <advance width="575"/>
  <unicode hex="101D"/>
  <note>
wa
</note>
  <outline>
    <contour>
      <point x="291" y="-10" type="curve" smooth="yes"/>
      <point x="447" y="-10"/>
      <point x="540" y="105"/>
      <point x="540" y="274" type="curve" smooth="yes"/>
      <point x="540" y="437"/>
      <point x="450" y="558"/>
      <point x="289" y="558" type="curve" smooth="yes"/>
      <point x="128" y="558"/>
      <point x="35" y="444"/>
      <point x="35" y="274" type="curve" smooth="yes"/>
      <point x="35" y="104"/>
      <point x="135" y="-10"/>
    </contour>
    <contour>
      <point x="288" y="126" type="curve" smooth="yes"/>
      <point x="223" y="126"/>
      <point x="199" y="188"/>
      <point x="199" y="274" type="curve" smooth="yes"/>
      <point x="199" y="363"/>
      <point x="228" y="423"/>
      <point x="287" y="423" type="curve" smooth="yes"/>
      <point x="346" y="423"/>
      <point x="376" y="367"/>
      <point x="376" y="274" type="curve" smooth="yes"/>
      <point x="376" y="186"/>
      <point x="353" y="126"/>
    </contour>
  </outline>
</glyph>
<glyph name="sa" format="2">
  <advance width="869"/>
  <unicode hex="101E"/>
  <note>
sa
</note>
  <outline>
    <contour>
      <point x="250" y="-9" type="curve" smooth="yes"/>
      <point x="400" y="-9"/>
      <point x="492" y="105"/>
      <point x="492" y="274" type="curve" smooth="yes"/>
      <point x="492" y="442"/>
      <point x="389" y="558"/>
      <point x="250" y="558" type="curve" smooth="yes"/>
      <point x="148" y="558"/>
      <point x="85" y="497"/>
      <point x="55" y="431" type="curve"/>
      <point x="160" y="362" type="line"/>
      <point x="182" y="400"/>
      <point x="210" y="423"/>
      <point x="249" y="423" type="curve" smooth="yes"/>
      <point x="306" y="423"/>
      <point x="345" y="362"/>
      <point x="345" y="274" type="curve" smooth="yes"/>
      <point x="345" y="191"/>
      <point x="310" y="126"/>
      <point x="247" y="126" type="curve" smooth="yes"/>
      <point x="202" y="126"/>
      <point x="174" y="158"/>
      <point x="155" y="193" type="curve"/>
      <point x="35" y="128" type="line"/>
      <point x="75" y="49"/>
      <point x="154" y="-9"/>
    </contour>
    <contour>
      <point x="598" y="-10" type="curve" smooth="yes"/>
      <point x="754" y="-10"/>
      <point x="834" y="109"/>
      <point x="834" y="274" type="curve" smooth="yes"/>
      <point x="834" y="424"/>
      <point x="772" y="558"/>
      <point x="624" y="558" type="curve" smooth="yes"/>
      <point x="597" y="558"/>
      <point x="542" y="548"/>
      <point x="516" y="525" type="curve"/>
      <point x="570" y="402" type="line"/>
      <point x="583" y="410"/>
      <point x="593" y="415"/>
      <point x="608" y="415" type="curve" smooth="yes"/>
      <point x="658" y="415"/>
      <point x="672" y="354"/>
      <point x="672" y="274" type="curve" smooth="yes"/>
      <point x="672" y="181"/>
      <point x="641" y="125"/>
      <point x="583" y="125" type="curve" smooth="yes"/>
      <point x="542" y="125"/>
      <point x="502" y="166"/>
      <point x="478" y="225" type="curve"/>
      <point x="416" y="82" type="line"/>
      <point x="453" y="30"/>
      <point x="523" y="-10"/>
    </contour>
  </outline>
</glyph>
<glyph name="ha" format="2">
  <advance width="868"/>
  <unicode hex="101F"/>
  <note>
ha
</note>
  <outline>
    <contour>
      <point x="282" y="-10" type="curve" smooth="yes"/>
      <point x="432" y="-10"/>
      <point x="502" y="106"/>
      <point x="502" y="272" type="curve" smooth="yes"/>
      <point x="502" y="414"/>
      <point x="464" y="509"/>
      <point x="378" y="558" type="curve"/>
      <point x="308" y="429" type="line"/>
      <point x="352" y="378"/>
      <point x="361" y="328"/>
      <point x="361" y="272" type="curve" smooth="yes"/>
      <point x="361" y="183"/>
      <point x="338" y="125"/>
      <point x="282" y="125" type="curve" smooth="yes"/>
      <point x="222" y="125"/>
      <point x="197" y="186"/>
      <point x="197" y="272" type="curve" smooth="yes"/>
      <point x="197" y="331"/>
      <point x="200" y="378"/>
      <point x="238" y="429" type="curve"/>
      <point x="162" y="558" type="line"/>
      <point x="89" y="509"/>
      <point x="35" y="413"/>
      <point x="35" y="272" type="curve" smooth="yes"/>
      <point x="35" y="103"/>
      <point x="118" y="-10"/>
    </contour>
    <contour>
      <point x="623" y="-10" type="curve" smooth="yes"/>
      <point x="771" y="-10"/>
      <point x="833" y="124"/>
      <point x="833" y="274" type="curve" smooth="yes"/>
      <point x="833" y="439"/>
      <point x="753" y="558"/>
      <point x="597" y="558" type="curve" smooth="yes"/>
      <point x="522" y="558"/>
      <point x="452" y="518"/>
      <point x="415" y="466" type="curve"/>
      <point x="477" y="323" type="line"/>
      <point x="501" y="382"/>
      <point x="541" y="423"/>
      <point x="582" y="423" type="curve" smooth="yes"/>
      <point x="640" y="423"/>
      <point x="671" y="367"/>
      <point x="671" y="274" type="curve" smooth="yes"/>
      <point x="671" y="194"/>
      <point x="657" y="133"/>
      <point x="607" y="133" type="curve" smooth="yes"/>
      <point x="592" y="133"/>
      <point x="582" y="138"/>
      <point x="569" y="146" type="curve"/>
      <point x="515" y="23" type="line"/>
      <point x="541" y="0"/>
      <point x="596" y="-10"/>
    </contour>
  </outline>
</glyph>
<glyph name="lla" format="2">
  <advance width="550"/>
  <unicode hex="1020"/>
  <note>
lla
</note>
  <outline>
    <contour>
      <point x="249" y="-466" type="curve" smooth="yes"/>
      <point x="301" y="-466" type="line" smooth="yes"/>
      <point x="446" y="-466"/>
      <point x="505" y="-393"/>
      <point x="505" y="-245" type="curve" smooth="yes"/>
      <point x="505" y="-231" type="line"/>
      <point x="344" y="-231" type="line"/>
      <point x="344" y="-260" type="line" smooth="yes"/>
      <point x="344" y="-309"/>
      <point x="339" y="-332"/>
      <point x="301" y="-332" type="curve" smooth="yes"/>
      <point x="258" y="-332" type="line" smooth="yes"/>
      <point x="221" y="-332"/>
      <point x="213" y="-309"/>
      <point x="213" y="-260" type="curve" smooth="yes"/>
      <point x="213" y="-83" type="line"/>
      <point x="240" y="-88"/>
      <point x="262" y="-90"/>
      <point x="297" y="-90" type="curve" smooth="yes"/>
      <point x="377" y="-90"/>
      <point x="445" y="-68"/>
      <point x="505" y="-35" type="curve"/>
      <point x="505" y="188" type="line"/>
      <point x="344" y="125" type="line"/>
      <point x="344" y="31" type="line"/>
      <point x="333" y="27"/>
      <point x="310" y="22"/>
      <point x="271" y="22" type="curve" smooth="yes"/>
      <point x="193" y="22"/>
      <point x="108" y="48"/>
      <point x="45" y="92" type="curve"/>
      <point x="45" y="-245" type="line" smooth="yes"/>
      <point x="45" y="-393"/>
      <point x="104" y="-466"/>
    </contour>
    <contour>
      <point x="291" y="71" type="curve" smooth="yes"/>
      <point x="387" y="71"/>
      <point x="466" y="121"/>
      <point x="505" y="188" type="curve"/>
      <point x="385" y="253" type="line"/>
      <point x="363" y="224"/>
      <point x="340" y="206"/>
      <point x="300" y="206" type="curve" smooth="yes"/>
      <point x="237" y="206"/>
      <point x="197" y="243"/>
      <point x="197" y="317" type="curve" smooth="yes"/>
      <point x="197" y="388"/>
      <point x="243" y="423"/>
      <point x="291" y="423" type="curve" smooth="yes"/>
      <point x="328" y="423"/>
      <point x="358" y="411"/>
      <point x="381" y="382" type="curve"/>
      <point x="486" y="451" type="line"/>
      <point x="453" y="510"/>
      <point x="386" y="558"/>
      <point x="285" y="558" type="curve" smooth="yes"/>
      <point x="137" y="558"/>
      <point x="35" y="457"/>
      <point x="35" y="317" type="curve" smooth="yes"/>
      <point x="35" y="161"/>
      <point x="131" y="71"/>
    </contour>
  </outline>
</glyph>
<glyph name="a_m" format="2">
  <advance width="862"/>
  <unicode hex="1021"/>
  <note>
a_m
</note>
  <outline>
    <contour>
      <point x="263" y="-10" type="curve" smooth="yes"/>
      <point x="420" y="-10"/>
      <point x="471" y="79"/>
      <point x="471" y="158" type="curve" smooth="yes"/>
      <point x="471" y="240"/>
      <point x="417" y="277"/>
      <point x="347" y="290" type="curve"/>
      <point x="347" y="295" type="line"/>
      <point x="411" y="314"/>
      <point x="446" y="349"/>
      <point x="446" y="415" type="curve" smooth="yes"/>
      <point x="446" y="504"/>
      <point x="376" y="558"/>
      <point x="244" y="558" type="curve" smooth="yes"/>
      <point x="110" y="558"/>
      <point x="36" y="495"/>
      <point x="36" y="399" type="curve" smooth="yes"/>
      <point x="36" y="363"/>
      <point x="48" y="326"/>
      <point x="80" y="302" type="curve"/>
      <point x="183" y="363" type="line"/>
      <point x="171" y="377"/>
      <point x="168" y="382"/>
      <point x="168" y="392" type="curve" smooth="yes"/>
      <point x="168" y="421"/>
      <point x="205" y="432"/>
      <point x="241" y="432" type="curve" smooth="yes"/>
      <point x="270" y="432"/>
      <point x="305" y="426"/>
      <point x="305" y="390" type="curve" smooth="yes"/>
      <point x="305" y="357"/>
      <point x="270" y="343"/>
      <point x="232" y="343" type="curve" smooth="yes"/>
      <point x="220" y="343" type="line"/>
      <point x="220" y="231" type="line"/>
      <point x="239" y="231" type="line" smooth="yes"/>
      <point x="293" y="231"/>
      <point x="321" y="217"/>
      <point x="321" y="181" type="curve" smooth="yes"/>
      <point x="321" y="145"/>
      <point x="302" y="125"/>
      <point x="251" y="125" type="curve" smooth="yes"/>
      <point x="192" y="125"/>
      <point x="151" y="158"/>
      <point x="120" y="218" type="curve"/>
      <point x="4" y="153" type="line"/>
      <point x="46" y="48"/>
      <point x="139" y="-10"/>
    </contour>
    <contour>
      <point x="586" y="-10" type="curve" smooth="yes"/>
      <point x="748" y="-10"/>
      <point x="827" y="110"/>
      <point x="827" y="274" type="curve" smooth="yes"/>
      <point x="827" y="442"/>
      <point x="733" y="558"/>
      <point x="587" y="558" type="curve" smooth="yes"/>
      <point x="509" y="558"/>
      <point x="452" y="526"/>
      <point x="415" y="494" type="curve"/>
      <point x="432" y="370" type="line"/>
      <point x="467" y="400"/>
      <point x="519" y="426"/>
      <point x="576" y="426" type="curve" smooth="yes"/>
      <point x="667" y="426"/>
      <point x="705" y="357"/>
      <point x="705" y="269" type="curve" smooth="yes"/>
      <point x="705" y="179"/>
      <point x="659" y="120"/>
      <point x="592" y="120" type="curve" smooth="yes"/>
      <point x="577" y="120"/>
      <point x="562" y="120"/>
      <point x="548" y="120" type="curve"/>
      <point x="605" y="78" type="line"/>
      <point x="610" y="189"/>
      <point x="647" y="255"/>
      <point x="718" y="268" type="curve"/>
      <point x="709" y="361" type="line"/>
      <point x="552" y="322"/>
      <point x="506" y="205"/>
      <point x="502" y="6" type="curve"/>
      <point x="526" y="-5"/>
      <point x="564" y="-10"/>
    </contour>
  </outline>
</glyph>
<glyph name="a_shn" format="2">
  <advance width="869"/>
  <unicode hex="1022"/>
  <note>
a_shn
</note>
  <outline>
    <contour>
      <point x="164" y="-10" type="curve" smooth="yes"/>
      <point x="244" y="-10"/>
      <point x="287" y="44"/>
      <point x="287" y="121" type="curve" smooth="yes"/>
      <point x="287" y="179"/>
      <point x="258" y="218"/>
      <point x="233" y="255" type="curve" smooth="yes"/>
      <point x="212" y="285"/>
      <point x="201" y="310"/>
      <point x="201" y="343" type="curve" smooth="yes"/>
      <point x="201" y="390"/>
      <point x="227" y="424"/>
      <point x="279" y="424" type="curve" smooth="yes"/>
      <point x="333" y="424"/>
      <point x="364" y="366"/>
      <point x="364" y="277" type="curve" smooth="yes"/>
      <point x="364" y="221"/>
      <point x="363" y="171"/>
      <point x="311" y="120" type="curve"/>
      <point x="387" y="-9" type="line"/>
      <point x="458" y="42"/>
      <point x="506" y="134"/>
      <point x="506" y="274" type="curve" smooth="yes"/>
      <point x="506" y="444"/>
      <point x="428" y="559"/>
      <point x="265" y="559" type="curve" smooth="yes"/>
      <point x="115" y="559"/>
      <point x="39" y="472"/>
      <point x="39" y="354" type="curve" smooth="yes"/>
      <point x="39" y="293"/>
      <point x="59" y="248"/>
      <point x="96" y="210" type="curve" smooth="yes"/>
      <point x="130" y="175"/>
      <point x="154" y="163"/>
      <point x="154" y="144" type="curve" smooth="yes"/>
      <point x="154" y="131"/>
      <point x="145" y="125"/>
      <point x="133" y="125" type="curve" smooth="yes"/>
      <point x="116" y="125"/>
      <point x="99" y="140"/>
      <point x="89" y="156" type="curve"/>
      <point x="18" y="78" type="line"/>
      <point x="42" y="26"/>
      <point x="94" y="-10"/>
    </contour>
    <contour>
      <point x="624" y="-9" type="curve" smooth="yes"/>
      <point x="772" y="-9"/>
      <point x="834" y="125"/>
      <point x="834" y="275" type="curve" smooth="yes"/>
      <point x="834" y="440"/>
      <point x="754" y="559"/>
      <point x="598" y="559" type="curve" smooth="yes"/>
      <point x="523" y="559"/>
      <point x="469" y="519"/>
      <point x="432" y="467" type="curve"/>
      <point x="493" y="330" type="line"/>
      <point x="499" y="397"/>
      <point x="540" y="424"/>
      <point x="583" y="424" type="curve" smooth="yes"/>
      <point x="641" y="424"/>
      <point x="672" y="368"/>
      <point x="672" y="275" type="curve" smooth="yes"/>
      <point x="672" y="195"/>
      <point x="658" y="134"/>
      <point x="608" y="134" type="curve" smooth="yes"/>
      <point x="593" y="134"/>
      <point x="583" y="139"/>
      <point x="570" y="147" type="curve"/>
      <point x="516" y="24" type="line"/>
      <point x="542" y="1"/>
      <point x="597" y="-9"/>
    </contour>
  </outline>
</glyph>
<glyph name="i_m" format="2">
  <advance width="854"/>
  <unicode hex="1023"/>
  <note>
i_m
</note>
  <outline>
    <contour>
      <point x="161" y="-10" type="curve"/>
      <point x="238" y="119" type="line"/>
      <point x="199" y="171"/>
      <point x="199" y="217"/>
      <point x="199" y="276" type="curve" smooth="yes"/>
      <point x="199" y="363"/>
      <point x="224" y="423"/>
      <point x="270" y="423" type="curve" smooth="yes"/>
      <point x="321" y="423"/>
      <point x="345" y="369"/>
      <point x="345" y="271" type="curve" smooth="yes"/>
      <point x="345" y="121" type="line"/>
      <point x="509" y="121" type="line"/>
      <point x="509" y="271" type="line" smooth="yes"/>
      <point x="509" y="369"/>
      <point x="533" y="423"/>
      <point x="582" y="423" type="curve" smooth="yes"/>
      <point x="629" y="423"/>
      <point x="657" y="363"/>
      <point x="657" y="276" type="curve" smooth="yes"/>
      <point x="657" y="222"/>
      <point x="656" y="171"/>
      <point x="616" y="119" type="curve"/>
      <point x="693" y="-10" type="line"/>
      <point x="765" y="39"/>
      <point x="819" y="134"/>
      <point x="819" y="276" type="curve" smooth="yes"/>
      <point x="819" y="442"/>
      <point x="731" y="558"/>
      <point x="588" y="558" type="curve" smooth="yes"/>
      <point x="492" y="558"/>
      <point x="407" y="513"/>
      <point x="380" y="417" type="curve"/>
      <point x="478" y="405" type="line"/>
      <point x="456" y="505"/>
      <point x="371" y="558"/>
      <point x="272" y="558" type="curve" smooth="yes"/>
      <point x="122" y="558"/>
      <point x="35" y="445"/>
      <point x="35" y="276" type="curve" smooth="yes"/>
      <point x="35" y="135"/>
      <point x="87" y="39"/>
    </contour>
    <contour>
      <point x="618" y="-466" type="line"/>
      <point x="760" y="-466" type="line"/>
      <point x="760" y="-362" type="line"/>
      <point x="691" y="-362" type="line"/>
      <point x="704" y="-329"/>
      <point x="711" y="-303"/>
      <point x="711" y="-255" type="curve" smooth="yes"/>
      <point x="711" y="-149"/>
      <point x="653" y="-47"/>
      <point x="541" y="-47" type="curve" smooth="yes"/>
      <point x="474" y="-47"/>
      <point x="411" y="-86"/>
      <point x="395" y="-174" type="curve"/>
      <point x="456" y="-169" type="line"/>
      <point x="434" y="-82"/>
      <point x="375" y="-47"/>
      <point x="310" y="-47" type="curve" smooth="yes"/>
      <point x="204" y="-47"/>
      <point x="139" y="-140"/>
      <point x="139" y="-267" type="curve" smooth="yes"/>
      <point x="139" y="-371"/>
      <point x="175" y="-442"/>
      <point x="226" y="-478" type="curve"/>
      <point x="283" y="-376" type="line"/>
      <point x="262" y="-342"/>
      <point x="260" y="-306"/>
      <point x="260" y="-264" type="curve" smooth="yes"/>
      <point x="260" y="-198"/>
      <point x="283" y="-154"/>
      <point x="314" y="-154" type="curve" smooth="yes"/>
      <point x="350" y="-154"/>
      <point x="365" y="-194"/>
      <point x="365" y="-264" type="curve" smooth="yes"/>
      <point x="365" y="-378" type="line"/>
      <point x="485" y="-378" type="line"/>
      <point x="485" y="-263" type="line" smooth="yes"/>
      <point x="485" y="-196"/>
      <point x="501" y="-154"/>
      <point x="537" y="-154" type="curve" smooth="yes"/>
      <point x="570" y="-154"/>
      <point x="591" y="-198"/>
      <point x="591" y="-255" type="curve" smooth="yes"/>
      <point x="591" y="-307"/>
      <point x="587" y="-338"/>
      <point x="568" y="-376" type="curve"/>
    </contour>
  </outline>
</glyph>
<glyph name="ii" format="2">
  <advance width="1124"/>
  <unicode hex="1024"/>
  <note>
ii
</note>
  <outline>
    <contour>
      <point x="229" y="-466" type="curve" smooth="yes"/>
      <point x="639" y="-466" type="line" smooth="yes"/>
      <point x="764" y="-466"/>
      <point x="821" y="-394"/>
      <point x="821" y="-249" type="curve" smooth="yes"/>
      <point x="821" y="289" type="line" smooth="yes"/>
      <point x="821" y="428"/>
      <point x="767" y="558"/>
      <point x="610" y="558" type="curve" smooth="yes"/>
      <point x="540" y="558"/>
      <point x="490" y="529"/>
      <point x="451" y="472" type="curve"/>
      <point x="515" y="362" type="line"/>
      <point x="529" y="408"/>
      <point x="559" y="422"/>
      <point x="590" y="422" type="curve" smooth="yes"/>
      <point x="645" y="422"/>
      <point x="657" y="357"/>
      <point x="657" y="260" type="curve" smooth="yes"/>
      <point x="657" y="-260" type="line" smooth="yes"/>
      <point x="657" y="-306"/>
      <point x="651" y="-331"/>
      <point x="608" y="-331" type="curve" smooth="yes"/>
      <point x="257" y="-331" type="line" smooth="yes"/>
      <point x="220" y="-331"/>
      <point x="200" y="-314"/>
      <point x="200" y="-287" type="curve" smooth="yes"/>
      <point x="200" y="-254"/>
      <point x="227" y="-235"/>
      <point x="334" y="-235" type="curve" smooth="yes"/>
      <point x="411" y="-235"/>
      <point x="475" y="-248"/>
      <point x="541" y="-279" type="curve"/>
      <point x="615" y="-171" type="line"/>
      <point x="524" y="-121"/>
      <point x="439" y="-99"/>
      <point x="326" y="-99" type="curve" smooth="yes"/>
      <point x="118" y="-99"/>
      <point x="39" y="-170"/>
      <point x="39" y="-292" type="curve" smooth="yes"/>
      <point x="39" y="-398"/>
      <point x="104" y="-466"/>
    </contour>
    <contour>
      <point x="161" y="-10" type="curve"/>
      <point x="236" y="119" type="line"/>
      <point x="199" y="170"/>
      <point x="197" y="217"/>
      <point x="197" y="276" type="curve" smooth="yes"/>
      <point x="197" y="362"/>
      <point x="221" y="423"/>
      <point x="285" y="423" type="curve" smooth="yes"/>
      <point x="341" y="423"/>
      <point x="370" y="365"/>
      <point x="370" y="276" type="curve" smooth="yes"/>
      <point x="370" y="220"/>
      <point x="367" y="170"/>
      <point x="330" y="119" type="curve"/>
      <point x="405" y="-10" type="line"/>
      <point x="479" y="39"/>
      <point x="531" y="134"/>
      <point x="531" y="276" type="curve" smooth="yes"/>
      <point x="531" y="446"/>
      <point x="438" y="558"/>
      <point x="283" y="558" type="curve" smooth="yes"/>
      <point x="127" y="558"/>
      <point x="35" y="446"/>
      <point x="35" y="276" type="curve" smooth="yes"/>
      <point x="35" y="135"/>
      <point x="86" y="39"/>
    </contour>
    <contour>
      <point x="915" y="-466" type="line"/>
      <point x="1079" y="-466" type="line"/>
      <point x="1079" y="266" type="line" smooth="yes"/>
      <point x="1079" y="475"/>
      <point x="1036" y="560"/>
      <point x="941" y="698" type="curve" smooth="yes"/>
      <point x="905" y="750"/>
      <point x="887" y="793"/>
      <point x="887" y="827" type="curve" smooth="yes"/>
      <point x="887" y="851"/>
      <point x="896" y="875"/>
      <point x="918" y="875" type="curve" smooth="yes"/>
      <point x="941" y="875"/>
      <point x="952" y="843"/>
      <point x="964" y="796" type="curve"/>
      <point x="1086" y="860" type="line"/>
      <point x="1062" y="957"/>
      <point x="1003" y="1004"/>
      <point x="903" y="1004" type="curve" smooth="yes"/>
      <point x="799" y="1004"/>
      <point x="730" y="923"/>
      <point x="730" y="820" type="curve" smooth="yes"/>
      <point x="730" y="736"/>
      <point x="765" y="687"/>
      <point x="826" y="588" type="curve" smooth="yes"/>
      <point x="894" y="477"/>
      <point x="915" y="394"/>
      <point x="915" y="266" type="curve" smooth="yes"/>
    </contour>
  </outline>
</glyph>
<glyph name="u_m" format="2">
  <advance width="550"/>
  <unicode hex="1025"/>
  <note>
u_m
</note>
  <outline>
    <contour>
      <point x="223" y="-466" type="curve" smooth="yes"/>
      <point x="325" y="-466" type="line" smooth="yes"/>
      <point x="434" y="-466"/>
      <point x="512" y="-408"/>
      <point x="512" y="-299" type="curve" smooth="yes"/>
      <point x="512" y="-189"/>
      <point x="432" y="-139"/>
      <point x="356" y="-139" type="curve" smooth="yes"/>
      <point x="294" y="-139"/>
      <point x="257" y="-156"/>
      <point x="227" y="-180" type="curve"/>
      <point x="280" y="-282" type="line"/>
      <point x="295" y="-270"/>
      <point x="304" y="-266"/>
      <point x="317" y="-266" type="curve" smooth="yes"/>
      <point x="336" y="-266"/>
      <point x="348" y="-281"/>
      <point x="348" y="-296" type="curve" smooth="yes"/>
      <point x="348" y="-318"/>
      <point x="333" y="-332"/>
      <point x="301" y="-332" type="curve" smooth="yes"/>
      <point x="253" y="-332" type="line" smooth="yes"/>
      <point x="219" y="-332"/>
      <point x="209" y="-306"/>
      <point x="209" y="-260" type="curve" smooth="yes"/>
      <point x="209" y="9" type="line"/>
      <point x="45" y="128" type="line"/>
      <point x="45" y="-250" type="line" smooth="yes"/>
      <point x="45" y="-394"/>
      <point x="102" y="-466"/>
    </contour>
    <contour>
      <point x="259" y="-9" type="curve" smooth="yes"/>
      <point x="419" y="-9"/>
      <point x="515" y="116"/>
      <point x="515" y="274" type="curve" smooth="yes"/>
      <point x="515" y="437"/>
      <point x="424" y="558"/>
      <point x="265" y="558" type="curve" smooth="yes"/>
      <point x="164" y="558"/>
      <point x="97" y="501"/>
      <point x="64" y="431" type="curve"/>
      <point x="169" y="362" type="line"/>
      <point x="192" y="405"/>
      <point x="222" y="423"/>
      <point x="259" y="423" type="curve" smooth="yes"/>
      <point x="315" y="423"/>
      <point x="353" y="362"/>
      <point x="353" y="274" type="curve" smooth="yes"/>
      <point x="353" y="182"/>
      <point x="314" y="126"/>
      <point x="250" y="126" type="curve" smooth="yes"/>
      <point x="210" y="126"/>
      <point x="187" y="151"/>
      <point x="165" y="193" type="curve"/>
      <point x="45" y="128" type="line"/>
      <point x="84" y="49"/>
      <point x="163" y="-9"/>
    </contour>
  </outline>
</glyph>
<glyph name="e_m" format="2">
  <advance width="554"/>
  <unicode hex="1027"/>
  <note>
e_m
</note>
  <outline>
    <contour>
      <point x="283" y="-10" type="curve" smooth="yes"/>
      <point x="414" y="-10"/>
      <point x="519" y="69"/>
      <point x="519" y="195" type="curve"/>
      <point x="454" y="231"/>
      <point x="404" y="253"/>
      <point x="297" y="253" type="curve" smooth="yes"/>
      <point x="248" y="253"/>
      <point x="216" y="243"/>
      <point x="190" y="230" type="curve"/>
      <point x="188" y="244"/>
      <point x="187" y="259"/>
      <point x="187" y="275" type="curve" smooth="yes"/>
      <point x="187" y="289"/>
      <point x="188" y="304"/>
      <point x="190" y="318" type="curve"/>
      <point x="216" y="305"/>
      <point x="248" y="295"/>
      <point x="297" y="295" type="curve" smooth="yes"/>
      <point x="404" y="295"/>
      <point x="454" y="317"/>
      <point x="519" y="353" type="curve"/>
      <point x="519" y="479"/>
      <point x="414" y="558"/>
      <point x="283" y="558" type="curve" smooth="yes"/>
      <point x="138" y="558"/>
      <point x="35" y="448"/>
      <point x="35" y="274" type="curve" smooth="yes"/>
      <point x="35" y="100"/>
      <point x="138" y="-10"/>
    </contour>
    <contour>
      <point x="284" y="94" type="curve" smooth="yes"/>
      <point x="242" y="94"/>
      <point x="220" y="117"/>
      <point x="209" y="145" type="curve"/>
      <point x="228" y="159"/>
      <point x="260" y="165"/>
      <point x="279" y="165" type="curve" smooth="yes"/>
      <point x="305" y="165"/>
      <point x="330" y="158"/>
      <point x="351" y="145" type="curve"/>
      <point x="345" y="118"/>
      <point x="320" y="94"/>
    </contour>
    <contour>
      <point x="279" y="383" type="curve" smooth="yes"/>
      <point x="260" y="383"/>
      <point x="228" y="389"/>
      <point x="209" y="403" type="curve"/>
      <point x="220" y="431"/>
      <point x="242" y="454"/>
      <point x="284" y="454" type="curve" smooth="yes"/>
      <point x="320" y="454"/>
      <point x="345" y="430"/>
      <point x="351" y="403" type="curve"/>
      <point x="330" y="390"/>
      <point x="305" y="383"/>
    </contour>
  </outline>
</glyph>
<glyph name="e_mon" format="2">
  <advance width="600"/>
  <unicode hex="1028"/>
  <note>
e_mon
</note>
  <outline>
    <contour>
      <point x="307" y="-478" type="curve" smooth="yes"/>
      <point x="481" y="-478"/>
      <point x="565" y="-374"/>
      <point x="565" y="-176" type="curve" smooth="yes"/>
      <point x="565" y="-172" type="line"/>
      <point x="401" y="-172" type="line"/>
      <point x="401" y="-175" type="line" smooth="yes"/>
      <point x="401" y="-293"/>
      <point x="367" y="-343"/>
      <point x="307" y="-343" type="curve" smooth="yes"/>
      <point x="238" y="-343"/>
      <point x="209" y="-289"/>
      <point x="209" y="-175" type="curve" smooth="yes"/>
      <point x="209" y="260" type="line" smooth="yes"/>
      <point x="209" y="376"/>
      <point x="243" y="424"/>
      <point x="319" y="424" type="curve" smooth="yes"/>
      <point x="386" y="424"/>
      <point x="424" y="364"/>
      <point x="424" y="257" type="curve" smooth="yes"/>
      <point x="424" y="190"/>
      <point x="406" y="97"/>
      <point x="368" y="97" type="curve" smooth="yes"/>
      <point x="352" y="97"/>
      <point x="346" y="109"/>
      <point x="346" y="124" type="curve" smooth="yes"/>
      <point x="346" y="137"/>
      <point x="352" y="154"/>
      <point x="364" y="172" type="curve" smooth="yes"/>
      <point x="374" y="188"/>
      <point x="400" y="223"/>
      <point x="400" y="264" type="curve" smooth="yes"/>
      <point x="400" y="322"/>
      <point x="365" y="356"/>
      <point x="321" y="356" type="curve" smooth="yes"/>
      <point x="274" y="356"/>
      <point x="243" y="328"/>
      <point x="223" y="304" type="curve"/>
      <point x="267" y="237" type="line"/>
      <point x="278" y="250"/>
      <point x="288" y="255"/>
      <point x="294" y="255" type="curve" smooth="yes"/>
      <point x="300" y="255"/>
      <point x="306" y="252"/>
      <point x="306" y="242" type="curve" smooth="yes"/>
      <point x="306" y="233"/>
      <point x="299" y="224"/>
      <point x="278" y="205" type="curve" smooth="yes"/>
      <point x="250" y="179"/>
      <point x="230" y="149"/>
      <point x="230" y="102" type="curve" smooth="yes"/>
      <point x="230" y="37"/>
      <point x="271" y="-10"/>
      <point x="362" y="-10" type="curve" smooth="yes"/>
      <point x="478" y="-10"/>
      <point x="565" y="92"/>
      <point x="565" y="273" type="curve" smooth="yes"/>
      <point x="565" y="456"/>
      <point x="477" y="559"/>
      <point x="315" y="559" type="curve" smooth="yes"/>
      <point x="137" y="559"/>
      <point x="45" y="456"/>
      <point x="45" y="260" type="curve" smooth="yes"/>
      <point x="45" y="-175" type="line" smooth="yes"/>
      <point x="45" y="-370"/>
      <point x="124" y="-478"/>
    </contour>
  </outline>
</glyph>
<glyph name="o_m" format="2">
  <advance width="1122"/>
  <unicode hex="1029"/>
  <note>
o_m
</note>
  <outline>
    <contour>
      <point x="249" y="-466" type="curve" smooth="yes"/>
      <point x="874" y="-466" type="line" smooth="yes"/>
      <point x="1019" y="-466"/>
      <point x="1078" y="-393"/>
      <point x="1078" y="-245" type="curve" smooth="yes"/>
      <point x="1078" y="181" type="line"/>
      <point x="964" y="181" type="line"/>
      <point x="964" y="-259" type="line" smooth="yes"/>
      <point x="964" y="-308"/>
      <point x="959" y="-331"/>
      <point x="921" y="-331" type="curve" smooth="yes"/>
      <point x="254" y="-331" type="line" smooth="yes"/>
      <point x="217" y="-331"/>
      <point x="209" y="-308"/>
      <point x="209" y="-259" type="curve" smooth="yes"/>
      <point x="209" y="796" type="line" smooth="yes"/>
      <point x="209" y="845"/>
      <point x="217" y="869"/>
      <point x="254" y="869" type="curve" smooth="yes"/>
      <point x="921" y="869" type="line" smooth="yes"/>
      <point x="959" y="869"/>
      <point x="964" y="845"/>
      <point x="964" y="796" type="curve" smooth="yes"/>
      <point x="964" y="753" type="line"/>
      <point x="1078" y="753" type="line"/>
      <point x="1078" y="783" type="line" smooth="yes"/>
      <point x="1078" y="931"/>
      <point x="1019" y="1004"/>
      <point x="874" y="1004" type="curve" smooth="yes"/>
      <point x="249" y="1004" type="line" smooth="yes"/>
      <point x="104" y="1004"/>
      <point x="45" y="931"/>
      <point x="45" y="783" type="curve" smooth="yes"/>
      <point x="45" y="-245" type="line" smooth="yes"/>
      <point x="45" y="-393"/>
      <point x="104" y="-466"/>
    </contour>
    <contour>
      <point x="503" y="-9" type="curve" smooth="yes"/>
      <point x="653" y="-9"/>
      <point x="745" y="105"/>
      <point x="745" y="274" type="curve" smooth="yes"/>
      <point x="745" y="442"/>
      <point x="642" y="558"/>
      <point x="503" y="558" type="curve" smooth="yes"/>
      <point x="401" y="558"/>
      <point x="338" y="497"/>
      <point x="308" y="431" type="curve"/>
      <point x="413" y="362" type="line"/>
      <point x="435" y="400"/>
      <point x="463" y="423"/>
      <point x="502" y="423" type="curve" smooth="yes"/>
      <point x="559" y="423"/>
      <point x="598" y="362"/>
      <point x="598" y="274" type="curve" smooth="yes"/>
      <point x="598" y="191"/>
      <point x="563" y="126"/>
      <point x="500" y="126" type="curve" smooth="yes"/>
      <point x="455" y="126"/>
      <point x="427" y="158"/>
      <point x="408" y="193" type="curve"/>
      <point x="288" y="128" type="line"/>
      <point x="328" y="49"/>
      <point x="407" y="-9"/>
    </contour>
    <contour>
      <point x="851" y="-10" type="curve" smooth="yes"/>
      <point x="1007" y="-10"/>
      <point x="1087" y="109"/>
      <point x="1087" y="274" type="curve" smooth="yes"/>
      <point x="1087" y="424"/>
      <point x="1025" y="558"/>
      <point x="877" y="558" type="curve" smooth="yes"/>
      <point x="850" y="558"/>
      <point x="795" y="548"/>
      <point x="769" y="525" type="curve"/>
      <point x="823" y="402" type="line"/>
      <point x="836" y="410"/>
      <point x="846" y="415"/>
      <point x="861" y="415" type="curve" smooth="yes"/>
      <point x="911" y="415"/>
      <point x="925" y="354"/>
      <point x="925" y="274" type="curve" smooth="yes"/>
      <point x="925" y="181"/>
      <point x="894" y="125"/>
      <point x="836" y="125" type="curve" smooth="yes"/>
      <point x="795" y="125"/>
      <point x="755" y="166"/>
      <point x="731" y="225" type="curve"/>
      <point x="669" y="82" type="line"/>
      <point x="706" y="30"/>
      <point x="776" y="-10"/>
    </contour>
  </outline>
</glyph>
<glyph name="_tall_aa" format="2">
  <advance width="254"/>
  <unicode hex="102B"/>
  <note>
_tall_aa
</note>
  <outline>
    <contour>
      <point x="45" y="0" type="line"/>
      <point x="209" y="0" type="line"/>
      <point x="209" y="748" type="line" smooth="yes"/>
      <point x="209" y="905"/>
      <point x="125" y="1004"/>
      <point x="-33" y="1004" type="curve" smooth="yes"/>
      <point x="-191" y="1004"/>
      <point x="-273" y="908"/>
      <point x="-273" y="745" type="curve" smooth="yes"/>
      <point x="-273" y="728" type="line"/>
      <point x="-109" y="728" type="line"/>
      <point x="-109" y="744" type="line" smooth="yes"/>
      <point x="-109" y="839"/>
      <point x="-77" y="869"/>
      <point x="-32" y="869" type="curve" smooth="yes"/>
      <point x="28" y="869"/>
      <point x="45" y="832"/>
      <point x="45" y="749" type="curve" smooth="yes"/>
    </contour>
  </outline>
</glyph>
<glyph name="_aa" format="2">
  <advance width="329"/>
  <unicode hex="102C"/>
  <note>
_aa
</note>
  <outline>
    <contour>
      <point x="95" y="-10" type="curve" smooth="yes"/>
      <point x="222" y="-10"/>
      <point x="293" y="96"/>
      <point x="293" y="274" type="curve" smooth="yes"/>
      <point x="293" y="447"/>
      <point x="206" y="558"/>
      <point x="61" y="558" type="curve" smooth="yes"/>
      <point x="-19" y="558"/>
      <point x="-79" y="527"/>
      <point x="-130" y="478" type="curve"/>
      <point x="-66" y="365" type="line"/>
      <point x="-35" y="398"/>
      <point x="-6" y="422"/>
      <point x="38" y="422" type="curve" smooth="yes"/>
      <point x="97" y="422"/>
      <point x="132" y="367"/>
      <point x="132" y="267" type="curve" smooth="yes"/>
      <point x="132" y="181"/>
      <point x="111" y="125"/>
      <point x="83" y="125" type="curve" smooth="yes"/>
      <point x="64" y="125"/>
      <point x="54" y="132"/>
      <point x="38" y="140" type="curve"/>
      <point x="-14" y="23" type="line"/>
      <point x="11" y="-1"/>
      <point x="68" y="-10"/>
    </contour>
  </outline>
</glyph>
<glyph name="_i" format="2">
  <unicode hex="102D"/>
  <note>
_i
</note>
  <outline>
    <contour>
      <point x="-250" y="625" type="curve" smooth="yes"/>
      <point x="-140" y="625"/>
      <point x="-79" y="703"/>
      <point x="-79" y="818" type="curve" smooth="yes"/>
      <point x="-79" y="928"/>
      <point x="-138" y="1008"/>
      <point x="-252" y="1008" type="curve" smooth="yes"/>
      <point x="-366" y="1008"/>
      <point x="-425" y="931"/>
      <point x="-425" y="818" type="curve" smooth="yes"/>
      <point x="-425" y="703"/>
      <point x="-359" y="625"/>
    </contour>
    <contour>
      <point x="-252" y="726" type="curve" smooth="yes"/>
      <point x="-282" y="726"/>
      <point x="-293" y="769"/>
      <point x="-293" y="818" type="curve" smooth="yes"/>
      <point x="-293" y="866"/>
      <point x="-282" y="908"/>
      <point x="-252" y="908" type="curve" smooth="yes"/>
      <point x="-223" y="908"/>
      <point x="-211" y="866"/>
      <point x="-211" y="819" type="curve" smooth="yes"/>
      <point x="-211" y="768"/>
      <point x="-219" y="726"/>
    </contour>
  </outline>
</glyph>
<glyph name="_ii" format="2">
  <unicode hex="102E"/>
  <note>
_ii
</note>
  <outline>
    <contour>
      <point x="-250" y="625" type="curve" smooth="yes"/>
      <point x="-150" y="625"/>
      <point x="-93" y="703"/>
      <point x="-93" y="817" type="curve" smooth="yes"/>
      <point x="-93" y="927"/>
      <point x="-146" y="1008"/>
      <point x="-252" y="1008" type="curve" smooth="yes"/>
      <point x="-358" y="1008"/>
      <point x="-411" y="931"/>
      <point x="-411" y="816" type="curve" smooth="yes"/>
      <point x="-411" y="702"/>
      <point x="-350" y="625"/>
    </contour>
    <contour>
      <point x="-251" y="713" type="curve" smooth="yes"/>
      <point x="-290" y="713"/>
      <point x="-307" y="746"/>
      <point x="-307" y="817" type="curve" smooth="yes"/>
      <point x="-307" y="876"/>
      <point x="-292" y="915"/>
      <point x="-253" y="915" type="curve" smooth="yes"/>
      <point x="-214" y="915"/>
      <point x="-198" y="875"/>
      <point x="-198" y="817" type="curve" smooth="yes"/>
      <point x="-198" y="750"/>
      <point x="-203" y="713"/>
    </contour>
    <contour>
      <point x="-307" y="732" type="line"/>
      <point x="-293" y="750"/>
      <point x="-270" y="761"/>
      <point x="-250" y="761" type="curve" smooth="yes"/>
      <point x="-231" y="761"/>
      <point x="-210" y="750"/>
      <point x="-194" y="733" type="curve"/>
      <point x="-185" y="798" type="line"/>
      <point x="-207" y="821"/>
      <point x="-231" y="830"/>
      <point x="-251" y="830" type="curve" smooth="yes"/>
      <point x="-270" y="830"/>
      <point x="-296" y="821"/>
      <point x="-318" y="798" type="curve"/>
    </contour>
  </outline>
</glyph>
<glyph name="_u" format="2">
  <unicode hex="102F"/>
  <note>
_u
</note>
  <outline>
    <contour>
      <point x="-274" y="-466" type="line"/>
      <point x="-100" y="-466" type="line"/>
      <point x="-100" y="-378" type="line"/>
      <point x="-195" y="-378" type="line"/>
      <point x="-195" y="-48" type="line"/>
      <point x="-274" y="-48" type="line"/>
    </contour>
  </outline>
</glyph>
<glyph name="_uu" format="2">
  <unicode hex="1030"/>
  <note>
_uu
</note>
  <outline>
    <contour>
      <point x="-233" y="-466" type="line"/>
      <point x="-64" y="-466" type="line"/>
      <point x="-64" y="-378" type="line"/>
      <point x="-154" y="-378" type="line"/>
      <point x="-154" y="-48" type="line"/>
      <point x="-233" y="-48" type="line"/>
    </contour>
    <contour>
      <point x="-362" y="-466" type="line"/>
      <point x="-284" y="-466" type="line"/>
      <point x="-284" y="-48" type="line"/>
      <point x="-362" y="-48" type="line"/>
    </contour>
  </outline>
</glyph>
<glyph name="_e" format="2">
  <advance width="573"/>
  <unicode hex="1031"/>
  <note>
_e
</note>
  <outline>
    <contour>
      <point x="294" y="-10" type="curve" smooth="yes"/>
      <point x="459" y="-10"/>
      <point x="531" y="79"/>
      <point x="538" y="223" type="curve"/>
      <point x="461" y="273"/>
      <point x="398" y="299"/>
      <point x="315" y="299" type="curve" smooth="yes"/>
      <point x="259" y="299"/>
      <point x="227" y="287"/>
      <point x="176" y="262" type="curve"/>
      <point x="191" y="158" type="line"/>
      <point x="226" y="181"/>
      <point x="258" y="196"/>
      <point x="295" y="196" type="curve" smooth="yes"/>
      <point x="330" y="196"/>
      <point x="353" y="186"/>
      <point x="374" y="165" type="curve"/>
      <point x="362" y="143"/>
      <point x="340" y="125"/>
      <point x="306" y="125" type="curve" smooth="yes"/>
      <point x="250" y="125"/>
      <point x="197" y="176"/>
      <point x="197" y="272" type="curve" smooth="yes"/>
      <point x="197" y="373"/>
      <point x="249" y="423"/>
      <point x="323" y="423" type="curve" smooth="yes"/>
      <point x="374" y="423"/>
      <point x="406" y="412"/>
      <point x="473" y="373" type="curve"/>
      <point x="520" y="500" type="line"/>
      <point x="446" y="542"/>
      <point x="394" y="558"/>
      <point x="306" y="558" type="curve" smooth="yes"/>
      <point x="151" y="558"/>
      <point x="35" y="451"/>
      <point x="35" y="272" type="curve" smooth="yes"/>
      <point x="35" y="75"/>
      <point x="167" y="-10"/>
    </contour>
  </outline>
</glyph>
<glyph name="_ai" format="2">
  <unicode hex="1032"/>
  <note>
_ai
</note>
  <outline>
    <contour>
      <point x="-194" y="679" type="line"/>
      <point x="-112" y="773" type="line"/>
      <point x="-289" y="945" type="line"/>
      <point x="-372" y="852" type="line"/>
    </contour>
  </outline>
</glyph>
<glyph name="_ii_mon" format="2">
  <unicode hex="1033"/>
  <note>
_ii_mon
</note>
  <outline>
    <contour>
      <point x="-258" y="624" type="curve" smooth="yes"/>
      <point x="-145" y="624"/>
      <point x="-80" y="706"/>
      <point x="-80" y="816" type="curve" smooth="yes"/>
      <point x="-80" y="926"/>
      <point x="-153" y="1010"/>
      <point x="-258" y="1010" type="curve" smooth="yes"/>
      <point x="-363" y="1010"/>
      <point x="-435" y="929"/>
      <point x="-435" y="816" type="curve" smooth="yes"/>
      <point x="-435" y="704"/>
      <point x="-371" y="624"/>
    </contour>
    <contour>
      <point x="-258" y="687" type="curve" smooth="yes"/>
      <point x="-324" y="687"/>
      <point x="-359" y="741"/>
      <point x="-359" y="816" type="curve" smooth="yes"/>
      <point x="-359" y="895"/>
      <point x="-317" y="947"/>
      <point x="-258" y="947" type="curve" smooth="yes"/>
      <point x="-199" y="947"/>
      <point x="-156" y="895"/>
      <point x="-156" y="816" type="curve" smooth="yes"/>
      <point x="-156" y="744"/>
      <point x="-192" y="687"/>
    </contour>
    <contour>
      <point x="-258" y="726" type="curve" smooth="yes"/>
      <point x="-210" y="726"/>
      <point x="-186" y="761"/>
      <point x="-186" y="816" type="curve" smooth="yes"/>
      <point x="-186" y="867"/>
      <point x="-211" y="908"/>
      <point x="-258" y="908" type="curve" smooth="yes"/>
      <point x="-305" y="908"/>
      <point x="-329" y="869"/>
      <point x="-329" y="816" type="curve" smooth="yes"/>
      <point x="-329" y="764"/>
      <point x="-306" y="726"/>
    </contour>
    <contour>
      <point x="-258" y="777" type="curve" smooth="yes"/>
      <point x="-277" y="777"/>
      <point x="-287" y="794"/>
      <point x="-287" y="816" type="curve" smooth="yes"/>
      <point x="-287" y="841"/>
      <point x="-277" y="857"/>
      <point x="-258" y="857" type="curve" smooth="yes"/>
      <point x="-242" y="857"/>
      <point x="-229" y="841"/>
      <point x="-229" y="816" type="curve" smooth="yes"/>
      <point x="-229" y="794"/>
      <point x="-241" y="777"/>
    </contour>
  </outline>
</glyph>
<glyph name="_o_mon" format="2">
  <unicode hex="1034"/>
  <note>
_o_mon
</note>
  <outline>
    <contour>
      <point x="-329" y="647" type="line"/>
      <point x="-139" y="825" type="line"/>
      <point x="-217" y="924" type="line"/>
      <point x="-407" y="744" type="line"/>
    </contour>
  </outline>
</glyph>
<glyph name="_e_above" format="2">
  <unicode hex="1035"/>
  <note>
_e_above
</note>
  <outline>
    <contour>
      <point x="-225" y="625" type="curve" smooth="yes"/>
      <point x="-153" y="625"/>
      <point x="-93" y="671"/>
      <point x="-73" y="753" type="curve"/>
      <point x="-107" y="796"/>
      <point x="-159" y="830"/>
      <point x="-219" y="830" type="curve" smooth="yes"/>
      <point x="-244" y="830"/>
      <point x="-276" y="817"/>
      <point x="-291" y="803" type="curve"/>
      <point x="-276" y="731" type="line"/>
      <point x="-262" y="751"/>
      <point x="-244" y="762"/>
      <point x="-223" y="762" type="curve" smooth="yes"/>
      <point x="-206" y="762"/>
      <point x="-191" y="754"/>
      <point x="-179" y="741" type="curve"/>
      <point x="-185" y="724"/>
      <point x="-201" y="713"/>
      <point x="-222" y="713" type="curve" smooth="yes"/>
      <point x="-266" y="713"/>
      <point x="-277" y="747"/>
      <point x="-277" y="815" type="curve" smooth="yes"/>
      <point x="-277" y="874"/>
      <point x="-259" y="915"/>
      <point x="-220" y="915" type="curve" smooth="yes"/>
      <point x="-195" y="915"/>
      <point x="-176" y="895"/>
      <point x="-167" y="860" type="curve"/>
      <point x="-83" y="902" type="line"/>
      <point x="-105" y="965"/>
      <point x="-145" y="1008"/>
      <point x="-225" y="1008" type="curve" smooth="yes"/>
      <point x="-325" y="1008"/>
      <point x="-381" y="921"/>
      <point x="-381" y="816" type="curve" smooth="yes"/>
      <point x="-381" y="705"/>
      <point x="-317" y="625"/>
    </contour>
  </outline>
</glyph>
<glyph name="anusvara" format="2">
  <unicode hex="1036"/>
  <note>
anusvara
</note>
  <outline>
    <contour>
      <point x="-257" y="613" type="curve" smooth="yes"/>
      <point x="-189" y="613"/>
      <point x="-142" y="657"/>
      <point x="-142" y="735" type="curve" smooth="yes"/>
      <point x="-142" y="803"/>
      <point x="-188" y="855"/>
      <point x="-257" y="855" type="curve" smooth="yes"/>
      <point x="-324" y="855"/>
      <point x="-369" y="809"/>
      <point x="-369" y="734" type="curve" smooth="yes"/>
      <point x="-369" y="657"/>
      <point x="-324" y="613"/>
    </contour>
    <contour>
      <point x="-255" y="692" type="curve" smooth="yes"/>
      <point x="-272" y="692"/>
      <point x="-280" y="709"/>
      <point x="-280" y="734" type="curve" smooth="yes"/>
      <point x="-280" y="761"/>
      <point x="-268" y="775"/>
      <point x="-255" y="775" type="curve" smooth="yes"/>
      <point x="-241" y="775"/>
      <point x="-230" y="761"/>
      <point x="-230" y="734" type="curve" smooth="yes"/>
      <point x="-230" y="709"/>
      <point x="-241" y="692"/>
    </contour>
  </outline>
</glyph>
<glyph name="dot_below" format="2">
  <unicode hex="1037"/>
  <note>
dot_below
</note>
  <outline>
    <contour>
      <point x="-272" y="-305" type="curve" smooth="yes"/>
      <point x="-204" y="-305"/>
      <point x="-157" y="-262"/>
      <point x="-157" y="-183" type="curve" smooth="yes"/>
      <point x="-157" y="-114"/>
      <point x="-203" y="-64"/>
      <point x="-272" y="-64" type="curve" smooth="yes"/>
      <point x="-340" y="-64"/>
      <point x="-384" y="-110"/>
      <point x="-384" y="-184" type="curve" smooth="yes"/>
      <point x="-384" y="-261"/>
      <point x="-339" y="-305"/>
    </contour>
    <contour>
      <point x="-270" y="-225" type="curve" smooth="yes"/>
      <point x="-287" y="-225"/>
      <point x="-295" y="-209"/>
      <point x="-295" y="-184" type="curve" smooth="yes"/>
      <point x="-295" y="-157"/>
      <point x="-284" y="-143"/>
      <point x="-270" y="-143" type="curve" smooth="yes"/>
      <point x="-256" y="-143"/>
      <point x="-245" y="-157"/>
      <point x="-245" y="-184" type="curve" smooth="yes"/>
      <point x="-245" y="-209"/>
      <point x="-256" y="-225"/>
    </contour>
  </outline>
</glyph>
<glyph name="visarga" format="2">
  <advance width="325"/>
  <unicode hex="1038"/>
  <note>
visarga
</note>
  <outline>
    <contour>
      <point x="161" y="296" type="curve" smooth="yes"/>
      <point x="229" y="296"/>
      <point x="276" y="339"/>
      <point x="276" y="418" type="curve" smooth="yes"/>
      <point x="276" y="487"/>
      <point x="231" y="538"/>
      <point x="161" y="538" type="curve" smooth="yes"/>
      <point x="92" y="538"/>
      <point x="49" y="492"/>
      <point x="49" y="417" type="curve" smooth="yes"/>
      <point x="49" y="340"/>
      <point x="94" y="296"/>
    </contour>
    <contour>
      <point x="161" y="-9" type="curve" smooth="yes"/>
      <point x="229" y="-9"/>
      <point x="276" y="35"/>
      <point x="276" y="114" type="curve" smooth="yes"/>
      <point x="276" y="182"/>
      <point x="231" y="233"/>
      <point x="161" y="233" type="curve" smooth="yes"/>
      <point x="92" y="233"/>
      <point x="49" y="187"/>
      <point x="49" y="113" type="curve" smooth="yes"/>
      <point x="49" y="35"/>
      <point x="94" y="-9"/>
    </contour>
    <contour>
      <point x="163" y="71" type="curve" smooth="yes"/>
      <point x="146" y="71"/>
      <point x="138" y="87"/>
      <point x="138" y="112" type="curve" smooth="yes"/>
      <point x="138" y="139"/>
      <point x="149" y="153"/>
      <point x="163" y="153" type="curve" smooth="yes"/>
      <point x="177" y="153"/>
      <point x="188" y="140"/>
      <point x="188" y="113" type="curve" smooth="yes"/>
      <point x="188" y="87"/>
      <point x="177" y="71"/>
    </contour>
    <contour>
      <point x="163" y="375" type="curve" smooth="yes"/>
      <point x="146" y="375"/>
      <point x="138" y="392"/>
      <point x="138" y="417" type="curve" smooth="yes"/>
      <point x="138" y="444"/>
      <point x="149" y="458"/>
      <point x="163" y="458" type="curve" smooth="yes"/>
      <point x="177" y="458"/>
      <point x="188" y="445"/>
      <point x="188" y="417" type="curve" smooth="yes"/>
      <point x="188" y="393"/>
      <point x="177" y="375"/>
    </contour>
  </outline>
</glyph>
<glyph name="virama" format="2">
  <unicode hex="1039"/>
  <note>
virama
</note>
  <outline>
    <contour>
      <point x="-309" y="-441" type="line"/>
      <point x="-185" y="-441" type="line"/>
      <point x="-185" y="-321" type="line"/>
      <point x="-96" y="-321" type="line"/>
      <point x="-96" y="-217" type="line"/>
      <point x="-185" y="-217" type="line"/>
      <point x="-185" y="-98" type="line"/>
      <point x="-309" y="-98" type="line"/>
      <point x="-309" y="-217" type="line"/>
      <point x="-398" y="-217" type="line"/>
      <point x="-398" y="-321" type="line"/>
      <point x="-309" y="-321" type="line"/>
    </contour>
  </outline>
</glyph>
<glyph name="asat" format="2">
  <unicode hex="103A"/>
  <note>
asat
</note>
  <outline>
    <contour>
      <point x="-308" y="625" type="curve"/>
      <point x="-226" y="701" type="line"/>
      <point x="-243" y="723"/>
      <point x="-289" y="764"/>
      <point x="-289" y="839" type="curve" smooth="yes"/>
      <point x="-289" y="880"/>
      <point x="-270" y="907"/>
      <point x="-245" y="907" type="curve" smooth="yes"/>
      <point x="-220" y="907"/>
      <point x="-206" y="884"/>
      <point x="-200" y="870" type="curve"/>
      <point x="-114" y="922" type="line"/>
      <point x="-140" y="975"/>
      <point x="-184" y="1008"/>
      <point x="-256" y="1008" type="curve" smooth="yes"/>
      <point x="-345" y="1008"/>
      <point x="-410" y="943"/>
      <point x="-410" y="839" type="curve" smooth="yes"/>
      <point x="-410" y="748"/>
      <point x="-375" y="690"/>
    </contour>
  </outline>
</glyph>
<glyph name="medial_ya" format="2">
  <advance width="254"/>
  <unicode hex="103B"/>
  <note>
medial_ya
</note>
  <outline>
    <contour>
      <point x="209" y="-478" type="line"/>
      <point x="209" y="548" type="line"/>
      <point x="45" y="548" type="line"/>
      <point x="45" y="-287" type="line"/>
      <point x="-85" y="-243" type="line"/>
      <point x="-85" y="188" type="line"/>
      <point x="-209" y="188" type="line"/>
      <point x="-209" y="-338" type="line"/>
    </contour>
  </outline>
</glyph>
<glyph name="medial_ra" format="2">
  <advance width="254"/>
  <unicode hex="103C"/>
  <note>
medial_ra
</note>
  <outline>
    <contour>
      <point x="249" y="-466" type="curve" smooth="yes"/>
      <point x="571" y="-466" type="line" smooth="yes"/>
      <point x="716" y="-466"/>
      <point x="775" y="-393"/>
      <point x="775" y="-245" type="curve" smooth="yes"/>
      <point x="775" y="181" type="line"/>
      <point x="661" y="181" type="line"/>
      <point x="661" y="-259" type="line" smooth="yes"/>
      <point x="661" y="-308"/>
      <point x="656" y="-331"/>
      <point x="618" y="-331" type="curve" smooth="yes"/>
      <point x="254" y="-331" type="line" smooth="yes"/>
      <point x="217" y="-331"/>
      <point x="209" y="-308"/>
      <point x="209" y="-259" type="curve" smooth="yes"/>
      <point x="209" y="796" type="line" smooth="yes"/>
      <point x="209" y="845"/>
      <point x="217" y="869"/>
      <point x="254" y="869" type="curve" smooth="yes"/>
      <point x="618" y="869" type="line" smooth="yes"/>
      <point x="656" y="869"/>
      <point x="661" y="845"/>
      <point x="661" y="796" type="curve" smooth="yes"/>
      <point x="661" y="753" type="line"/>
      <point x="775" y="753" type="line"/>
      <point x="775" y="783" type="line" smooth="yes"/>
      <point x="775" y="931"/>
      <point x="716" y="1004"/>
      <point x="571" y="1004" type="curve" smooth="yes"/>
      <point x="249" y="1004" type="line" smooth="yes"/>
      <point x="104" y="1004"/>
      <point x="45" y="931"/>
      <point x="45" y="783" type="curve" smooth="yes"/>
      <point x="45" y="-245" type="line" smooth="yes"/>
      <point x="45" y="-393"/>
      <point x="104" y="-466"/>
    </contour>
  </outline>
</glyph>
<glyph name="medial_wa" format="2">
  <unicode hex="103D"/>
  <note>
medial_wa
</note>
  <outline>
    <contour>
      <point x="-256" y="-444" type="curve" smooth="yes"/>
      <point x="-138" y="-444"/>
      <point x="-77" y="-360"/>
      <point x="-77" y="-245" type="curve" smooth="yes"/>
      <point x="-77" y="-130"/>
      <point x="-139" y="-47"/>
      <point x="-252" y="-47" type="curve" smooth="yes"/>
      <point x="-364" y="-47"/>
      <point x="-427" y="-129"/>
      <point x="-427" y="-246" type="curve" smooth="yes"/>
      <point x="-427" y="-364"/>
      <point x="-360" y="-444"/>
    </contour>
    <contour>
      <point x="-252" y="-344" type="curve" smooth="yes"/>
      <point x="-290" y="-344"/>
      <point x="-306" y="-302"/>
      <point x="-306" y="-245" type="curve" smooth="yes"/>
      <point x="-306" y="-182"/>
      <point x="-288" y="-146"/>
      <point x="-251" y="-146" type="curve" smooth="yes"/>
      <point x="-216" y="-146"/>
      <point x="-197" y="-185"/>
      <point x="-197" y="-244" type="curve" smooth="yes"/>
      <point x="-197" y="-302"/>
      <point x="-214" y="-344"/>
    </contour>
  </outline>
</glyph>
<glyph name="medial_ha" format="2">
  <unicode hex="103E"/>
  <note>
medial_ha
</note>
  <outline>
    <contour>
      <point x="-371" y="-466" type="line"/>
      <point x="-197" y="-466" type="line"/>
      <point x="-197" y="-48" type="line"/>
      <point x="-276" y="-48" type="line"/>
      <point x="-276" y="-378" type="line"/>
      <point x="-371" y="-378" type="line"/>
    </contour>
  </outline>
</glyph>
<glyph name="zero_m" format="2">
  <advance width="575"/>
  <unicode hex="1040"/>
  <note>
zero_m
</note>
  <outline>
    <contour>
      <point x="291" y="-10" type="curve" smooth="yes"/>
      <point x="447" y="-10"/>
      <point x="540" y="105"/>
      <point x="540" y="274" type="curve" smooth="yes"/>
      <point x="540" y="437"/>
      <point x="450" y="558"/>
      <point x="289" y="558" type="curve" smooth="yes"/>
      <point x="128" y="558"/>
      <point x="35" y="444"/>
      <point x="35" y="274" type="curve" smooth="yes"/>
      <point x="35" y="104"/>
      <point x="135" y="-10"/>
    </contour>
    <contour>
      <point x="288" y="126" type="curve" smooth="yes"/>
      <point x="223" y="126"/>
      <point x="199" y="188"/>
      <point x="199" y="274" type="curve" smooth="yes"/>
      <point x="199" y="363"/>
      <point x="228" y="423"/>
      <point x="287" y="423" type="curve" smooth="yes"/>
      <point x="346" y="423"/>
      <point x="376" y="367"/>
      <point x="376" y="274" type="curve" smooth="yes"/>
      <point x="376" y="186"/>
      <point x="353" y="126"/>
    </contour>
  </outline>
</glyph>
<glyph name="one_m" format="2">
  <advance width="540"/>
  <unicode hex="1041"/>
  <note>
one_m
</note>
  <outline>
    <contour>
      <point x="249" y="-9" type="curve" smooth="yes"/>
      <point x="409" y="-9"/>
      <point x="505" y="116"/>
      <point x="505" y="274" type="curve" smooth="yes"/>
      <point x="505" y="437"/>
      <point x="414" y="558"/>
      <point x="255" y="558" type="curve" smooth="yes"/>
      <point x="154" y="558"/>
      <point x="87" y="501"/>
      <point x="54" y="431" type="curve"/>
      <point x="159" y="362" type="line"/>
      <point x="182" y="405"/>
      <point x="212" y="423"/>
      <point x="249" y="423" type="curve" smooth="yes"/>
      <point x="305" y="423"/>
      <point x="343" y="362"/>
      <point x="343" y="274" type="curve" smooth="yes"/>
      <point x="343" y="182"/>
      <point x="304" y="126"/>
      <point x="240" y="126" type="curve" smooth="yes"/>
      <point x="200" y="126"/>
      <point x="177" y="151"/>
      <point x="155" y="193" type="curve"/>
      <point x="35" y="128" type="line"/>
      <point x="74" y="49"/>
      <point x="153" y="-9"/>
    </contour>
  </outline>
</glyph>
<glyph name="two_m" format="2">
  <advance width="602"/>
  <unicode hex="1042"/>
  <note>
two_m
</note>
  <outline>
    <contour>
      <point x="295" y="-478" type="curve" smooth="yes"/>
      <point x="478" y="-478"/>
      <point x="557" y="-370"/>
      <point x="557" y="-175" type="curve" smooth="yes"/>
      <point x="557" y="548" type="line"/>
      <point x="393" y="548" type="line"/>
      <point x="393" y="-175" type="line" smooth="yes"/>
      <point x="393" y="-289"/>
      <point x="364" y="-343"/>
      <point x="295" y="-343" type="curve" smooth="yes"/>
      <point x="235" y="-343"/>
      <point x="201" y="-293"/>
      <point x="201" y="-175" type="curve" smooth="yes"/>
      <point x="201" y="-172" type="line"/>
      <point x="37" y="-172" type="line"/>
      <point x="37" y="-176" type="line" smooth="yes"/>
      <point x="37" y="-374"/>
      <point x="121" y="-478"/>
    </contour>
  </outline>
</glyph>
<glyph name="three_m" format="2">
  <advance width="544"/>
  <unicode hex="1043"/>
  <note>
three_m
</note>
  <outline>
    <contour>
      <point x="278" y="-466" type="line"/>
      <point x="439" y="-466" type="line"/>
      <point x="310" y="-158" type="line" smooth="yes"/>
      <point x="285" y="-99"/>
      <point x="266" y="-47"/>
      <point x="228" y="12" type="curve"/>
      <point x="223" y="-6" type="line"/>
      <point x="229" y="-9"/>
      <point x="242" y="-9"/>
      <point x="253" y="-9" type="curve" smooth="yes"/>
      <point x="413" y="-9"/>
      <point x="509" y="116"/>
      <point x="509" y="274" type="curve" smooth="yes"/>
      <point x="509" y="437"/>
      <point x="418" y="558"/>
      <point x="259" y="558" type="curve" smooth="yes"/>
      <point x="158" y="558"/>
      <point x="91" y="501"/>
      <point x="58" y="431" type="curve"/>
      <point x="163" y="362" type="line"/>
      <point x="186" y="405"/>
      <point x="216" y="423"/>
      <point x="253" y="423" type="curve" smooth="yes"/>
      <point x="309" y="423"/>
      <point x="347" y="362"/>
      <point x="347" y="274" type="curve" smooth="yes"/>
      <point x="347" y="182"/>
      <point x="308" y="126"/>
      <point x="244" y="126" type="curve" smooth="yes"/>
      <point x="204" y="126"/>
      <point x="181" y="151"/>
      <point x="159" y="193" type="curve"/>
      <point x="35" y="126" type="line"/>
    </contour>
  </outline>
</glyph>
<glyph name="four_m" format="2">
  <advance width="544"/>
  <unicode hex="1044"/>
  <note>
four_m
</note>
  <outline>
    <contour>
      <point x="105" y="-466" type="line"/>
      <point x="266" y="-466" type="line"/>
      <point x="509" y="126" type="line"/>
      <point x="385" y="193" type="line"/>
      <point x="363" y="151"/>
      <point x="340" y="126"/>
      <point x="300" y="126" type="curve" smooth="yes"/>
      <point x="236" y="126"/>
      <point x="197" y="182"/>
      <point x="197" y="274" type="curve" smooth="yes"/>
      <point x="197" y="362"/>
      <point x="235" y="423"/>
      <point x="291" y="423" type="curve" smooth="yes"/>
      <point x="328" y="423"/>
      <point x="358" y="405"/>
      <point x="381" y="362" type="curve"/>
      <point x="486" y="431" type="line"/>
      <point x="453" y="501"/>
      <point x="386" y="558"/>
      <point x="285" y="558" type="curve" smooth="yes"/>
      <point x="126" y="558"/>
      <point x="35" y="437"/>
      <point x="35" y="274" type="curve" smooth="yes"/>
      <point x="35" y="116"/>
      <point x="131" y="-9"/>
      <point x="291" y="-9" type="curve" smooth="yes"/>
      <point x="302" y="-9"/>
      <point x="315" y="-9"/>
      <point x="321" y="-6" type="curve"/>
      <point x="316" y="12" type="line"/>
      <point x="278" y="-47"/>
      <point x="259" y="-99"/>
      <point x="234" y="-158" type="curve" smooth="yes"/>
    </contour>
  </outline>
</glyph>
<glyph name="five_m" format="2">
  <advance width="619"/>
  <unicode hex="1045"/>
  <note>
five_m
</note>
  <outline>
    <contour>
      <point x="302" y="-478" type="curve" smooth="yes"/>
      <point x="492" y="-478"/>
      <point x="574" y="-369"/>
      <point x="574" y="-174" type="curve" smooth="yes"/>
      <point x="574" y="258" type="line" smooth="yes"/>
      <point x="574" y="455"/>
      <point x="489" y="559"/>
      <point x="317" y="559" type="curve" smooth="yes"/>
      <point x="152" y="559"/>
      <point x="55" y="454"/>
      <point x="55" y="280" type="curve" smooth="yes"/>
      <point x="55" y="171"/>
      <point x="113" y="98"/>
      <point x="209" y="98" type="curve" smooth="yes"/>
      <point x="299" y="98"/>
      <point x="346" y="168"/>
      <point x="346" y="258" type="curve" smooth="yes"/>
      <point x="346" y="352"/>
      <point x="304" y="397"/>
      <point x="252" y="397" type="curve" smooth="yes"/>
      <point x="243" y="397"/>
      <point x="235" y="396"/>
      <point x="225" y="392" type="curve"/>
      <point x="237" y="415"/>
      <point x="263" y="429"/>
      <point x="302" y="429" type="curve" smooth="yes"/>
      <point x="380" y="429"/>
      <point x="410" y="371"/>
      <point x="410" y="251" type="curve" smooth="yes"/>
      <point x="410" y="-175" type="line" smooth="yes"/>
      <point x="410" y="-289"/>
      <point x="378" y="-343"/>
      <point x="302" y="-343" type="curve" smooth="yes"/>
      <point x="236" y="-343"/>
      <point x="199" y="-293"/>
      <point x="199" y="-175" type="curve" smooth="yes"/>
      <point x="199" y="-172" type="line"/>
      <point x="35" y="-172" type="line"/>
      <point x="35" y="-176" type="line" smooth="yes"/>
      <point x="35" y="-374"/>
      <point x="122" y="-478"/>
    </contour>
    <contour>
      <point x="209" y="205" type="curve" smooth="yes"/>
      <point x="193" y="205"/>
      <point x="181" y="221"/>
      <point x="181" y="252" type="curve" smooth="yes"/>
      <point x="181" y="279"/>
      <point x="191" y="300"/>
      <point x="209" y="300" type="curve" smooth="yes"/>
      <point x="229" y="300"/>
      <point x="241" y="283"/>
      <point x="241" y="252" type="curve" smooth="yes"/>
      <point x="241" y="226"/>
      <point x="234" y="205"/>
    </contour>
  </outline>
</glyph>
<glyph name="six_m" format="2">
  <advance width="619"/>
  <unicode hex="1046"/>
  <note>
six_m
</note>
  <outline>
    <contour>
      <point x="321" y="-11" type="curve" smooth="yes"/>
      <point x="475" y="-11"/>
      <point x="580" y="88"/>
      <point x="580" y="246" type="curve" smooth="yes"/>
      <point x="580" y="327"/>
      <point x="540" y="389"/>
      <point x="471" y="389" type="curve" smooth="yes"/>
      <point x="435" y="389"/>
      <point x="418" y="375"/>
      <point x="399" y="375" type="curve" smooth="yes"/>
      <point x="380" y="375"/>
      <point x="372" y="390"/>
      <point x="372" y="412" type="curve" smooth="yes"/>
      <point x="372" y="433"/>
      <point x="380" y="445"/>
      <point x="393" y="445" type="curve" smooth="yes"/>
      <point x="405" y="445"/>
      <point x="411" y="437"/>
      <point x="420" y="423" type="curve"/>
      <point x="494" y="492" type="line"/>
      <point x="466" y="534"/>
      <point x="435" y="559"/>
      <point x="379" y="559" type="curve" smooth="yes"/>
      <point x="296" y="559"/>
      <point x="248" y="500"/>
      <point x="248" y="410" type="curve" smooth="yes"/>
      <point x="248" y="321"/>
      <point x="298" y="265"/>
      <point x="357" y="265" type="curve" smooth="yes"/>
      <point x="394" y="265"/>
      <point x="403" y="275"/>
      <point x="418" y="275" type="curve" smooth="yes"/>
      <point x="429" y="275"/>
      <point x="435" y="262"/>
      <point x="435" y="245" type="curve" smooth="yes"/>
      <point x="435" y="175"/>
      <point x="391" y="119"/>
      <point x="320" y="119" type="curve" smooth="yes"/>
      <point x="239" y="119"/>
      <point x="209" y="177"/>
      <point x="209" y="297" type="curve" smooth="yes"/>
      <point x="209" y="723" type="line" smooth="yes"/>
      <point x="209" y="837"/>
      <point x="241" y="891"/>
      <point x="317" y="891" type="curve" smooth="yes"/>
      <point x="383" y="891"/>
      <point x="420" y="841"/>
      <point x="420" y="723" type="curve" smooth="yes"/>
      <point x="420" y="720" type="line"/>
      <point x="584" y="720" type="line"/>
      <point x="584" y="724" type="line" smooth="yes"/>
      <point x="584" y="922"/>
      <point x="497" y="1026"/>
      <point x="317" y="1026" type="curve" smooth="yes"/>
      <point x="127" y="1026"/>
      <point x="45" y="917"/>
      <point x="45" y="722" type="curve" smooth="yes"/>
      <point x="45" y="290" type="line" smooth="yes"/>
      <point x="45" y="93"/>
      <point x="137" y="-11"/>
    </contour>
  </outline>
</glyph>
<glyph name="seven_m" format="2">
  <advance width="524"/>
  <unicode hex="1047"/>
  <note>
seven_m
</note>
  <outline>
    <contour>
      <point x="286" y="-478" type="curve" smooth="yes"/>
      <point x="368" y="-478"/>
      <point x="433" y="-435"/>
      <point x="471" y="-348" type="curve"/>
      <point x="353" y="-268" type="line"/>
      <point x="327" y="-317"/>
      <point x="312" y="-343"/>
      <point x="290" y="-343" type="curve" smooth="yes"/>
      <point x="274" y="-343"/>
      <point x="263" y="-331"/>
      <point x="263" y="-310" type="curve" smooth="yes"/>
      <point x="263" y="-241"/>
      <point x="329" y="-165"/>
      <point x="389" y="-53" type="curve" smooth="yes"/>
      <point x="474" y="107"/>
      <point x="489" y="198"/>
      <point x="489" y="277" type="curve" smooth="yes"/>
      <point x="489" y="445"/>
      <point x="414" y="558"/>
      <point x="266" y="558" type="curve" smooth="yes"/>
      <point x="112" y="558"/>
      <point x="35" y="417"/>
      <point x="35" y="277" type="curve" smooth="yes"/>
      <point x="35" y="99"/>
      <point x="106" y="23"/>
      <point x="151" y="-4" type="curve"/>
      <point x="236" y="117" type="line"/>
      <point x="220" y="134"/>
      <point x="199" y="172"/>
      <point x="199" y="277" type="curve" smooth="yes"/>
      <point x="199" y="364"/>
      <point x="221" y="427"/>
      <point x="266" y="427" type="curve" smooth="yes"/>
      <point x="308" y="427"/>
      <point x="325" y="366"/>
      <point x="325" y="286" type="curve" smooth="yes"/>
      <point x="325" y="211"/>
      <point x="312" y="141"/>
      <point x="250" y="32" type="curve" smooth="yes"/>
      <point x="167" y="-115"/>
      <point x="105" y="-183"/>
      <point x="105" y="-302" type="curve" smooth="yes"/>
      <point x="105" y="-409"/>
      <point x="184" y="-478"/>
    </contour>
  </outline>
</glyph>
<glyph name="eight_m" format="2">
  <advance width="566"/>
  <unicode hex="1048"/>
  <note>
eight_m
</note>
  <outline>
    <contour>
      <point x="200" y="-10" type="curve"/>
      <point x="255" y="63"/>
      <point x="302" y="144"/>
      <point x="302" y="269" type="curve" smooth="yes"/>
      <point x="302" y="326"/>
      <point x="299" y="370"/>
      <point x="283" y="446" type="curve"/>
      <point x="209" y="402" type="line"/>
      <point x="218" y="359"/>
      <point x="226" y="313"/>
      <point x="226" y="269" type="curve" smooth="yes"/>
      <point x="226" y="208"/>
      <point x="223" y="175"/>
      <point x="212" y="142" type="curve"/>
      <point x="183" y="183"/>
      <point x="176" y="221"/>
      <point x="176" y="269" type="curve" smooth="yes"/>
      <point x="176" y="351"/>
      <point x="231" y="423"/>
      <point x="285" y="423" type="curve" smooth="yes"/>
      <point x="340" y="423"/>
      <point x="370" y="370"/>
      <point x="370" y="276" type="curve" smooth="yes"/>
      <point x="370" y="221"/>
      <point x="369" y="171"/>
      <point x="330" y="119" type="curve"/>
      <point x="405" y="-10" type="line"/>
      <point x="477" y="39"/>
      <point x="531" y="134"/>
      <point x="531" y="276" type="curve" smooth="yes"/>
      <point x="531" y="444"/>
      <point x="438" y="558"/>
      <point x="287" y="558" type="curve" smooth="yes"/>
      <point x="126" y="558"/>
      <point x="35" y="445"/>
      <point x="35" y="276" type="curve" smooth="yes"/>
      <point x="35" y="141"/>
      <point x="102" y="36"/>
    </contour>
  </outline>
</glyph>
<glyph name="nine_m" format="2">
  <advance width="619"/>
  <unicode hex="1049"/>
  <note>
nine_m
</note>
  <outline>
    <contour>
      <point x="317" y="-478" type="curve" smooth="yes"/>
      <point x="497" y="-478"/>
      <point x="584" y="-374"/>
      <point x="584" y="-176" type="curve" smooth="yes"/>
      <point x="584" y="-172" type="line"/>
      <point x="420" y="-172" type="line"/>
      <point x="420" y="-175" type="line" smooth="yes"/>
      <point x="420" y="-293"/>
      <point x="383" y="-343"/>
      <point x="317" y="-343" type="curve" smooth="yes"/>
      <point x="241" y="-343"/>
      <point x="209" y="-289"/>
      <point x="209" y="-175" type="curve" smooth="yes"/>
      <point x="209" y="251" type="line" smooth="yes"/>
      <point x="209" y="371"/>
      <point x="239" y="429"/>
      <point x="320" y="429" type="curve" smooth="yes"/>
      <point x="391" y="429"/>
      <point x="435" y="373"/>
      <point x="435" y="303" type="curve" smooth="yes"/>
      <point x="435" y="286"/>
      <point x="429" y="273"/>
      <point x="418" y="273" type="curve" smooth="yes"/>
      <point x="403" y="273"/>
      <point x="394" y="283"/>
      <point x="357" y="283" type="curve" smooth="yes"/>
      <point x="298" y="283"/>
      <point x="248" y="227"/>
      <point x="248" y="138" type="curve" smooth="yes"/>
      <point x="248" y="48"/>
      <point x="296" y="-11"/>
      <point x="379" y="-11" type="curve" smooth="yes"/>
      <point x="435" y="-11"/>
      <point x="466" y="14"/>
      <point x="494" y="56" type="curve"/>
      <point x="420" y="125" type="line"/>
      <point x="411" y="111"/>
      <point x="405" y="103"/>
      <point x="393" y="103" type="curve" smooth="yes"/>
      <point x="380" y="103"/>
      <point x="372" y="115"/>
      <point x="372" y="136" type="curve" smooth="yes"/>
      <point x="372" y="158"/>
      <point x="380" y="173"/>
      <point x="399" y="173" type="curve" smooth="yes"/>
      <point x="418" y="173"/>
      <point x="435" y="159"/>
      <point x="471" y="159" type="curve" smooth="yes"/>
      <point x="540" y="159"/>
      <point x="580" y="221"/>
      <point x="580" y="302" type="curve" smooth="yes"/>
      <point x="580" y="460"/>
      <point x="475" y="559"/>
      <point x="321" y="559" type="curve" smooth="yes"/>
      <point x="137" y="559"/>
      <point x="45" y="455"/>
      <point x="45" y="258" type="curve" smooth="yes"/>
      <point x="45" y="-174" type="line" smooth="yes"/>
      <point x="45" y="-369"/>
      <point x="127" y="-478"/>
    </contour>
  </outline>
</glyph>
<glyph name="little_section" format="2">
  <advance width="266"/>
  <unicode hex="104A"/>
  <note>
little_section
</note>
  <outline>
    <contour>
      <point x="51" y="0" type="line"/>
      <point x="215" y="0" type="line"/>
      <point x="215" y="548" type="line"/>
      <point x="51" y="548" type="line"/>
    </contour>
  </outline>
</glyph>
<glyph name="locative" format="2">
  <advance width="550"/>
  <unicode hex="104C"/>
  <note>
locative
</note>
  <outline>
    <contour>
      <point x="212" y="-466" type="curve" smooth="yes"/>
      <point x="327" y="-466" type="line" smooth="yes"/>
      <point x="448" y="-466"/>
      <point x="505" y="-394"/>
      <point x="505" y="-250" type="curve" smooth="yes"/>
      <point x="505" y="12" type="line"/>
      <point x="442" y="-32"/>
      <point x="357" y="-58"/>
      <point x="279" y="-58" type="curve" smooth="yes"/>
      <point x="240" y="-58"/>
      <point x="217" y="-53"/>
      <point x="206" y="-49" type="curve"/>
      <point x="206" y="45" type="line"/>
      <point x="45" y="128" type="line"/>
      <point x="45" y="-118" type="line"/>
      <point x="105" y="-151"/>
      <point x="173" y="-170"/>
      <point x="253" y="-170" type="curve" smooth="yes"/>
      <point x="288" y="-170"/>
      <point x="310" y="-168"/>
      <point x="337" y="-163" type="curve"/>
      <point x="337" y="-277" type="line" smooth="yes"/>
      <point x="337" y="-323"/>
      <point x="327" y="-349"/>
      <point x="293" y="-349" type="curve" smooth="yes"/>
      <point x="236" y="-349" type="line" smooth="yes"/>
      <point x="204" y="-349"/>
      <point x="189" y="-338"/>
      <point x="189" y="-321" type="curve" smooth="yes"/>
      <point x="189" y="-304"/>
      <point x="201" y="-293"/>
      <point x="220" y="-293" type="curve" smooth="yes"/>
      <point x="233" y="-293"/>
      <point x="242" y="-297"/>
      <point x="257" y="-309" type="curve"/>
      <point x="310" y="-230" type="line"/>
      <point x="280" y="-206"/>
      <point x="243" y="-189"/>
      <point x="181" y="-189" type="curve" smooth="yes"/>
      <point x="105" y="-189"/>
      <point x="25" y="-221"/>
      <point x="25" y="-323" type="curve" smooth="yes"/>
      <point x="25" y="-425"/>
      <point x="103" y="-466"/>
    </contour>
    <contour>
      <point x="279" y="-9" type="curve" smooth="yes"/>
      <point x="419" y="-9"/>
      <point x="515" y="116"/>
      <point x="515" y="274" type="curve" smooth="yes"/>
      <point x="515" y="437"/>
      <point x="424" y="558"/>
      <point x="265" y="558" type="curve" smooth="yes"/>
      <point x="164" y="558"/>
      <point x="97" y="501"/>
      <point x="64" y="431" type="curve"/>
      <point x="169" y="362" type="line"/>
      <point x="192" y="405"/>
      <point x="222" y="423"/>
      <point x="259" y="423" type="curve" smooth="yes"/>
      <point x="315" y="423"/>
      <point x="353" y="362"/>
      <point x="353" y="274" type="curve" smooth="yes"/>
      <point x="353" y="182"/>
      <point x="314" y="126"/>
      <point x="250" y="126" type="curve" smooth="yes"/>
      <point x="210" y="126"/>
      <point x="187" y="151"/>
      <point x="165" y="193" type="curve"/>
      <point x="45" y="128" type="line"/>
      <point x="84" y="49"/>
      <point x="195" y="-9"/>
    </contour>
    <component base="asat" xOffset="548"/>
  </outline>
</glyph>
<glyph name="completed" format="2">
  <advance width="850"/>
  <unicode hex="104D"/>
  <note>
completed
</note>
  <outline>
    <contour>
      <point x="222" y="-466" type="curve" smooth="yes"/>
      <point x="627" y="-466" type="line" smooth="yes"/>
      <point x="748" y="-466"/>
      <point x="805" y="-394"/>
      <point x="805" y="-250" type="curve" smooth="yes"/>
      <point x="805" y="266" type="line" smooth="yes"/>
      <point x="805" y="475"/>
      <point x="762" y="560"/>
      <point x="667" y="698" type="curve" smooth="yes"/>
      <point x="631" y="750"/>
      <point x="613" y="793"/>
      <point x="613" y="827" type="curve" smooth="yes"/>
      <point x="613" y="851"/>
      <point x="622" y="875"/>
      <point x="644" y="875" type="curve" smooth="yes"/>
      <point x="667" y="875"/>
      <point x="678" y="843"/>
      <point x="690" y="796" type="curve"/>
      <point x="812" y="860" type="line"/>
      <point x="788" y="957"/>
      <point x="729" y="1004"/>
      <point x="629" y="1004" type="curve" smooth="yes"/>
      <point x="525" y="1004"/>
      <point x="456" y="923"/>
      <point x="456" y="820" type="curve" smooth="yes"/>
      <point x="456" y="736"/>
      <point x="491" y="687"/>
      <point x="552" y="588" type="curve" smooth="yes"/>
      <point x="620" y="477"/>
      <point x="641" y="394"/>
      <point x="641" y="266" type="curve" smooth="yes"/>
      <point x="641" y="-260" type="line" smooth="yes"/>
      <point x="641" y="-306"/>
      <point x="631" y="-332"/>
      <point x="597" y="-332" type="curve" smooth="yes"/>
      <point x="246" y="-332" type="line" smooth="yes"/>
      <point x="214" y="-332"/>
      <point x="199" y="-318"/>
      <point x="199" y="-296" type="curve" smooth="yes"/>
      <point x="199" y="-281"/>
      <point x="211" y="-266"/>
      <point x="230" y="-266" type="curve" smooth="yes"/>
      <point x="243" y="-266"/>
      <point x="252" y="-270"/>
      <point x="267" y="-282" type="curve"/>
      <point x="320" y="-180" type="line"/>
      <point x="290" y="-156"/>
      <point x="253" y="-139"/>
      <point x="191" y="-139" type="curve" smooth="yes"/>
      <point x="115" y="-139"/>
      <point x="35" y="-189"/>
      <point x="35" y="-299" type="curve" smooth="yes"/>
      <point x="35" y="-408"/>
      <point x="113" y="-466"/>
    </contour>
    <contour>
      <point x="383" y="-171" type="line"/>
      <point x="547" y="-171" type="line"/>
      <point x="547" y="268" type="line" smooth="yes"/>
      <point x="547" y="423"/>
      <point x="470" y="558"/>
      <point x="297" y="558" type="curve" smooth="yes"/>
      <point x="130" y="558"/>
      <point x="35" y="432"/>
      <point x="35" y="274" type="curve" smooth="yes"/>
      <point x="35" y="111"/>
      <point x="111" y="-10"/>
      <point x="281" y="-10" type="curve" smooth="yes"/>
      <point x="317" y="-10"/>
      <point x="338" y="-2"/>
      <point x="360" y="6" type="curve"/>
      <point x="356" y="197"/>
      <point x="317" y="307"/>
      <point x="153" y="349" type="curve"/>
      <point x="144" y="256" type="line"/>
      <point x="210" y="246"/>
      <point x="253" y="179"/>
      <point x="257" y="74" type="curve"/>
      <point x="292" y="108" type="line"/>
      <point x="283" y="108"/>
      <point x="272" y="108"/>
      <point x="264" y="108" type="curve" smooth="yes"/>
      <point x="201" y="108"/>
      <point x="157" y="174"/>
      <point x="157" y="266" type="curve" smooth="yes"/>
      <point x="157" y="347"/>
      <point x="192" y="423"/>
      <point x="271" y="423" type="curve" smooth="yes"/>
      <point x="353" y="423"/>
      <point x="383" y="347"/>
      <point x="383" y="265" type="curve" smooth="yes"/>
    </contour>
  </outline>
</glyph>
<glyph name="aforementioned" format="2">
  <advance width="550"/>
  <unicode hex="104E"/>
  <note>
aforementioned
</note>
  <outline>
    <contour>
      <point x="271" y="-9" type="curve" smooth="yes"/>
      <point x="355" y="-9"/>
      <point x="466" y="49"/>
      <point x="505" y="128" type="curve"/>
      <point x="385" y="193" type="line"/>
      <point x="363" y="151"/>
      <point x="340" y="126"/>
      <point x="300" y="126" type="curve" smooth="yes"/>
      <point x="236" y="126"/>
      <point x="197" y="182"/>
      <point x="197" y="274" type="curve" smooth="yes"/>
      <point x="197" y="362"/>
      <point x="235" y="423"/>
      <point x="291" y="423" type="curve" smooth="yes"/>
      <point x="328" y="423"/>
      <point x="358" y="405"/>
      <point x="381" y="362" type="curve"/>
      <point x="486" y="431" type="line"/>
      <point x="453" y="501"/>
      <point x="386" y="558"/>
      <point x="285" y="558" type="curve" smooth="yes"/>
      <point x="126" y="558"/>
      <point x="35" y="437"/>
      <point x="35" y="274" type="curve" smooth="yes"/>
      <point x="35" y="116"/>
      <point x="131" y="-9"/>
    </contour>
    <contour>
      <point x="341" y="-478" type="line"/>
      <point x="505" y="-478" type="line"/>
      <point x="505" y="128" type="line"/>
      <point x="341" y="19" type="line"/>
    </contour>
  </outline>
</glyph>
<glyph name="genitive" format="2">
  <advance width="1096"/>
  <unicode hex="104F"/>
  <note>
genitive
</note>
  <outline>
    <contour>
      <point x="887" y="0" type="line"/>
      <point x="1051" y="0" type="line" smooth="yes"/>
      <point x="1051" y="266" type="line" smooth="yes"/>
      <point x="1051" y="475"/>
      <point x="1008" y="560"/>
      <point x="913" y="698" type="curve" smooth="yes"/>
      <point x="877" y="750"/>
      <point x="859" y="793"/>
      <point x="859" y="827" type="curve" smooth="yes"/>
      <point x="859" y="851"/>
      <point x="868" y="875"/>
      <point x="890" y="875" type="curve" smooth="yes"/>
      <point x="913" y="875"/>
      <point x="924" y="843"/>
      <point x="936" y="796" type="curve"/>
      <point x="1058" y="860" type="line"/>
      <point x="1034" y="957"/>
      <point x="975" y="1004"/>
      <point x="875" y="1004" type="curve" smooth="yes"/>
      <point x="771" y="1004"/>
      <point x="702" y="923"/>
      <point x="702" y="820" type="curve" smooth="yes"/>
      <point x="702" y="736"/>
      <point x="737" y="687"/>
      <point x="798" y="588" type="curve" smooth="yes"/>
      <point x="866" y="477"/>
      <point x="887" y="394"/>
      <point x="887" y="266" type="curve" smooth="yes"/>
    </contour>
    <contour>
      <point x="629" y="0" type="line"/>
      <point x="793" y="0" type="line"/>
      <point x="793" y="284" type="line" smooth="yes"/>
      <point x="793" y="458"/>
      <point x="732" y="558"/>
      <point x="596" y="558" type="curve" smooth="yes"/>
      <point x="518" y="558"/>
      <point x="465" y="518"/>
      <point x="443" y="475" type="curve"/>
      <point x="519" y="353" type="line"/>
      <point x="520" y="385"/>
      <point x="536" y="423"/>
      <point x="571" y="423" type="curve" smooth="yes"/>
      <point x="617" y="423"/>
      <point x="629" y="368"/>
      <point x="629" y="275" type="curve" smooth="yes"/>
    </contour>
    <component base="e_m"/>
  </outline>
</glyph>
<glyph name="sha_skt" format="2">
  <advance width="566"/>
  <unicode hex="1050"/>
  <note>
sha_skt
</note>
  <outline>
    <contour>
      <point x="283" y="191" type="curve" smooth="yes"/>
      <point x="313" y="191"/>
      <point x="343" y="213"/>
      <point x="343" y="268" type="curve" smooth="yes"/>
      <point x="343" y="323"/>
      <point x="313" y="345"/>
      <point x="283" y="345" type="curve" smooth="yes"/>
      <point x="255" y="345"/>
      <point x="224" y="325"/>
      <point x="224" y="268" type="curve" smooth="yes"/>
      <point x="224" y="213"/>
      <point x="256" y="191"/>
    </contour>
    <component base="ga"/>
  </outline>
</glyph>
<glyph name="vocR_skt" format="2">
  <advance width="571"/>
  <unicode hex="1052"/>
  <note>
vocR_skt
</note>
  <outline>
    <contour>
      <point x="295" y="-10" type="curve" smooth="yes"/>
      <point x="456" y="-10"/>
      <point x="532" y="77"/>
      <point x="532" y="195" type="curve" smooth="yes"/>
      <point x="532" y="256"/>
      <point x="512" y="301"/>
      <point x="475" y="339" type="curve" smooth="yes"/>
      <point x="441" y="374"/>
      <point x="417" y="386"/>
      <point x="417" y="405" type="curve" smooth="yes"/>
      <point x="417" y="418"/>
      <point x="426" y="424"/>
      <point x="438" y="424" type="curve" smooth="yes"/>
      <point x="455" y="424"/>
      <point x="472" y="409"/>
      <point x="482" y="393" type="curve"/>
      <point x="553" y="471" type="line"/>
      <point x="529" y="523"/>
      <point x="477" y="559"/>
      <point x="407" y="559" type="curve" smooth="yes"/>
      <point x="321" y="559"/>
      <point x="274" y="505"/>
      <point x="274" y="428" type="curve" smooth="yes"/>
      <point x="274" y="370"/>
      <point x="308" y="331"/>
      <point x="339" y="290" type="curve" smooth="yes"/>
      <point x="359" y="264"/>
      <point x="370" y="239"/>
      <point x="370" y="206" type="curve" smooth="yes"/>
      <point x="370" y="159"/>
      <point x="344" y="125"/>
      <point x="292" y="125" type="curve" smooth="yes"/>
      <point x="232" y="125"/>
      <point x="197" y="183"/>
      <point x="197" y="272" type="curve" smooth="yes"/>
      <point x="197" y="328"/>
      <point x="198" y="378"/>
      <point x="235" y="429" type="curve"/>
      <point x="159" y="558" type="line"/>
      <point x="88" y="509"/>
      <point x="35" y="414"/>
      <point x="35" y="272" type="curve" smooth="yes"/>
      <point x="35" y="104"/>
      <point x="123" y="-10"/>
    </contour>
  </outline>
</glyph>
<glyph name="vocRR_skt" format="2">
  <advance width="572"/>
  <unicode hex="1053"/>
  <note>
vocRR_skt
</note>
  <outline>
    <contour>
      <point x="286" y="-10" type="curve" smooth="yes"/>
      <point x="457" y="-10"/>
      <point x="533" y="77"/>
      <point x="533" y="195" type="curve" smooth="yes"/>
      <point x="533" y="256"/>
      <point x="511" y="305"/>
      <point x="476" y="345" type="curve" smooth="yes"/>
      <point x="449" y="376"/>
      <point x="438" y="386"/>
      <point x="438" y="407" type="curve" smooth="yes"/>
      <point x="438" y="418"/>
      <point x="443" y="424"/>
      <point x="452" y="424" type="curve" smooth="yes"/>
      <point x="465" y="424"/>
      <point x="475" y="409"/>
      <point x="483" y="393" type="curve"/>
      <point x="554" y="471" type="line"/>
      <point x="532" y="523"/>
      <point x="483" y="559"/>
      <point x="418" y="559" type="curve" smooth="yes"/>
      <point x="343" y="559"/>
      <point x="302" y="505"/>
      <point x="302" y="428" type="curve" smooth="yes"/>
      <point x="302" y="370"/>
      <point x="325" y="333"/>
      <point x="347" y="294" type="curve" smooth="yes"/>
      <point x="362" y="267"/>
      <point x="371" y="239"/>
      <point x="371" y="206" type="curve" smooth="yes"/>
      <point x="371" y="159"/>
      <point x="345" y="125"/>
      <point x="286" y="125" type="curve" smooth="yes"/>
      <point x="227" y="125"/>
      <point x="201" y="159"/>
      <point x="201" y="206" type="curve" smooth="yes"/>
      <point x="201" y="239"/>
      <point x="210" y="267"/>
      <point x="225" y="294" type="curve" smooth="yes"/>
      <point x="247" y="333"/>
      <point x="270" y="370"/>
      <point x="270" y="428" type="curve" smooth="yes"/>
      <point x="270" y="505"/>
      <point x="229" y="559"/>
      <point x="154" y="559" type="curve" smooth="yes"/>
      <point x="89" y="559"/>
      <point x="40" y="523"/>
      <point x="18" y="471" type="curve"/>
      <point x="89" y="393" type="line"/>
      <point x="97" y="409"/>
      <point x="107" y="424"/>
      <point x="120" y="424" type="curve" smooth="yes"/>
      <point x="129" y="424"/>
      <point x="134" y="418"/>
      <point x="134" y="407" type="curve" smooth="yes"/>
      <point x="134" y="386"/>
      <point x="123" y="376"/>
      <point x="96" y="345" type="curve" smooth="yes"/>
      <point x="61" y="305"/>
      <point x="39" y="256"/>
      <point x="39" y="195" type="curve" smooth="yes"/>
      <point x="39" y="77"/>
      <point x="115" y="-10"/>
    </contour>
  </outline>
</glyph>
<glyph name="vocL_skt" format="2">
  <advance width="532"/>
  <unicode hex="1054"/>
  <note>
vocL_skt
</note>
  <outline>
    <contour>
      <point x="284" y="-10" type="curve" smooth="yes"/>
      <point x="353" y="-10"/>
      <point x="405" y="6"/>
      <point x="479" y="48" type="curve"/>
      <point x="432" y="175" type="line"/>
      <point x="365" y="136"/>
      <point x="333" y="125"/>
      <point x="294" y="125" type="curve" smooth="yes"/>
      <point x="241" y="125"/>
      <point x="197" y="173"/>
      <point x="197" y="274" type="curve" smooth="yes"/>
      <point x="197" y="371"/>
      <point x="233" y="423"/>
      <point x="284" y="423" type="curve" smooth="yes"/>
      <point x="319" y="423"/>
      <point x="336" y="406"/>
      <point x="351" y="385" type="curve"/>
      <point x="324" y="363"/>
      <point x="306" y="352"/>
      <point x="284" y="352" type="curve" smooth="yes"/>
      <point x="252" y="352"/>
      <point x="222" y="366"/>
      <point x="191" y="388" type="curve"/>
      <point x="176" y="284" type="line"/>
      <point x="226" y="260"/>
      <point x="258" y="249"/>
      <point x="292" y="249" type="curve" smooth="yes"/>
      <point x="357" y="249"/>
      <point x="420" y="275"/>
      <point x="497" y="325" type="curve"/>
      <point x="490" y="469"/>
      <point x="418" y="558"/>
      <point x="272" y="558" type="curve" smooth="yes"/>
      <point x="152" y="558"/>
      <point x="35" y="458"/>
      <point x="35" y="274" type="curve" smooth="yes"/>
      <point x="35" y="96"/>
      <point x="135" y="-10"/>
    </contour>
  </outline>
</glyph>
<glyph name="vocLL_skt" format="2">
  <advance width="543"/>
  <unicode hex="1055"/>
  <note>
vocLL_skt
</note>
  <outline>
    <contour>
      <point x="204" y="-9" type="curve" smooth="yes"/>
      <point x="252" y="-9"/>
      <point x="287" y="20"/>
      <point x="301" y="64" type="curve"/>
      <point x="286" y="63" type="line"/>
      <point x="286" y="21"/>
      <point x="323" y="-9"/>
      <point x="378" y="-9" type="curve" smooth="yes"/>
      <point x="480" y="-9"/>
      <point x="508" y="62"/>
      <point x="508" y="169" type="curve"/>
      <point x="389" y="193" type="line"/>
      <point x="388" y="149"/>
      <point x="386" y="128"/>
      <point x="372" y="128" type="curve" smooth="yes"/>
      <point x="357" y="128"/>
      <point x="353" y="137"/>
      <point x="353" y="172" type="curve" smooth="yes"/>
      <point x="353" y="188" type="line"/>
      <point x="240" y="188" type="line"/>
      <point x="240" y="172" type="line" smooth="yes"/>
      <point x="240" y="139"/>
      <point x="231" y="128"/>
      <point x="222" y="128" type="curve" smooth="yes"/>
      <point x="204" y="128"/>
      <point x="197" y="158"/>
      <point x="197" y="265" type="curve" smooth="yes"/>
      <point x="197" y="371"/>
      <point x="233" y="423"/>
      <point x="284" y="423" type="curve" smooth="yes"/>
      <point x="319" y="423"/>
      <point x="336" y="406"/>
      <point x="351" y="385" type="curve"/>
      <point x="324" y="363"/>
      <point x="306" y="352"/>
      <point x="284" y="352" type="curve" smooth="yes"/>
      <point x="252" y="352"/>
      <point x="222" y="366"/>
      <point x="191" y="388" type="curve"/>
      <point x="176" y="284" type="line"/>
      <point x="226" y="260"/>
      <point x="258" y="249"/>
      <point x="292" y="249" type="curve" smooth="yes"/>
      <point x="357" y="249"/>
      <point x="420" y="275"/>
      <point x="497" y="325" type="curve"/>
      <point x="490" y="469"/>
      <point x="418" y="558"/>
      <point x="272" y="558" type="curve" smooth="yes"/>
      <point x="152" y="558"/>
      <point x="35" y="458"/>
      <point x="35" y="274" type="curve" smooth="yes"/>
      <point x="35" y="102"/>
      <point x="97" y="-9"/>
    </contour>
  </outline>
</glyph>
<glyph name="_vocR_skt" format="2">
  <advance width="300"/>
  <unicode hex="1056"/>
  <note>
_vocR_skt
</note>
  <outline>
    <contour>
      <point x="84" y="-10" type="curve" smooth="yes"/>
      <point x="194" y="-10"/>
      <point x="258" y="68"/>
      <point x="258" y="170" type="curve" smooth="yes"/>
      <point x="258" y="254"/>
      <point x="221" y="295"/>
      <point x="168" y="346" type="curve" smooth="yes"/>
      <point x="140" y="372"/>
      <point x="125" y="388"/>
      <point x="125" y="406" type="curve" smooth="yes"/>
      <point x="125" y="418"/>
      <point x="131" y="430"/>
      <point x="144" y="430" type="curve" smooth="yes"/>
      <point x="159" y="430"/>
      <point x="172" y="417"/>
      <point x="191" y="393" type="curve"/>
      <point x="270" y="479" type="line"/>
      <point x="238" y="527"/>
      <point x="187" y="555"/>
      <point x="116" y="555" type="curve" smooth="yes"/>
      <point x="24" y="555"/>
      <point x="-36" y="494"/>
      <point x="-36" y="402" type="curve" smooth="yes"/>
      <point x="-36" y="342"/>
      <point x="-9" y="295"/>
      <point x="34" y="251" type="curve" smooth="yes"/>
      <point x="79" y="205"/>
      <point x="95" y="190"/>
      <point x="95" y="162" type="curve" smooth="yes"/>
      <point x="95" y="141"/>
      <point x="85" y="125"/>
      <point x="64" y="125" type="curve" smooth="yes"/>
      <point x="32" y="125"/>
      <point x="2" y="167"/>
      <point x="-36" y="236" type="curve"/>
      <point x="-150" y="158" type="line"/>
      <point x="-87" y="39"/>
      <point x="-15" y="-10"/>
    </contour>
  </outline>
</glyph>
<glyph name="_vocRR_skt" format="2">
  <advance width="348"/>
  <unicode hex="1057"/>
  <note>
_vocRR_skt
</note>
  <outline>
    <contour>
      <point x="-33" y="-9" type="curve" smooth="yes"/>
      <point x="22" y="-9"/>
      <point x="59" y="21"/>
      <point x="59" y="63" type="curve"/>
      <point x="44" y="64" type="line"/>
      <point x="58" y="20"/>
      <point x="97" y="-9"/>
      <point x="157" y="-9" type="curve" smooth="yes"/>
      <point x="251" y="-9"/>
      <point x="306" y="68"/>
      <point x="306" y="170" type="curve" smooth="yes"/>
      <point x="306" y="254"/>
      <point x="269" y="295"/>
      <point x="216" y="346" type="curve" smooth="yes"/>
      <point x="188" y="372"/>
      <point x="173" y="388"/>
      <point x="173" y="406" type="curve" smooth="yes"/>
      <point x="173" y="418"/>
      <point x="179" y="430"/>
      <point x="192" y="430" type="curve" smooth="yes"/>
      <point x="207" y="430"/>
      <point x="220" y="417"/>
      <point x="239" y="393" type="curve"/>
      <point x="318" y="479" type="line"/>
      <point x="286" y="527"/>
      <point x="235" y="555"/>
      <point x="164" y="555" type="curve" smooth="yes"/>
      <point x="72" y="555"/>
      <point x="12" y="494"/>
      <point x="12" y="402" type="curve" smooth="yes"/>
      <point x="12" y="342"/>
      <point x="39" y="295"/>
      <point x="82" y="251" type="curve" smooth="yes"/>
      <point x="127" y="205"/>
      <point x="143" y="190"/>
      <point x="143" y="162" type="curve" smooth="yes"/>
      <point x="143" y="142"/>
      <point x="139" y="126"/>
      <point x="123" y="126" type="curve" smooth="yes"/>
      <point x="114" y="126"/>
      <point x="105" y="138"/>
      <point x="105" y="172" type="curve" smooth="yes"/>
      <point x="105" y="188" type="line"/>
      <point x="-8" y="188" type="line"/>
      <point x="-8" y="172" type="line" smooth="yes"/>
      <point x="-8" y="135"/>
      <point x="-12" y="126"/>
      <point x="-27" y="126" type="curve" smooth="yes"/>
      <point x="-41" y="126"/>
      <point x="-43" y="148"/>
      <point x="-44" y="193" type="curve"/>
      <point x="-163" y="169" type="line"/>
      <point x="-163" y="62"/>
      <point x="-135" y="-9"/>
    </contour>
  </outline>
</glyph>
<glyph name="_vocL_skt" format="2">
  <unicode hex="1058"/>
  <note>
_vocL_skt
</note>
  <outline>
    <contour>
      <point x="-247" y="-478" type="curve" smooth="yes"/>
      <point x="-191" y="-478"/>
      <point x="-150" y="-466"/>
      <point x="-91" y="-435" type="curve"/>
      <point x="-128" y="-339" type="line"/>
      <point x="-182" y="-369"/>
      <point x="-207" y="-377"/>
      <point x="-239" y="-377" type="curve" smooth="yes"/>
      <point x="-281" y="-377"/>
      <point x="-316" y="-341"/>
      <point x="-316" y="-265" type="curve" smooth="yes"/>
      <point x="-316" y="-192"/>
      <point x="-287" y="-153"/>
      <point x="-247" y="-153" type="curve" smooth="yes"/>
      <point x="-219" y="-153"/>
      <point x="-205" y="-166"/>
      <point x="-193" y="-182" type="curve"/>
      <point x="-215" y="-198"/>
      <point x="-229" y="-207"/>
      <point x="-247" y="-207" type="curve" smooth="yes"/>
      <point x="-272" y="-207"/>
      <point x="-296" y="-196"/>
      <point x="-321" y="-180" type="curve"/>
      <point x="-333" y="-258" type="line"/>
      <point x="-293" y="-276"/>
      <point x="-267" y="-284"/>
      <point x="-240" y="-284" type="curve" smooth="yes"/>
      <point x="-188" y="-284"/>
      <point x="-138" y="-264"/>
      <point x="-76" y="-227" type="curve"/>
      <point x="-82" y="-119"/>
      <point x="-139" y="-52"/>
      <point x="-256" y="-52" type="curve" smooth="yes"/>
      <point x="-352" y="-52"/>
      <point x="-446" y="-127"/>
      <point x="-446" y="-265" type="curve" smooth="yes"/>
      <point x="-446" y="-399"/>
      <point x="-366" y="-478"/>
    </contour>
  </outline>
</glyph>
<glyph name="_vocLL_skt" format="2">
  <unicode hex="1059"/>
  <note>
_vocLL_skt
</note>
  <outline>
    <contour>
      <point x="-317" y="-478" type="curve" smooth="yes"/>
      <point x="-279" y="-478"/>
      <point x="-251" y="-456"/>
      <point x="-240" y="-422" type="curve"/>
      <point x="-252" y="-423" type="line"/>
      <point x="-252" y="-455"/>
      <point x="-222" y="-478"/>
      <point x="-178" y="-478" type="curve" smooth="yes"/>
      <point x="-97" y="-478"/>
      <point x="-74" y="-424"/>
      <point x="-74" y="-343" type="curve"/>
      <point x="-170" y="-324" type="line"/>
      <point x="-170" y="-359"/>
      <point x="-172" y="-375"/>
      <point x="-183" y="-375" type="curve" smooth="yes"/>
      <point x="-195" y="-375"/>
      <point x="-198" y="-369"/>
      <point x="-198" y="-340" type="curve" smooth="yes"/>
      <point x="-198" y="-328" type="line"/>
      <point x="-289" y="-328" type="line"/>
      <point x="-289" y="-340" type="line" smooth="yes"/>
      <point x="-289" y="-366"/>
      <point x="-296" y="-375"/>
      <point x="-303" y="-375" type="curve" smooth="yes"/>
      <point x="-317" y="-375"/>
      <point x="-323" y="-353"/>
      <point x="-323" y="-270" type="curve" smooth="yes"/>
      <point x="-323" y="-189"/>
      <point x="-294" y="-150"/>
      <point x="-254" y="-150" type="curve" smooth="yes"/>
      <point x="-226" y="-150"/>
      <point x="-212" y="-163"/>
      <point x="-200" y="-179" type="curve"/>
      <point x="-222" y="-195"/>
      <point x="-236" y="-204"/>
      <point x="-254" y="-204" type="curve" smooth="yes"/>
      <point x="-279" y="-204"/>
      <point x="-303" y="-193"/>
      <point x="-328" y="-176" type="curve"/>
      <point x="-340" y="-255" type="line"/>
      <point x="-300" y="-274"/>
      <point x="-274" y="-282"/>
      <point x="-247" y="-282" type="curve" smooth="yes"/>
      <point x="-195" y="-282"/>
      <point x="-145" y="-262"/>
      <point x="-83" y="-224" type="curve"/>
      <point x="-89" y="-115"/>
      <point x="-146" y="-47"/>
      <point x="-263" y="-47" type="curve" smooth="yes"/>
      <point x="-359" y="-47"/>
      <point x="-453" y="-123"/>
      <point x="-453" y="-263" type="curve" smooth="yes"/>
      <point x="-453" y="-394"/>
      <point x="-403" y="-478"/>
    </contour>
  </outline>
</glyph>
<glyph name="nga_mon" format="2">
  <advance width="550"/>
  <unicode hex="105A"/>
  <note>
nga_mon
</note>
  <outline>
    <contour>
      <point x="291" y="-9" type="curve" smooth="yes"/>
      <point x="387" y="-9"/>
      <point x="466" y="49"/>
      <point x="505" y="128" type="curve"/>
      <point x="385" y="193" type="line"/>
      <point x="363" y="151"/>
      <point x="340" y="126"/>
      <point x="300" y="126" type="curve" smooth="yes"/>
      <point x="236" y="126"/>
      <point x="197" y="182"/>
      <point x="197" y="274" type="curve" smooth="yes"/>
      <point x="197" y="362"/>
      <point x="235" y="423"/>
      <point x="291" y="423" type="curve" smooth="yes"/>
      <point x="328" y="423"/>
      <point x="358" y="405"/>
      <point x="381" y="362" type="curve"/>
      <point x="486" y="431" type="line"/>
      <point x="453" y="501"/>
      <point x="386" y="558"/>
      <point x="285" y="558" type="curve" smooth="yes"/>
      <point x="126" y="558"/>
      <point x="35" y="437"/>
      <point x="35" y="274" type="curve" smooth="yes"/>
      <point x="35" y="116"/>
      <point x="131" y="-9"/>
    </contour>
    <contour>
      <point x="315" y="-478" type="curve" smooth="yes"/>
      <point x="363" y="-478"/>
      <point x="392" y="-467"/>
      <point x="414" y="-452" type="curve"/>
      <point x="381" y="-371" type="line"/>
      <point x="374" y="-374"/>
      <point x="369" y="-376"/>
      <point x="363" y="-376" type="curve" smooth="yes"/>
      <point x="353" y="-376"/>
      <point x="350" y="-368"/>
      <point x="350" y="-359" type="curve" smooth="yes"/>
      <point x="350" y="-346"/>
      <point x="355" y="-336"/>
      <point x="366" y="-323" type="curve" smooth="yes"/>
      <point x="380" y="-306"/>
      <point x="438" y="-262"/>
      <point x="438" y="-186" type="curve" smooth="yes"/>
      <point x="438" y="-102"/>
      <point x="379" y="-47"/>
      <point x="287" y="-47" type="curve" smooth="yes"/>
      <point x="187" y="-47"/>
      <point x="133" y="-112"/>
      <point x="124" y="-200" type="curve"/>
      <point x="244" y="-200" type="line"/>
      <point x="247" y="-175"/>
      <point x="258" y="-156"/>
      <point x="278" y="-156" type="curve" smooth="yes"/>
      <point x="299" y="-156"/>
      <point x="307" y="-168"/>
      <point x="307" y="-185" type="curve" smooth="yes"/>
      <point x="307" y="-205"/>
      <point x="302" y="-226"/>
      <point x="291" y="-238" type="curve" smooth="yes"/>
      <point x="265" y="-266"/>
      <point x="214" y="-309"/>
      <point x="214" y="-374" type="curve" smooth="yes"/>
      <point x="214" y="-443"/>
      <point x="261" y="-478"/>
    </contour>
  </outline>
</glyph>
<glyph name="jha_mon" format="2">
  <advance width="750"/>
  <unicode hex="105B"/>
  <note>
jha_mon
</note>
  <outline>
    <contour>
      <point x="295" y="-10" type="curve" smooth="yes"/>
      <point x="345" y="-10"/>
      <point x="392" y="0"/>
      <point x="441" y="34" type="curve"/>
      <point x="365" y="142" type="line"/>
      <point x="344" y="130"/>
      <point x="323" y="125"/>
      <point x="299" y="125" type="curve" smooth="yes"/>
      <point x="239" y="125"/>
      <point x="197" y="183"/>
      <point x="197" y="272" type="curve" smooth="yes"/>
      <point x="197" y="360"/>
      <point x="240" y="422"/>
      <point x="304" y="422" type="curve" smooth="yes"/>
      <point x="317" y="422"/>
      <point x="328" y="422"/>
      <point x="340" y="421" type="curve"/>
      <point x="334" y="445" type="line"/>
      <point x="303" y="423"/>
      <point x="286" y="392"/>
      <point x="286" y="352" type="curve" smooth="yes"/>
      <point x="286" y="286"/>
      <point x="332" y="245"/>
      <point x="392" y="245" type="curve" smooth="yes"/>
      <point x="403" y="245"/>
      <point x="416" y="247"/>
      <point x="423" y="258" type="curve"/>
      <point x="408" y="261" type="line"/>
      <point x="416" y="197"/>
      <point x="448" y="166"/>
      <point x="517" y="166" type="curve" smooth="yes"/>
      <point x="613" y="166" type="line"/>
      <point x="613" y="301" type="line"/>
      <point x="543" y="301" type="line" smooth="yes"/>
      <point x="518" y="301"/>
      <point x="500" y="312"/>
      <point x="500" y="340" type="curve" smooth="yes"/>
      <point x="500" y="356"/>
      <point x="502" y="363"/>
      <point x="502" y="386" type="curve" smooth="yes"/>
      <point x="502" y="470"/>
      <point x="452" y="558"/>
      <point x="308" y="558" type="curve" smooth="yes"/>
      <point x="133" y="558"/>
      <point x="35" y="440"/>
      <point x="35" y="274" type="curve" smooth="yes"/>
      <point x="35" y="96"/>
      <point x="129" y="-10"/>
    </contour>
    <contour>
      <point x="489" y="-478" type="curve" smooth="yes"/>
      <point x="618" y="-478"/>
      <point x="705" y="-374"/>
      <point x="705" y="-215" type="curve" smooth="yes"/>
      <point x="705" y="549" type="line"/>
      <point x="544" y="549" type="line"/>
      <point x="544" y="-183" type="line" smooth="yes"/>
      <point x="544" y="-297"/>
      <point x="529" y="-343"/>
      <point x="492" y="-343" type="curve" smooth="yes"/>
      <point x="456" y="-343"/>
      <point x="441" y="-298"/>
      <point x="441" y="-185" type="curve" smooth="yes"/>
      <point x="441" y="34" type="line"/>
      <point x="279" y="7" type="line"/>
      <point x="279" y="-213" type="line" smooth="yes"/>
      <point x="279" y="-378"/>
      <point x="364" y="-478"/>
    </contour>
    <contour>
      <point x="394" y="326" type="curve" smooth="yes"/>
      <point x="372" y="326"/>
      <point x="363" y="341"/>
      <point x="363" y="366" type="curve" smooth="yes"/>
      <point x="363" y="392"/>
      <point x="375" y="406"/>
      <point x="394" y="406" type="curve" smooth="yes"/>
      <point x="412" y="406"/>
      <point x="424" y="392"/>
      <point x="424" y="366" type="curve" smooth="yes"/>
      <point x="424" y="341"/>
      <point x="412" y="326"/>
    </contour>
  </outline>
</glyph>
<glyph name="bba_mon" format="2">
  <advance width="596"/>
  <unicode hex="105C"/>
  <note>
bba_mon
</note>
  <outline>
    <contour>
      <point x="302" y="-10" type="curve" smooth="yes"/>
      <point x="458" y="-10"/>
      <point x="561" y="106"/>
      <point x="561" y="273" type="curve" smooth="yes"/>
      <point x="561" y="436"/>
      <point x="459" y="558"/>
      <point x="300" y="558" type="curve" smooth="yes"/>
      <point x="142" y="558"/>
      <point x="35" y="440"/>
      <point x="35" y="274" type="curve" smooth="yes"/>
      <point x="35" y="107"/>
      <point x="144" y="-10"/>
    </contour>
    <contour>
      <point x="297" y="116" type="curve" smooth="yes"/>
      <point x="203" y="116"/>
      <point x="157" y="186"/>
      <point x="157" y="276" type="curve" smooth="yes"/>
      <point x="157" y="364"/>
      <point x="210" y="433"/>
      <point x="296" y="433" type="curve" smooth="yes"/>
      <point x="385" y="433"/>
      <point x="440" y="367"/>
      <point x="440" y="275" type="curve" smooth="yes"/>
      <point x="440" y="187"/>
      <point x="392" y="116"/>
    </contour>
    <contour>
      <point x="299" y="155" type="curve" smooth="yes"/>
      <point x="359" y="155"/>
      <point x="402" y="198"/>
      <point x="402" y="274" type="curve" smooth="yes"/>
      <point x="402" y="347"/>
      <point x="356" y="392"/>
      <point x="299" y="392" type="curve" smooth="yes"/>
      <point x="240" y="392"/>
      <point x="199" y="348"/>
      <point x="199" y="273" type="curve" smooth="yes"/>
      <point x="199" y="198"/>
      <point x="240" y="155"/>
    </contour>
    <contour>
      <point x="301" y="232" type="curve" smooth="yes"/>
      <point x="285" y="232"/>
      <point x="277" y="247"/>
      <point x="277" y="273" type="curve" smooth="yes"/>
      <point x="277" y="299"/>
      <point x="288" y="316"/>
      <point x="301" y="316" type="curve" smooth="yes"/>
      <point x="313" y="316"/>
      <point x="323" y="299"/>
      <point x="323" y="273" type="curve" smooth="yes"/>
      <point x="323" y="247"/>
      <point x="313" y="232"/>
    </contour>
  </outline>
</glyph>
<glyph name="bbe_mon" format="2">
  <advance width="569"/>
  <unicode hex="105D"/>
  <note>
bbe_mon
</note>
  <outline>
    <contour>
      <point x="209" y="-466" type="curve" smooth="yes"/>
      <point x="331" y="-466" type="line" smooth="yes"/>
      <point x="452" y="-466"/>
      <point x="509" y="-394"/>
      <point x="509" y="-250" type="curve" smooth="yes"/>
      <point x="509" y="159" type="line"/>
      <point x="350" y="9" type="line"/>
      <point x="350" y="-260" type="line" smooth="yes"/>
      <point x="350" y="-310"/>
      <point x="343" y="-332"/>
      <point x="311" y="-332" type="curve" smooth="yes"/>
      <point x="223" y="-332" type="line" smooth="yes"/>
      <point x="198" y="-332"/>
      <point x="186" y="-318"/>
      <point x="186" y="-299" type="curve" smooth="yes"/>
      <point x="186" y="-279"/>
      <point x="196" y="-267"/>
      <point x="216" y="-267" type="curve" smooth="yes"/>
      <point x="227" y="-267"/>
      <point x="239" y="-274"/>
      <point x="252" y="-285" type="curve"/>
      <point x="307" y="-180" type="line"/>
      <point x="279" y="-156"/>
      <point x="241" y="-139"/>
      <point x="178" y="-139" type="curve" smooth="yes"/>
      <point x="100" y="-139"/>
      <point x="33" y="-204"/>
      <point x="33" y="-299" type="curve" smooth="yes"/>
      <point x="33" y="-408"/>
      <point x="100" y="-466"/>
    </contour>
    <contour>
      <point x="190" y="164" type="line"/>
      <point x="214" y="182"/>
      <point x="238" y="196"/>
      <point x="286" y="196" type="curve" smooth="yes"/>
      <point x="332" y="196"/>
      <point x="349" y="185"/>
      <point x="385" y="166" type="curve"/>
      <point x="411" y="252" type="line"/>
      <point x="359" y="283"/>
      <point x="327" y="298"/>
      <point x="289" y="298" type="curve" smooth="yes"/>
      <point x="243" y="298"/>
      <point x="205" y="277"/>
      <point x="167" y="252" type="curve"/>
    </contour>
    <contour>
      <point x="284" y="-10" type="curve" smooth="yes"/>
      <point x="444" y="-10"/>
      <point x="536" y="104"/>
      <point x="536" y="272" type="curve" smooth="yes"/>
      <point x="536" y="414"/>
      <point x="483" y="509"/>
      <point x="413" y="558" type="curve"/>
      <point x="337" y="429" type="line"/>
      <point x="382" y="377"/>
      <point x="386" y="326"/>
      <point x="386" y="270" type="curve" smooth="yes"/>
      <point x="386" y="159"/>
      <point x="350" y="110"/>
      <point x="286" y="110" type="curve" smooth="yes"/>
      <point x="213" y="110"/>
      <point x="184" y="167"/>
      <point x="184" y="271" type="curve" smooth="yes"/>
      <point x="184" y="330"/>
      <point x="189" y="378"/>
      <point x="236" y="429" type="curve"/>
      <point x="160" y="558" type="line"/>
      <point x="87" y="509"/>
      <point x="33" y="413"/>
      <point x="33" y="272" type="curve" smooth="yes"/>
      <point x="33" y="103"/>
      <point x="125" y="-10"/>
    </contour>
  </outline>
</glyph>
<glyph name="_medialNa_mon" format="2">
  <unicode hex="105E"/>
  <note>
_medialNa_mon
</note>
  <outline>
    <contour>
      <point x="-311" y="-478" type="curve" smooth="yes"/>
      <point x="-198" y="-478"/>
      <point x="-161" y="-419"/>
      <point x="-161" y="-311" type="curve" smooth="yes"/>
      <point x="-161" y="-48" type="line"/>
      <point x="-290" y="-48" type="line"/>
      <point x="-290" y="-318" type="line" smooth="yes"/>
      <point x="-290" y="-348"/>
      <point x="-297" y="-364"/>
      <point x="-314" y="-364" type="curve" smooth="yes"/>
      <point x="-326" y="-364"/>
      <point x="-335" y="-354"/>
      <point x="-335" y="-333" type="curve" smooth="yes"/>
      <point x="-335" y="-301"/>
      <point x="-310" y="-274"/>
      <point x="-255" y="-274" type="curve" smooth="yes"/>
      <point x="-186" y="-274"/>
      <point x="-166" y="-294"/>
      <point x="-104" y="-336" type="curve"/>
      <point x="-42" y="-243" type="line"/>
      <point x="-125" y="-189"/>
      <point x="-170" y="-163"/>
      <point x="-256" y="-163" type="curve" smooth="yes"/>
      <point x="-382" y="-163"/>
      <point x="-461" y="-230"/>
      <point x="-461" y="-329" type="curve" smooth="yes"/>
      <point x="-461" y="-425"/>
      <point x="-407" y="-478"/>
    </contour>
  </outline>
</glyph>
<glyph name="_medialMa_mon" format="2">
  <unicode hex="105F"/>
  <note>
_medialMa_mon
</note>
  <outline>
    <contour>
      <point x="-265" y="-478" type="curve" smooth="yes"/>
      <point x="-197" y="-478"/>
      <point x="-108" y="-447"/>
      <point x="-53" y="-397" type="curve"/>
      <point x="-113" y="-306" type="line"/>
      <point x="-142" y="-327"/>
      <point x="-203" y="-365"/>
      <point x="-260" y="-365" type="curve" smooth="yes"/>
      <point x="-295" y="-365"/>
      <point x="-318" y="-350"/>
      <point x="-318" y="-321" type="curve" smooth="yes"/>
      <point x="-318" y="-295"/>
      <point x="-295" y="-275"/>
      <point x="-255" y="-275" type="curve" smooth="yes"/>
      <point x="-225" y="-275"/>
      <point x="-211" y="-278"/>
      <point x="-185" y="-282" type="curve"/>
      <point x="-185" y="-48" type="line"/>
      <point x="-314" y="-48" type="line"/>
      <point x="-314" y="-163" type="line"/>
      <point x="-399" y="-176"/>
      <point x="-447" y="-235"/>
      <point x="-447" y="-316" type="curve" smooth="yes"/>
      <point x="-447" y="-421"/>
      <point x="-382" y="-478"/>
    </contour>
  </outline>
</glyph>
<glyph name="_medialLa_mon" format="2">
  <unicode hex="1060"/>
  <note>
_medialLa_mon
</note>
  <outline>
    <contour>
      <point x="-465" y="-466" type="line"/>
      <point x="-104" y="-466" type="line"/>
      <point x="-104" y="-310" type="line"/>
      <point x="-192" y="-310" type="line"/>
      <point x="-83" y="-47" type="line"/>
      <point x="-280" y="-47" type="line"/>
    </contour>
  </outline>
</glyph>
<glyph name="sha_skn" format="2">
  <advance width="631"/>
  <unicode hex="1061"/>
  <note>
sha_skn
</note>
  <outline>
    <contour>
      <point x="422" y="-465" type="line"/>
      <point x="586" y="-465" type="line"/>
      <point x="586" y="269" type="line" smooth="yes"/>
      <point x="586" y="423"/>
      <point x="497" y="558"/>
      <point x="312" y="558" type="curve" smooth="yes"/>
      <point x="130" y="558"/>
      <point x="35" y="432"/>
      <point x="35" y="274" type="curve" smooth="yes"/>
      <point x="35" y="111"/>
      <point x="111" y="-10"/>
      <point x="281" y="-10" type="curve" smooth="yes"/>
      <point x="317" y="-10"/>
      <point x="338" y="-2"/>
      <point x="360" y="6" type="curve"/>
      <point x="360" y="197"/>
      <point x="317" y="307"/>
      <point x="153" y="349" type="curve"/>
      <point x="144" y="256" type="line"/>
      <point x="210" y="246"/>
      <point x="253" y="179"/>
      <point x="257" y="74" type="curve"/>
      <point x="292" y="108" type="line"/>
      <point x="283" y="108"/>
      <point x="272" y="108"/>
      <point x="264" y="108" type="curve" smooth="yes"/>
      <point x="201" y="108"/>
      <point x="157" y="174"/>
      <point x="157" y="266" type="curve" smooth="yes"/>
      <point x="157" y="347"/>
      <point x="192" y="423"/>
      <point x="294" y="423" type="curve" smooth="yes"/>
      <point x="382" y="423"/>
      <point x="422" y="347"/>
      <point x="422" y="266" type="curve" smooth="yes"/>
    </contour>
    <contour>
      <point x="124" y="-466" type="line"/>
      <point x="360" y="-466" type="line"/>
      <point x="360" y="7" type="line"/>
      <point x="196" y="7" type="line"/>
      <point x="196" y="-331" type="line"/>
      <point x="124" y="-331" type="line"/>
    </contour>
  </outline>
</glyph>
<glyph name="eu_skn" format="2">
  <advance width="281"/>
  <unicode hex="1062"/>
  <note>
eu_skn
</note>
  <outline>
    <contour>
      <point x="65" y="0" type="line"/>
      <point x="229" y="0" type="line"/>
      <point x="229" y="553" type="line"/>
      <point x="-13" y="553" type="line"/>
      <point x="-13" y="397" type="line"/>
      <point x="65" y="397" type="line"/>
    </contour>
  </outline>
</glyph>
<glyph name="hathi_skn" format="2">
  <advance width="550"/>
  <unicode hex="1063"/>
  <note>
hathi_skn
</note>
  <outline>
    <contour>
      <point x="45" y="-478" type="line"/>
      <point x="209" y="-478" type="line"/>
      <point x="209" y="19" type="line"/>
      <point x="45" y="128" type="line"/>
    </contour>
    <contour>
      <point x="279" y="-9" type="curve" smooth="yes"/>
      <point x="419" y="-9"/>
      <point x="515" y="116"/>
      <point x="515" y="274" type="curve" smooth="yes"/>
      <point x="515" y="437"/>
      <point x="424" y="558"/>
      <point x="265" y="558" type="curve" smooth="yes"/>
      <point x="164" y="558"/>
      <point x="97" y="501"/>
      <point x="64" y="431" type="curve"/>
      <point x="169" y="362" type="line"/>
      <point x="192" y="405"/>
      <point x="222" y="423"/>
      <point x="259" y="423" type="curve" smooth="yes"/>
      <point x="315" y="423"/>
      <point x="353" y="362"/>
      <point x="353" y="274" type="curve" smooth="yes"/>
      <point x="353" y="182"/>
      <point x="314" y="126"/>
      <point x="250" y="126" type="curve" smooth="yes"/>
      <point x="210" y="126"/>
      <point x="187" y="151"/>
      <point x="165" y="193" type="curve"/>
      <point x="45" y="128" type="line"/>
      <point x="84" y="49"/>
      <point x="195" y="-9"/>
    </contour>
  </outline>
</glyph>
<glyph name="kepho_skn" format="2">
  <advance width="352"/>
  <unicode hex="1064"/>
  <note>
kepho_skn
</note>
  <outline>
    <contour>
      <point x="95" y="0" type="line"/>
      <point x="336" y="0" type="line"/>
      <point x="336" y="135" type="line"/>
      <point x="259" y="135" type="line"/>
      <point x="259" y="553" type="line"/>
      <point x="17" y="553" type="line"/>
      <point x="17" y="418" type="line"/>
      <point x="95" y="418" type="line"/>
    </contour>
  </outline>
</glyph>
<glyph name="tha_wpk" format="2">
  <advance width="574"/>
  <unicode hex="1065"/>
  <note>
tha_wpk
</note>
  <outline>
    <contour>
      <point x="279" y="-10" type="curve" smooth="yes"/>
      <point x="427" y="-10"/>
      <point x="539" y="84"/>
      <point x="539" y="274" type="curve" smooth="yes"/>
      <point x="539" y="456"/>
      <point x="432" y="558"/>
      <point x="279" y="558" type="curve" smooth="yes"/>
      <point x="179" y="558"/>
      <point x="100" y="509"/>
      <point x="64" y="431" type="curve"/>
      <point x="174" y="362" type="line"/>
      <point x="209" y="414"/>
      <point x="239" y="430"/>
      <point x="278" y="430" type="curve" smooth="yes"/>
      <point x="335" y="430"/>
      <point x="377" y="375"/>
      <point x="377" y="274" type="curve" smooth="yes"/>
      <point x="377" y="170"/>
      <point x="339" y="118"/>
      <point x="270" y="118" type="curve" smooth="yes"/>
      <point x="227" y="118"/>
      <point x="197" y="144"/>
      <point x="171" y="192" type="curve"/>
      <point x="45" y="127" type="line"/>
      <point x="82" y="51"/>
      <point x="162" y="-10"/>
    </contour>
  </outline>
</glyph>
<glyph name="pwa_wpk" format="2">
  <advance width="566"/>
  <unicode hex="1066"/>
  <note>
pwa_wpk
</note>
  <outline>
    <contour>
      <point x="283" y="-10" type="curve" smooth="yes"/>
      <point x="438" y="-10"/>
      <point x="531" y="102"/>
      <point x="531" y="272" type="curve" smooth="yes"/>
      <point x="531" y="414"/>
      <point x="479" y="509"/>
      <point x="405" y="558" type="curve"/>
      <point x="330" y="429" type="line"/>
      <point x="367" y="378"/>
      <point x="370" y="328"/>
      <point x="370" y="272" type="curve" smooth="yes"/>
      <point x="370" y="183"/>
      <point x="341" y="125"/>
      <point x="285" y="125" type="curve" smooth="yes"/>
      <point x="221" y="125"/>
      <point x="197" y="186"/>
      <point x="197" y="272" type="curve" smooth="yes"/>
      <point x="197" y="331"/>
      <point x="199" y="378"/>
      <point x="236" y="429" type="curve"/>
      <point x="161" y="558" type="line"/>
      <point x="86" y="509"/>
      <point x="35" y="413"/>
      <point x="35" y="272" type="curve" smooth="yes"/>
      <point x="35" y="102"/>
      <point x="127" y="-10"/>
    </contour>
    <contour>
      <point x="137" y="-466" type="line"/>
      <point x="375" y="-466" type="line"/>
      <point x="375" y="17" type="line"/>
      <point x="211" y="13" type="line"/>
      <point x="211" y="-310" type="line"/>
      <point x="137" y="-310" type="line"/>
    </contour>
  </outline>
</glyph>
<glyph name="eu_wpk" format="2">
  <advance width="354"/>
  <unicode hex="1067"/>
  <note>
eu_wpk
</note>
  <outline>
    <contour>
      <point x="154" y="-10" type="curve" smooth="yes"/>
      <point x="243" y="-10"/>
      <point x="303" y="47"/>
      <point x="303" y="151" type="curve" smooth="yes"/>
      <point x="303" y="250"/>
      <point x="244" y="309"/>
      <point x="154" y="309" type="curve" smooth="yes"/>
      <point x="64" y="309"/>
      <point x="5" y="250"/>
      <point x="5" y="151" type="curve" smooth="yes"/>
      <point x="5" y="47"/>
      <point x="65" y="-10"/>
    </contour>
    <contour>
      <point x="154" y="96" type="curve" smooth="yes"/>
      <point x="133" y="96"/>
      <point x="123" y="119"/>
      <point x="123" y="151" type="curve" smooth="yes"/>
      <point x="123" y="185"/>
      <point x="136" y="202"/>
      <point x="154" y="202" type="curve" smooth="yes"/>
      <point x="172" y="202"/>
      <point x="185" y="185"/>
      <point x="185" y="151" type="curve" smooth="yes"/>
      <point x="185" y="119"/>
      <point x="175" y="96"/>
    </contour>
    <contour>
      <point x="303" y="151" type="line"/>
      <point x="303" y="548" type="line"/>
      <point x="151" y="548" type="line"/>
      <point x="151" y="305" type="line"/>
    </contour>
  </outline>
</glyph>
<glyph name="ue_wpk" format="2">
  <advance width="359"/>
  <unicode hex="1068"/>
  <note>
ue_wpk
</note>
  <outline>
    <contour>
      <point x="17" y="0" type="line"/>
      <point x="257" y="0" type="line"/>
      <point x="257" y="553" type="line"/>
      <point x="93" y="553" type="line"/>
      <point x="93" y="135" type="line"/>
      <point x="17" y="135" type="line"/>
    </contour>
    <contour>
      <point x="174" y="637" type="curve" smooth="yes"/>
      <point x="241" y="637"/>
      <point x="288" y="681"/>
      <point x="288" y="759" type="curve" smooth="yes"/>
      <point x="288" y="828"/>
      <point x="244" y="878"/>
      <point x="174" y="878" type="curve" smooth="yes"/>
      <point x="103" y="878"/>
      <point x="62" y="832"/>
      <point x="62" y="758" type="curve" smooth="yes"/>
      <point x="62" y="681"/>
      <point x="107" y="637"/>
    </contour>
    <contour>
      <point x="176" y="717" type="curve" smooth="yes"/>
      <point x="158" y="717"/>
      <point x="152" y="733"/>
      <point x="152" y="758" type="curve" smooth="yes"/>
      <point x="152" y="784"/>
      <point x="162" y="797"/>
      <point x="176" y="797" type="curve" smooth="yes"/>
      <point x="189" y="797"/>
      <point x="199" y="784"/>
      <point x="199" y="758" type="curve" smooth="yes"/>
      <point x="199" y="733"/>
      <point x="189" y="717"/>
    </contour>
  </outline>
</glyph>
<glyph name="tone1_wpk" format="2">
  <advance width="382"/>
  <unicode hex="1069"/>
  <note>
tone1_wpk
</note>
  <outline>
    <contour>
      <point x="181" y="-10" type="curve" smooth="yes"/>
      <point x="249" y="-10"/>
      <point x="304" y="17"/>
      <point x="366" y="84" type="curve"/>
      <point x="281" y="171" type="line"/>
      <point x="262" y="152"/>
      <point x="235" y="126"/>
      <point x="211" y="126" type="curve" smooth="yes"/>
      <point x="195" y="126"/>
      <point x="186" y="136"/>
      <point x="186" y="152" type="curve" smooth="yes"/>
      <point x="186" y="173"/>
      <point x="201" y="195"/>
      <point x="219" y="215" type="curve" smooth="yes"/>
      <point x="303" y="305"/>
      <point x="330" y="352"/>
      <point x="330" y="418" type="curve" smooth="yes"/>
      <point x="330" y="499"/>
      <point x="275" y="558"/>
      <point x="185" y="558" type="curve" smooth="yes"/>
      <point x="109" y="558"/>
      <point x="61" y="527"/>
      <point x="27" y="493" type="curve"/>
      <point x="100" y="393" type="line"/>
      <point x="116" y="412"/>
      <point x="132" y="422"/>
      <point x="145" y="422" type="curve" smooth="yes"/>
      <point x="162" y="422"/>
      <point x="170" y="412"/>
      <point x="170" y="399" type="curve" smooth="yes"/>
      <point x="170" y="386"/>
      <point x="167" y="373"/>
      <point x="138" y="342" type="curve" smooth="yes"/>
      <point x="56" y="252"/>
      <point x="26" y="213"/>
      <point x="26" y="136" type="curve" smooth="yes"/>
      <point x="26" y="61"/>
      <point x="77" y="-10"/>
    </contour>
  </outline>
</glyph>
<glyph name="tone2_wpk" format="2">
  <advance width="383"/>
  <unicode hex="106A"/>
  <note>
tone2_wpk
</note>
  <outline>
    <contour>
      <point x="167" y="-10" type="curve" smooth="yes"/>
      <point x="284" y="-10"/>
      <point x="332" y="59"/>
      <point x="332" y="172" type="curve" smooth="yes"/>
      <point x="332" y="553" type="line"/>
      <point x="189" y="553" type="line"/>
      <point x="189" y="177" type="line" smooth="yes"/>
      <point x="189" y="151"/>
      <point x="184" y="130"/>
      <point x="167" y="130" type="curve" smooth="yes"/>
      <point x="150" y="130"/>
      <point x="144" y="155"/>
      <point x="144" y="208" type="curve"/>
      <point x="-6" y="208" type="line"/>
      <point x="-6" y="69"/>
      <point x="44" y="-10"/>
    </contour>
  </outline>
</glyph>
<glyph name="tone3_wpk" format="2">
  <advance width="383"/>
  <unicode hex="106B"/>
  <note>
tone3_wpk
</note>
  <outline>
    <contour>
      <point x="189" y="0" type="line"/>
      <point x="332" y="0" type="line"/>
      <point x="332" y="381" type="line" smooth="yes"/>
      <point x="332" y="494"/>
      <point x="284" y="563"/>
      <point x="167" y="563" type="curve" smooth="yes"/>
      <point x="44" y="563"/>
      <point x="-6" y="484"/>
      <point x="-6" y="345" type="curve"/>
      <point x="144" y="345" type="line"/>
      <point x="144" y="398"/>
      <point x="150" y="423"/>
      <point x="167" y="423" type="curve" smooth="yes"/>
      <point x="184" y="423"/>
      <point x="189" y="402"/>
      <point x="189" y="376" type="curve" smooth="yes"/>
    </contour>
  </outline>
</glyph>
<glyph name="tone4_wpk" format="2">
  <advance width="383"/>
  <unicode hex="106C"/>
  <note>
tone4_wpk
</note>
  <outline>
    <contour>
      <point x="216" y="-10" type="curve" smooth="yes"/>
      <point x="339" y="-10"/>
      <point x="389" y="69"/>
      <point x="389" y="208" type="curve"/>
      <point x="239" y="208" type="line"/>
      <point x="239" y="155"/>
      <point x="233" y="130"/>
      <point x="216" y="130" type="curve" smooth="yes"/>
      <point x="199" y="130"/>
      <point x="194" y="151"/>
      <point x="194" y="177" type="curve" smooth="yes"/>
      <point x="194" y="553" type="line"/>
      <point x="51" y="553" type="line"/>
      <point x="51" y="172" type="line" smooth="yes"/>
      <point x="51" y="59"/>
      <point x="99" y="-10"/>
    </contour>
  </outline>
</glyph>
<glyph name="tone5_wpk" format="2">
  <advance width="382"/>
  <unicode hex="106D"/>
  <note>
tone5_wpk
</note>
  <outline>
    <contour>
      <point x="201" y="-10" type="curve" smooth="yes"/>
      <point x="305" y="-10"/>
      <point x="356" y="61"/>
      <point x="356" y="136" type="curve" smooth="yes"/>
      <point x="356" y="213"/>
      <point x="326" y="252"/>
      <point x="244" y="342" type="curve" smooth="yes"/>
      <point x="215" y="373"/>
      <point x="212" y="386"/>
      <point x="212" y="399" type="curve" smooth="yes"/>
      <point x="212" y="412"/>
      <point x="220" y="422"/>
      <point x="237" y="422" type="curve" smooth="yes"/>
      <point x="250" y="422"/>
      <point x="266" y="412"/>
      <point x="282" y="393" type="curve"/>
      <point x="355" y="493" type="line"/>
      <point x="321" y="527"/>
      <point x="273" y="558"/>
      <point x="197" y="558" type="curve" smooth="yes"/>
      <point x="107" y="558"/>
      <point x="52" y="499"/>
      <point x="52" y="418" type="curve" smooth="yes"/>
      <point x="52" y="352"/>
      <point x="79" y="305"/>
      <point x="163" y="215" type="curve" smooth="yes"/>
      <point x="181" y="195"/>
      <point x="196" y="173"/>
      <point x="196" y="152" type="curve" smooth="yes"/>
      <point x="196" y="136"/>
      <point x="187" y="126"/>
      <point x="171" y="126" type="curve" smooth="yes"/>
      <point x="147" y="126"/>
      <point x="120" y="152"/>
      <point x="101" y="171" type="curve"/>
      <point x="16" y="84" type="line"/>
      <point x="78" y="17"/>
      <point x="133" y="-10"/>
    </contour>
  </outline>
</glyph>
<glyph name="nna_epk" format="2">
  <advance width="1139"/>
  <unicode hex="106E"/>
  <note>
nna_epk
</note>
  <outline>
    <contour>
      <point x="159" y="-10" type="curve"/>
      <point x="235" y="126" type="line"/>
      <point x="201" y="175"/>
      <point x="199" y="220"/>
      <point x="199" y="276" type="curve" smooth="yes"/>
      <point x="199" y="363"/>
      <point x="230" y="423"/>
      <point x="282" y="423" type="curve" smooth="yes"/>
      <point x="338" y="423"/>
      <point x="362" y="355"/>
      <point x="362" y="276" type="curve" smooth="yes"/>
      <point x="362" y="222"/>
      <point x="355" y="169"/>
      <point x="306" y="126" type="curve"/>
      <point x="381" y="-10" type="line"/>
      <point x="467" y="44"/>
      <point x="503" y="144"/>
      <point x="503" y="276" type="curve" smooth="yes"/>
      <point x="503" y="450"/>
      <point x="425" y="558"/>
      <point x="272" y="558" type="curve" smooth="yes"/>
      <point x="124" y="558"/>
      <point x="35" y="443"/>
      <point x="35" y="276" type="curve" smooth="yes"/>
      <point x="35" y="135"/>
      <point x="86" y="39"/>
    </contour>
    <contour>
      <point x="650" y="-10" type="line"/>
      <point x="736" y="44"/>
      <point x="772" y="144"/>
      <point x="772" y="276" type="curve" smooth="yes"/>
      <point x="772" y="450"/>
      <point x="694" y="558"/>
      <point x="541" y="558" type="curve" smooth="yes"/>
      <point x="464" y="558"/>
      <point x="412" y="519"/>
      <point x="377" y="463" type="curve"/>
      <point x="468" y="276" type="line"/>
      <point x="468" y="363"/>
      <point x="499" y="423"/>
      <point x="551" y="423" type="curve" smooth="yes"/>
      <point x="607" y="423"/>
      <point x="631" y="355"/>
      <point x="631" y="276" type="curve" smooth="yes"/>
      <point x="631" y="222"/>
      <point x="624" y="169"/>
      <point x="575" y="126" type="curve"/>
    </contour>
    <contour>
      <point x="894" y="-10" type="curve" smooth="yes"/>
      <point x="1008" y="-10"/>
      <point x="1104" y="110"/>
      <point x="1104" y="274" type="curve" smooth="yes"/>
      <point x="1104" y="441"/>
      <point x="999" y="558"/>
      <point x="859" y="558" type="curve" smooth="yes"/>
      <point x="799" y="558"/>
      <point x="738" y="528"/>
      <point x="699" y="462" type="curve"/>
      <point x="768" y="329" type="line"/>
      <point x="768" y="376"/>
      <point x="794" y="423"/>
      <point x="847" y="423" type="curve" smooth="yes"/>
      <point x="897" y="423"/>
      <point x="940" y="367"/>
      <point x="940" y="274" type="curve" smooth="yes"/>
      <point x="940" y="189"/>
      <point x="919" y="133"/>
      <point x="882" y="133" type="curve" smooth="yes"/>
      <point x="863" y="133"/>
      <point x="854" y="138"/>
      <point x="834" y="148" type="curve"/>
      <point x="782" y="23" type="line"/>
      <point x="807" y="-1"/>
      <point x="866" y="-10"/>
    </contour>
  </outline>
</glyph>
<glyph name="i_gkn" format="2">
  <unicode hex="1071"/>
  <note>
i_gkn
</note>
  <outline>
    <contour>
      <point x="-137" y="699" type="curve" smooth="yes"/>
      <point x="-69" y="699"/>
      <point x="-22" y="742"/>
      <point x="-22" y="821" type="curve" smooth="yes"/>
      <point x="-22" y="890"/>
      <point x="-66" y="940"/>
      <point x="-137" y="940" type="curve" smooth="yes"/>
      <point x="-207" y="940"/>
      <point x="-249" y="894"/>
      <point x="-249" y="820" type="curve" smooth="yes"/>
      <point x="-249" y="743"/>
      <point x="-204" y="699"/>
    </contour>
    <contour>
      <point x="-135" y="779" type="curve" smooth="yes"/>
      <point x="-151" y="779"/>
      <point x="-159" y="796"/>
      <point x="-159" y="820" type="curve" smooth="yes"/>
      <point x="-159" y="846"/>
      <point x="-149" y="859"/>
      <point x="-135" y="859" type="curve" smooth="yes"/>
      <point x="-121" y="859"/>
      <point x="-112" y="846"/>
      <point x="-112" y="820" type="curve" smooth="yes"/>
      <point x="-112" y="796"/>
      <point x="-122" y="779"/>
    </contour>
    <contour>
      <point x="-456" y="699" type="curve" smooth="yes"/>
      <point x="-388" y="699"/>
      <point x="-341" y="742"/>
      <point x="-341" y="821" type="curve" smooth="yes"/>
      <point x="-341" y="890"/>
      <point x="-385" y="940"/>
      <point x="-456" y="940" type="curve" smooth="yes"/>
      <point x="-526" y="940"/>
      <point x="-568" y="894"/>
      <point x="-568" y="820" type="curve" smooth="yes"/>
      <point x="-568" y="743"/>
      <point x="-523" y="699"/>
    </contour>
    <contour>
      <point x="-454" y="779" type="curve" smooth="yes"/>
      <point x="-470" y="779"/>
      <point x="-478" y="796"/>
      <point x="-478" y="820" type="curve" smooth="yes"/>
      <point x="-478" y="846"/>
      <point x="-468" y="859"/>
      <point x="-454" y="859" type="curve" smooth="yes"/>
      <point x="-440" y="859"/>
      <point x="-431" y="846"/>
      <point x="-431" y="820" type="curve" smooth="yes"/>
      <point x="-431" y="796"/>
      <point x="-441" y="779"/>
    </contour>
  </outline>
</glyph>
<glyph name="oe_kyh" format="2">
  <unicode hex="1072"/>
  <note>
oe_kyh
</note>
  <outline>
    <contour>
      <point x="-240" y="625" type="curve" smooth="yes"/>
      <point x="-166" y="625"/>
      <point x="-121" y="664"/>
      <point x="-101" y="716" type="curve"/>
      <point x="-196" y="766" type="line"/>
      <point x="-204" y="754"/>
      <point x="-215" y="736"/>
      <point x="-238" y="736" type="curve" smooth="yes"/>
      <point x="-267" y="736"/>
      <point x="-281" y="772"/>
      <point x="-281" y="816" type="curve" smooth="yes"/>
      <point x="-281" y="861"/>
      <point x="-267" y="898"/>
      <point x="-238" y="898" type="curve" smooth="yes"/>
      <point x="-223" y="898"/>
      <point x="-213" y="890"/>
      <point x="-202" y="863" type="curve"/>
      <point x="-112" y="920" type="line"/>
      <point x="-129" y="972"/>
      <point x="-181" y="1008"/>
      <point x="-242" y="1008" type="curve" smooth="yes"/>
      <point x="-334" y="1008"/>
      <point x="-401" y="931"/>
      <point x="-401" y="816" type="curve" smooth="yes"/>
      <point x="-401" y="702"/>
      <point x="-343" y="625"/>
    </contour>
  </outline>
</glyph>
<glyph name="u_kyh" format="2">
  <unicode hex="1073"/>
  <note>
u_kyh
</note>
  <outline>
    <contour>
      <point x="-376" y="624" type="line"/>
      <point x="-220" y="811" type="line"/>
      <point x="-65" y="624" type="line"/>
      <point x="10" y="711" type="line"/>
      <point x="-220" y="991" type="line"/>
      <point x="-450" y="711" type="line"/>
    </contour>
  </outline>
</glyph>
<glyph name="ee_kyh" format="2">
  <unicode hex="1074"/>
  <note>
ee_kyh
</note>
  <outline>
    <contour>
      <point x="-220" y="624" type="line"/>
      <point x="10" y="904" type="line"/>
      <point x="-65" y="991" type="line"/>
      <point x="-220" y="804" type="line"/>
      <point x="-376" y="991" type="line"/>
      <point x="-450" y="904" type="line"/>
    </contour>
  </outline>
</glyph>
<glyph name="ka_shn" format="2">
  <advance width="571"/>
  <unicode hex="1075"/>
  <note>
ka_shn
</note>
  <outline>
    <contour>
      <point x="164" y="-10" type="curve" smooth="yes"/>
      <point x="250" y="-10"/>
      <point x="297" y="44"/>
      <point x="297" y="121" type="curve" smooth="yes"/>
      <point x="297" y="179"/>
      <point x="263" y="218"/>
      <point x="232" y="259" type="curve" smooth="yes"/>
      <point x="212" y="285"/>
      <point x="201" y="310"/>
      <point x="201" y="343" type="curve" smooth="yes"/>
      <point x="201" y="390"/>
      <point x="227" y="424"/>
      <point x="279" y="424" type="curve" smooth="yes"/>
      <point x="339" y="424"/>
      <point x="374" y="366"/>
      <point x="374" y="277" type="curve" smooth="yes"/>
      <point x="374" y="221"/>
      <point x="373" y="171"/>
      <point x="336" y="120" type="curve"/>
      <point x="412" y="-9" type="line"/>
      <point x="483" y="40"/>
      <point x="536" y="135"/>
      <point x="536" y="277" type="curve" smooth="yes"/>
      <point x="536" y="445"/>
      <point x="448" y="559"/>
      <point x="276" y="559" type="curve" smooth="yes"/>
      <point x="115" y="559"/>
      <point x="39" y="472"/>
      <point x="39" y="354" type="curve" smooth="yes"/>
      <point x="39" y="293"/>
      <point x="59" y="248"/>
      <point x="96" y="210" type="curve" smooth="yes"/>
      <point x="130" y="175"/>
      <point x="154" y="163"/>
      <point x="154" y="144" type="curve" smooth="yes"/>
      <point x="154" y="131"/>
      <point x="145" y="125"/>
      <point x="133" y="125" type="curve" smooth="yes"/>
      <point x="116" y="125"/>
      <point x="99" y="140"/>
      <point x="89" y="156" type="curve"/>
      <point x="18" y="78" type="line"/>
      <point x="42" y="26"/>
      <point x="94" y="-10"/>
    </contour>
  </outline>
</glyph>
<glyph name="kha_shn" format="2">
  <advance width="575"/>
  <unicode hex="1076"/>
  <note>
kha_shn
</note>
  <outline>
    <contour>
      <point x="272" y="-10" type="curve" smooth="yes"/>
      <point x="422" y="-10"/>
      <point x="540" y="79"/>
      <point x="540" y="274" type="curve" smooth="yes"/>
      <point x="540" y="431"/>
      <point x="473" y="558"/>
      <point x="325" y="558" type="curve" smooth="yes"/>
      <point x="255" y="558"/>
      <point x="222" y="528"/>
      <point x="190" y="477" type="curve" smooth="yes"/>
      <point x="172" y="448"/>
      <point x="163" y="433"/>
      <point x="147" y="433" type="curve" smooth="yes"/>
      <point x="137" y="433"/>
      <point x="132" y="442"/>
      <point x="132" y="456" type="curve" smooth="yes"/>
      <point x="132" y="467"/>
      <point x="134" y="481"/>
      <point x="142" y="493" type="curve"/>
      <point x="72" y="558" type="line"/>
      <point x="49" y="530"/>
      <point x="36" y="487"/>
      <point x="36" y="452" type="curve" smooth="yes"/>
      <point x="36" y="385"/>
      <point x="71" y="333"/>
      <point x="139" y="333" type="curve" smooth="yes"/>
      <point x="174" y="333"/>
      <point x="201" y="349"/>
      <point x="221" y="376" type="curve" smooth="yes"/>
      <point x="243" y="406"/>
      <point x="262" y="424"/>
      <point x="292" y="424" type="curve" smooth="yes"/>
      <point x="358" y="424"/>
      <point x="378" y="356"/>
      <point x="378" y="274" type="curve" smooth="yes"/>
      <point x="378" y="177"/>
      <point x="342" y="125"/>
      <point x="277" y="125" type="curve" smooth="yes"/>
      <point x="231" y="125"/>
      <point x="197" y="142"/>
      <point x="182" y="163" type="curve"/>
      <point x="209" y="185"/>
      <point x="227" y="196"/>
      <point x="260" y="196" type="curve" smooth="yes"/>
      <point x="295" y="196"/>
      <point x="339" y="182"/>
      <point x="384" y="160" type="curve"/>
      <point x="399" y="264" type="line"/>
      <point x="331" y="288"/>
      <point x="287" y="299"/>
      <point x="252" y="299" type="curve" smooth="yes"/>
      <point x="176" y="299"/>
      <point x="113" y="273"/>
      <point x="36" y="223" type="curve"/>
      <point x="42" y="92"/>
      <point x="128" y="-10"/>
    </contour>
  </outline>
</glyph>
<glyph name="ga_shn" format="2">
  <advance width="582"/>
  <unicode hex="1077"/>
  <note>
ga_shn
</note>
  <outline>
    <contour>
      <point x="154" y="-10" type="curve" smooth="yes"/>
      <point x="229" y="-10"/>
      <point x="270" y="44"/>
      <point x="270" y="121" type="curve" smooth="yes"/>
      <point x="270" y="179"/>
      <point x="247" y="216"/>
      <point x="225" y="255" type="curve" smooth="yes"/>
      <point x="210" y="282"/>
      <point x="201" y="310"/>
      <point x="201" y="343" type="curve" smooth="yes"/>
      <point x="201" y="390"/>
      <point x="227" y="424"/>
      <point x="286" y="424" type="curve" smooth="yes"/>
      <point x="356" y="424"/>
      <point x="406" y="354"/>
      <point x="406" y="269" type="curve" smooth="yes"/>
      <point x="406" y="221"/>
      <point x="399" y="183"/>
      <point x="370" y="142" type="curve"/>
      <point x="359" y="175"/>
      <point x="356" y="208"/>
      <point x="356" y="269" type="curve" smooth="yes"/>
      <point x="356" y="313"/>
      <point x="364" y="359"/>
      <point x="373" y="402" type="curve"/>
      <point x="299" y="446" type="line"/>
      <point x="283" y="370"/>
      <point x="280" y="326"/>
      <point x="280" y="269" type="curve" smooth="yes"/>
      <point x="280" y="144"/>
      <point x="327" y="63"/>
      <point x="382" y="-10" type="curve"/>
      <point x="480" y="36"/>
      <point x="547" y="141"/>
      <point x="547" y="276" type="curve" smooth="yes"/>
      <point x="547" y="446"/>
      <point x="453" y="559"/>
      <point x="276" y="559" type="curve" smooth="yes"/>
      <point x="115" y="559"/>
      <point x="39" y="472"/>
      <point x="39" y="354" type="curve" smooth="yes"/>
      <point x="39" y="293"/>
      <point x="61" y="244"/>
      <point x="96" y="204" type="curve" smooth="yes"/>
      <point x="123" y="173"/>
      <point x="134" y="163"/>
      <point x="134" y="142" type="curve" smooth="yes"/>
      <point x="134" y="131"/>
      <point x="129" y="125"/>
      <point x="120" y="125" type="curve" smooth="yes"/>
      <point x="107" y="125"/>
      <point x="97" y="140"/>
      <point x="89" y="156" type="curve"/>
      <point x="18" y="78" type="line"/>
      <point x="40" y="26"/>
      <point x="89" y="-10"/>
    </contour>
  </outline>
</glyph>
<glyph name="za_shn" format="2">
  <advance width="868"/>
  <unicode hex="1079"/>
  <note>
za_shn
</note>
  <outline>
    <contour>
      <point x="280" y="-10" type="curve" smooth="yes"/>
      <point x="316" y="-10"/>
      <point x="337" y="-2"/>
      <point x="359" y="6" type="curve"/>
      <point x="355" y="197"/>
      <point x="316" y="307"/>
      <point x="152" y="349" type="curve"/>
      <point x="143" y="256" type="line"/>
      <point x="209" y="246"/>
      <point x="252" y="179"/>
      <point x="256" y="74" type="curve"/>
      <point x="291" y="108" type="line"/>
      <point x="282" y="108"/>
      <point x="271" y="108"/>
      <point x="263" y="108" type="curve" smooth="yes"/>
      <point x="200" y="108"/>
      <point x="156" y="174"/>
      <point x="156" y="266" type="curve" smooth="yes"/>
      <point x="156" y="348"/>
      <point x="187" y="423"/>
      <point x="270" y="423" type="curve" smooth="yes"/>
      <point x="333" y="423"/>
      <point x="364" y="381"/>
      <point x="383" y="337" type="curve"/>
      <point x="449" y="472" type="line"/>
      <point x="411" y="514"/>
      <point x="362" y="558"/>
      <point x="267" y="558" type="curve" smooth="yes"/>
      <point x="120" y="558"/>
      <point x="35" y="452"/>
      <point x="35" y="275" type="curve" smooth="yes"/>
      <point x="35" y="112"/>
      <point x="110" y="-10"/>
    </contour>
    <contour>
      <point x="596" y="-10" type="curve" smooth="yes"/>
      <point x="734" y="-10"/>
      <point x="833" y="104"/>
      <point x="833" y="274" type="curve" smooth="yes"/>
      <point x="833" y="444"/>
      <point x="735" y="558"/>
      <point x="591" y="558" type="curve" smooth="yes"/>
      <point x="436" y="558"/>
      <point x="370" y="436"/>
      <point x="370" y="275" type="curve" smooth="yes"/>
      <point x="370" y="106"/>
      <point x="436" y="-10"/>
    </contour>
    <contour>
      <point x="589" y="125" type="curve" smooth="yes"/>
      <point x="529" y="125"/>
      <point x="509" y="198"/>
      <point x="509" y="274" type="curve" smooth="yes"/>
      <point x="509" y="367"/>
      <point x="531" y="423"/>
      <point x="590" y="423" type="curve" smooth="yes"/>
      <point x="645" y="423"/>
      <point x="671" y="363"/>
      <point x="671" y="274" type="curve" smooth="yes"/>
      <point x="671" y="180"/>
      <point x="643" y="125"/>
    </contour>
  </outline>
</glyph>
<glyph name="nya_shn" format="2">
  <advance width="901"/>
  <unicode hex="107A"/>
  <note>
nya_shn
</note>
  <outline>
    <contour>
      <point x="257" y="-10" type="curve" smooth="yes"/>
      <point x="284" y="-10"/>
      <point x="335" y="-1"/>
      <point x="359" y="23" type="curve"/>
      <point x="315" y="141" type="line"/>
      <point x="295" y="130"/>
      <point x="285" y="126"/>
      <point x="261" y="126" type="curve" smooth="yes"/>
      <point x="222" y="126"/>
      <point x="197" y="183"/>
      <point x="197" y="274" type="curve" smooth="yes"/>
      <point x="197" y="356"/>
      <point x="234" y="421"/>
      <point x="293" y="421" type="curve" smooth="yes"/>
      <point x="342" y="421"/>
      <point x="374" y="373"/>
      <point x="374" y="274" type="curve" smooth="yes"/>
      <point x="374" y="131"/>
      <point x="501" y="-9"/>
      <point x="640" y="-9" type="curve" smooth="yes"/>
      <point x="788" y="-9"/>
      <point x="866" y="116"/>
      <point x="866" y="274" type="curve" smooth="yes"/>
      <point x="866" y="456"/>
      <point x="794" y="558"/>
      <point x="648" y="558" type="curve" smooth="yes"/>
      <point x="618" y="558"/>
      <point x="558" y="548"/>
      <point x="527" y="525" type="curve"/>
      <point x="582" y="406" type="line"/>
      <point x="602" y="417"/>
      <point x="615" y="422"/>
      <point x="635" y="422" type="curve" smooth="yes"/>
      <point x="684" y="422"/>
      <point x="705" y="356"/>
      <point x="705" y="274" type="curve" smooth="yes"/>
      <point x="705" y="184"/>
      <point x="673" y="127"/>
      <point x="630" y="127" type="curve" smooth="yes"/>
      <point x="577" y="127"/>
      <point x="537" y="181"/>
      <point x="537" y="263" type="curve" smooth="yes"/>
      <point x="537" y="447"/>
      <point x="448" y="558"/>
      <point x="287" y="558" type="curve" smooth="yes"/>
      <point x="131" y="558"/>
      <point x="35" y="447"/>
      <point x="35" y="274" type="curve" smooth="yes"/>
      <point x="35" y="93"/>
      <point x="110" y="-10"/>
    </contour>
    <contour>
      <point x="374" y="-466" type="line"/>
      <point x="612" y="-466" type="line"/>
      <point x="612" y="-310" type="line"/>
      <point x="538" y="-310" type="line"/>
      <point x="538" y="212" type="line"/>
      <point x="374" y="350" type="line"/>
    </contour>
  </outline>
</glyph>
<glyph name="da_shn" format="2">
  <advance width="868"/>
  <unicode hex="107B"/>
  <note>
da_shn
</note>
  <outline>
    <contour>
      <point x="588" y="-10" type="curve" smooth="yes"/>
      <point x="758" y="-10"/>
      <point x="833" y="112"/>
      <point x="833" y="275" type="curve" smooth="yes"/>
      <point x="833" y="452"/>
      <point x="748" y="558"/>
      <point x="601" y="558" type="curve" smooth="yes"/>
      <point x="506" y="558"/>
      <point x="457" y="514"/>
      <point x="419" y="472" type="curve"/>
      <point x="485" y="337" type="line"/>
      <point x="504" y="381"/>
      <point x="535" y="423"/>
      <point x="598" y="423" type="curve" smooth="yes"/>
      <point x="681" y="423"/>
      <point x="712" y="348"/>
      <point x="712" y="266" type="curve" smooth="yes"/>
      <point x="712" y="183"/>
      <point x="668" y="123"/>
      <point x="605" y="123" type="curve" smooth="yes"/>
      <point x="597" y="123"/>
      <point x="586" y="123"/>
      <point x="577" y="123" type="curve"/>
      <point x="612" y="89" type="line"/>
      <point x="616" y="194"/>
      <point x="659" y="261"/>
      <point x="725" y="271" type="curve"/>
      <point x="716" y="364" type="line"/>
      <point x="552" y="322"/>
      <point x="513" y="205"/>
      <point x="509" y="6" type="curve"/>
      <point x="531" y="-2"/>
      <point x="552" y="-10"/>
    </contour>
    <contour>
      <point x="272" y="-10" type="curve" smooth="yes"/>
      <point x="432" y="-10"/>
      <point x="498" y="106"/>
      <point x="498" y="275" type="curve" smooth="yes"/>
      <point x="498" y="436"/>
      <point x="432" y="558"/>
      <point x="277" y="558" type="curve" smooth="yes"/>
      <point x="133" y="558"/>
      <point x="35" y="444"/>
      <point x="35" y="274" type="curve" smooth="yes"/>
      <point x="35" y="104"/>
      <point x="134" y="-10"/>
    </contour>
    <contour>
      <point x="279" y="125" type="curve" smooth="yes"/>
      <point x="225" y="125"/>
      <point x="197" y="180"/>
      <point x="197" y="274" type="curve" smooth="yes"/>
      <point x="197" y="363"/>
      <point x="223" y="423"/>
      <point x="278" y="423" type="curve" smooth="yes"/>
      <point x="337" y="423"/>
      <point x="359" y="367"/>
      <point x="359" y="274" type="curve" smooth="yes"/>
      <point x="359" y="198"/>
      <point x="339" y="125"/>
    </contour>
  </outline>
</glyph>
